<?xml version="1.0" encoding="utf-8"?>
<!-- Generator: Adobe Illustrator 23.0.3, SVG Export Plug-In . SVG Version: 6.00 Build 0)  -->
<svg version="1.1" id="_x30_3" xmlns="http://www.w3.org/2000/svg" xmlns:xlink="http://www.w3.org/1999/xlink" x="0px" y="0px"
	 viewBox="0 0 2048 1112" style="enable-background:new 0 0 2048 1112;" xml:space="preserve">
<style type="text/css">
	.st0{fill:#FFFFFF;}
	.st1{opacity:0.5;}
	.st2{fill:#DEE1E0;}
	.st3{fill:#197593;}
	.st4{opacity:0.25;}
	.st5{fill:#CAE1E8;}
	.st6{opacity:0.75;}
	.st7{fill:#004966;}
	.st8{fill:#D6902D;}
	.st9{fill:#DD9099;}
	.st10{fill:#94631E;}
	.st11{opacity:0.1;}
	.st12{fill:#0A9181;}
	.st13{fill:#E6F4F2;}
</style>
<g>
	<rect class="st0" width="2048" height="1112"/>
</g>
<g>
	<g class="st1">
		<path class="st2" d="M1120.1,427l36.6,162.3c0,0,7.5,20.1,31.2,21c24,0.8,746.8-0.8,746.8-0.8s58.9-1,45.6-17.3
			c-13.1-16.1-124.9-199-124.9-199s-12.5-18.2-50-17.1c-35.8,1-629.9,31.6-659.4,32.6C1124.4,409.5,1119.5,417.2,1120.1,427z"/>
	</g>
	<g>
		<g>
			<g>
				<path class="st3" d="M1917.2,105.7c-21.5,0-46.3-3.4-65.3-18c-8.8-6.7-17.6-18.7-13.5-30.5c4.3-12.5,44.7-20.4,53.1-21.1l0,0
					c72.2-6.4,117.7-0.3,131.6,17.8c5.2,6.8,6.1,15.2,2.6,25c-4.3,12-20.1,15.4-28.6,17.2c-19.7,4.3-40,7.2-60.1,8.8
					C1930.9,105.3,1924.2,105.7,1917.2,105.7z M1891.6,39c-13.5,1.2-47.4,9.9-50.6,19.2c-3.5,10.3,4.6,21.2,12.6,27.3
					c24.5,18.7,59.1,18.4,83.1,16.6c20-1.5,40.1-4.5,59.7-8.7c11-2.4,23.1-5.7,26.5-15.4c3.2-9,2.5-16.2-2.2-22.3
					C2011.5,43.6,1981.6,31,1891.6,39L1891.6,39z"/>
			</g>
		</g>
		<g class="st4">
			<g>
				<path class="st5" d="M1887,30.5c-12.1,1.1-51.2,10.5-55,23.1c-3.8,12.5,4.6,25.9,14.2,34c24.9,21.1,58.7,23,89.7,20.6
					c21.4-1.6,42.8-4.9,63.8-9.7c11.5-2.6,25.3-6.6,29.2-18.9C2048.7,17.2,1919.5,27.6,1887,30.5z"/>
			</g>
		</g>
		<g>
			<g>
				<path class="st3" d="M1915.8,359.3c-24.6,0-49.1-5.4-71.4-16.4c-4.2-2.1-8.8-4.6-11.6-9c-3-4.9-3-10.9-2.9-15.8l1.9-249.9
					c0-0.8,0.6-1.4,1.4-1.4l0,0c0.8,0,1.4,0.6,1.4,1.4l-1.9,249.9c0,4.5-0.1,10.1,2.5,14.3c2.3,3.8,6.6,6.1,10.4,8
					c57,28.3,132.3,17.6,179.3-25.3l0.5-7.3c5.2-74.8,11.2-159.6,1.2-234.5c-0.1-0.8,0.4-1.5,1.2-1.6c0.8-0.1,1.5,0.4,1.6,1.2
					c10,75.2,4.1,160.2-1.2,235.1l-0.6,8.4l-0.4,0.4C1997,344.6,1956.4,359.3,1915.8,359.3z"/>
			</g>
		</g>
		<g class="st4">
			<g>
				<path class="st5" d="M2005.2,108.3c-21,4.8-42.3,8-63.8,9.7c-31.1,2.4-64.8,0.5-89.7-20.6c-5.3-4.5-10.2-10.6-12.9-17.2
					c-0.6,82.5-1.3,165.1-1.9,247.6c0,5.2,0,10.7,2.7,15c2.5,4,6.8,6.4,11,8.5c58.1,28.8,110.9,11.1,158.6-32.8
					C2014.5,242.6,2016.7,105.7,2005.2,108.3z"/>
			</g>
		</g>
	</g>
	<g>
		<g>
			<path class="st0" d="M1967.9,603h-794.7c-2.5,0-4.6-2.1-4.6-4.6V88.6c0-2.5,2.1-4.6,4.6-4.6h794.7c2.5,0,4.6,2.1,4.6,4.6v509.7
				C1972.5,600.9,1970.4,603,1967.9,603z"/>
		</g>
		<g>
			<path class="st3" d="M1953.9,604.9h-766.6c-11.4,0-20.7-8.8-20.7-19.5V101.6c0-10.8,9.3-19.5,20.7-19.5h766.6
				c11.4,0,20.7,8.8,20.7,19.5v483.7C1974.5,596.1,1965.3,604.9,1953.9,604.9z M1187.3,85.9c-9.2,0-16.7,7.1-16.7,15.7v483.7
				c0,8.7,7.5,15.7,16.7,15.7h766.6c9.2,0,16.7-7.1,16.7-15.7V101.6c0-8.7-7.5-15.7-16.7-15.7H1187.3z"/>
		</g>
	</g>
	<g class="st1">
		<path class="st5" d="M1941.2,90.7h-745.6c-8.9,0-16.1,7.4-16.1,16.4v117.5h777.7V107.2C1957.3,98.1,1950.1,90.7,1941.2,90.7z"/>
	</g>
	<g class="st6">
		<g>
			<path class="st7" d="M1419,135.5l3-3.8c2.3,2,4.8,3.6,8,3.6c2.9,0,4.8-1.6,4.8-3.9l0,0c0-1.9-1-3.2-5.8-5
				c-5.8-2.2-8.8-4.3-8.8-9.2v-0.1c0-5,4-8.5,9.7-8.5c3.5,0,6.8,1.1,9.6,3.6l-2.9,3.9c-2.1-1.7-4.4-2.9-6.8-2.9
				c-2.7,0-4.4,1.5-4.4,3.5l0,0c0,2.1,1.1,3.3,6.3,5.3c5.7,2.2,8.3,4.5,8.3,9v0.1c0,5.4-4.2,8.8-9.9,8.8
				C1426.1,139.9,1422.3,138.5,1419,135.5z"/>
			<path class="st7" d="M1450.5,113.7h-8V109h21.1v4.7h-8v25.8h-5L1450.5,113.7L1450.5,113.7z"/>
			<path class="st7" d="M1465.8,124.5v-0.4c0-9.1,5.6-15.5,13.5-15.5s13.4,6.4,13.4,15.4v0.4c0,9.1-5.6,15.5-13.5,15.5
				S1465.8,133.5,1465.8,124.5z M1487.5,124.4v-0.3c0-6.5-3.5-10.9-8.3-10.9s-8.2,4.3-8.2,10.9v0.3c0,6.5,3.5,10.9,8.3,10.9
				C1484.1,135.3,1487.5,131,1487.5,124.4z"/>
			<path class="st7" d="M1498.2,109h11c3.5,0,6.3,1,8.1,2.9c1.6,1.6,2.5,3.9,2.5,6.7v0.2c0,4.7-2.6,7.6-6.3,8.9l7.2,11.8h-5.8
				l-6.5-10.8c-0.1,0-0.2,0-0.3,0h-4.9v10.7h-5L1498.2,109L1498.2,109z M1508.7,124.2c3.9,0,6.1-2.1,6.1-5.3v-0.1
				c0-3.4-2.2-5.2-6-5.2h-5.5v10.6H1508.7z"/>
			<path class="st7" d="M1525.4,109h19.2v4.6h-14.2v8.3h12.6v4.6h-12.6v8.5h14.4v4.6h-19.4V109z"/>
			<path class="st7" d="M1550.1,109h9.3c8.7,0,14.4,6.1,14.4,15v0.3c0,8.9-5.7,15.1-14.4,15.1h-9.3V109z M1555.1,113.6v21.3h4.2
				c5.6,0,9.3-4,9.3-10.5v-0.3c0-6.6-3.7-10.6-9.3-10.6h-4.2V113.6z"/>
			<path class="st7" d="M1590.5,109h19.2v4.6h-14.2v8.3h12.6v4.6h-12.6v8.5h14.4v4.6h-19.4V109z"/>
			<path class="st7" d="M1613,109h5.5l7.5,23l7.5-23h5.3l-10.5,30.6h-4.7L1613,109z"/>
			<path class="st7" d="M1643.1,109h19.2v4.6h-14.2v8.3h12.6v4.6h-12.6v8.5h14.4v4.6h-19.4V109z"/>
			<path class="st7" d="M1667.8,109h4.7l13.4,20.3V109h4.9v30.5h-4.3l-13.8-20.9v20.9h-5V109H1667.8z"/>
			<path class="st7" d="M1703.5,113.7h-8V109h21.1v4.7h-8v25.8h-5L1703.5,113.7L1703.5,113.7z"/>
			<path class="st7" d="M1718.6,135.5l3-3.8c2.3,2,4.8,3.6,8,3.6c2.9,0,4.8-1.6,4.8-3.9l0,0c0-1.9-1-3.2-5.8-5
				c-5.8-2.2-8.8-4.3-8.8-9.2v-0.1c0-5,4-8.5,9.7-8.5c3.5,0,6.8,1.1,9.6,3.6l-2.9,3.9c-2.1-1.7-4.4-2.9-6.8-2.9
				c-2.7,0-4.4,1.5-4.4,3.5l0,0c0,2.1,1.1,3.3,6.3,5.3c5.7,2.2,8.3,4.5,8.3,9v0.1c0,5.4-4.2,8.8-9.9,8.8
				C1725.7,139.9,1721.9,138.5,1718.6,135.5z"/>
		</g>
	</g>
	<g class="st1">
		<rect x="1183.9" y="155.5" class="st0" width="769.1" height="4.3"/>
	</g>
	<g class="st1">
		<rect x="1183.9" y="306.8" class="st3" width="773.4" height="4.3"/>
	</g>
	<g class="st1">
		<rect x="1183.9" y="380.2" class="st3" width="773.4" height="4.3"/>
	</g>
	<g class="st1">
		<rect x="1183.9" y="453.7" class="st3" width="773.4" height="4.3"/>
	</g>
	<g class="st1">
		<rect x="1183.9" y="527.1" class="st3" width="773.4" height="4.3"/>
	</g>
	<g>
		<g>
			<path d="M1203.3,261.6h3.4l7.8,21.3h-3.7l-1.8-5h-8.2l-1.8,5h-3.5L1203.3,261.6z M1208,274.8l-3-8.5l-3,8.5H1208z"/>
			<path d="M1217.5,261.7h7.6c2.3,0,4.2,0.6,5.4,1.8c0.9,0.9,1.4,2.1,1.4,3.6v0.1c0,2.6-1.5,4-3.1,4.8c2.3,0.8,4,2.2,4,5.1v0.1
				c0,3.7-3,5.8-7.5,5.8h-7.8V261.7z M1228.4,267.7c0-1.8-1.3-2.8-3.6-2.8h-3.9v5.9h3.7C1226.9,270.7,1228.4,269.7,1228.4,267.7
				L1228.4,267.7z M1225.2,273.7h-4.3v6.1h4.4c2.4,0,3.9-1.1,3.9-3v-0.1C1229.3,274.9,1227.9,273.7,1225.2,273.7z"/>
			<path d="M1235.5,272.4v-0.2c0-6.4,4-10.8,9.5-10.8c3,0,4.9,1.1,6.7,2.6l-2.1,2.7c-1.2-1.1-2.6-2.1-4.5-2.1c-3.3,0-5.8,3-5.8,7.5
				v0.1c0,4.6,2.5,7.6,5.8,7.6c2,0,3.4-0.9,4.7-2.2l2.1,2.5c-1.8,1.9-4,3-6.9,3C1239.4,283.2,1235.5,278.9,1235.5,272.4z"/>
			<path d="M1253.6,272h8.4v3.4h-8.4V272z"/>
			<path d="M1267.2,265.2l-3.3,1l-0.6-3l4.9-1.6h2.5v21.3h-3.5V265.2z"/>
			<path d="M1274.4,280.1l6.5-6.9c2.4-2.5,3.3-3.8,3.3-5.5c0-1.9-1.4-3-3.1-3s-2.8,0.9-4.2,2.7l-2.3-2.1c1.8-2.4,3.8-3.8,6.9-3.8
				c3.7,0,6.4,2.3,6.4,6v0.1c0,2.9-1.3,4.6-4.4,7.7l-4.2,4.6h8.7v3.2h-13.4v-3H1274.4z"/>
			<path d="M1290.2,280.3l2.2-2.5c1.1,1.3,2.5,2.2,4.6,2.2c2,0,3.5-1.3,3.5-3.4v-0.1c0-2.2-1.9-3.4-4.8-3.4h-1.1l-0.5-2.2l5.1-6.1
				h-8v-3.1h12.4v2.8l-5.4,6.1c2.9,0.5,5.6,2.2,5.6,5.9v0.1c0,4-2.9,6.7-6.9,6.7C1294,283.2,1291.8,282.1,1290.2,280.3z"/>
		</g>
		<g>
			<path d="M1404.5,261.7h3.7l5.4,9.7l5.4-9.7h3.7v21.2h-3.5v-15l-5.6,9.8h-0.1l-5.6-9.7v14.9h-3.4V261.7z"/>
			<path d="M1426.2,275.1v-0.3c0-4.7,3.1-8.2,7.4-8.2c4.2,0,7.4,3.5,7.4,8.2v0.3c0,4.7-3.1,8.2-7.4,8.2
				C1429.3,283.2,1426.2,279.8,1426.2,275.1z M1437.6,275v-0.2c0-3-1.7-5.2-4-5.2c-2.4,0-3.9,2.2-3.9,5.2v0.2c0,3,1.7,5.3,4,5.3
				S1437.6,278,1437.6,275z"/>
			<path d="M1444.1,266.9h3.4v2.4c0.9-1.4,2.2-2.7,4.4-2.7c3.1,0,4.9,2.2,4.9,5.6v10.7h-3.4v-9.8c0-2.2-1.1-3.5-2.9-3.5
				s-3,1.3-3,3.5v9.7h-3.4V266.9z"/>
			<path d="M1459.8,275.1v-0.2c0-4.8,2.9-8.3,6.8-8.3c4.4,0,6.7,3.6,6.7,8.4c0,0.2,0,0.7,0,1.2h-10c0.3,2.7,2,4.1,4.1,4.1
				c1.5,0,2.6-0.7,3.7-1.7l1.8,2.1c-1.5,1.5-3.2,2.5-5.6,2.5C1463.1,283.2,1459.8,280.1,1459.8,275.1z M1470,273.8
				c-0.2-2.5-1.3-4.4-3.3-4.4c-1.9,0-3.2,1.7-3.5,4.4H1470z"/>
			<path d="M1485.3,266.9h3.5l-5.4,16.3c-1.1,3.2-2.4,4.4-4.7,4.4c-1.2,0-2.2-0.3-3.2-0.8l1-2.6c0.5,0.3,1.2,0.5,1.8,0.5
				c0.9,0,1.5-0.4,1.9-1.7l-5.7-16.1h3.6l3.7,11.6L1485.3,266.9z"/>
			<path d="M1490.4,280.1l2.1-2.6c1.6,1.4,3.3,2.5,5.6,2.5c2,0,3.3-1.1,3.3-2.7l0,0c0-1.3-0.7-2.2-4.1-3.4c-4-1.5-6.1-3-6.1-6.4
				v-0.1c0-3.5,2.8-5.9,6.7-5.9c2.5,0,4.7,0.8,6.7,2.5l-2,2.7c-1.5-1.2-3.1-2-4.8-2c-1.9,0-3.1,1.1-3.1,2.5l0,0
				c0,1.5,0.8,2.3,4.4,3.7c3.9,1.5,5.8,3.1,5.8,6.2v0.1c0,3.7-2.9,6.1-6.9,6.1C1495.3,283.2,1492.7,282.2,1490.4,280.1z"/>
			<path d="M1508,277.6v-10.7h3.4v9.8c0,2.2,1.1,3.5,2.8,3.5c1.8,0,3-1.3,3-3.5V267h3.5v16h-3.5v-2.3c-0.9,1.4-2.2,2.6-4.4,2.6
				C1509.8,283.2,1508,281.1,1508,277.6z"/>
			<path d="M1528,280.5v2.4h-3.4v-21.8h3.4v8.4c1-1.5,2.4-2.9,4.7-2.9c3.2,0,6.2,2.7,6.2,8.1v0.4c0,5.4-3,8.1-6.2,8.1
				C1530.4,283.2,1529,281.9,1528,280.5z M1535.5,275v-0.3c0-3.2-1.7-5.2-3.7-5.2c-2.1,0-3.8,2-3.8,5.1v0.3c0,3.1,1.8,5.1,3.8,5.1
				C1533.9,280.2,1535.5,278.3,1535.5,275z"/>
			<path d="M1542.8,279v-9.2h-1.8v-2.9h1.8v-4.3h3.4v4.3h3.6v2.9h-3.6v8.5c0,1.2,0.6,1.8,1.7,1.8c0.7,0,1.3-0.2,1.8-0.5v2.8
				c-0.8,0.4-1.7,0.7-2.8,0.7C1544.6,283.2,1542.8,282.2,1542.8,279z"/>
			<path d="M1552.9,266.9h3.4v3.1c0.8-2.1,2.4-3.5,4.8-3.4v3.7h-0.2c-2.8,0-4.7,1.8-4.7,5.5v7.1h-3.4L1552.9,266.9L1552.9,266.9z"/>
			<path d="M1562.3,278.3v-0.2c0-3.4,2.3-5.1,5.7-5.1c1.5,0,2.6,0.3,3.7,0.6V273c0-2.1-1.3-3.3-3.4-3.3c-1.5,0-2.8,0.5-3.9,1l-1-2.7
				c1.5-0.8,3.1-1.3,5.3-1.3c2.1,0,3.7,0.6,4.7,1.6c1.1,1.1,1.6,2.6,1.6,4.6v10h-3.4v-2c-0.9,1.4-2.4,2.3-4.4,2.3
				C1564.5,283.2,1562.3,281.4,1562.3,278.3z M1571.7,277.5v-1.6c-0.8-0.3-1.8-0.6-3-0.6c-2,0-3.1,1-3.1,2.7v0.1
				c0,1.6,1.1,2.5,2.6,2.5C1570.2,280.7,1571.7,279.3,1571.7,277.5z"/>
			<path d="M1577.9,275.1v-0.3c0-4.8,3.1-8.2,7.3-8.2c2.3,0,3.8,0.8,5.1,2.2l-1.9,2.5c-0.8-0.9-1.8-1.6-3.2-1.6
				c-2.2,0-3.9,2.1-3.9,5.2v0.2c0,3.1,1.6,5.2,4,5.2c1.4,0,2.3-0.7,3.3-1.6l1.8,2.3c-1.3,1.4-2.9,2.4-5.3,2.4
				C1580.9,283.2,1577.9,279.9,1577.9,275.1z"/>
			<path d="M1593.8,279v-9.2h-1.8v-2.9h1.8v-4.3h3.4v4.3h3.6v2.9h-3.6v8.5c0,1.2,0.6,1.8,1.7,1.8c0.7,0,1.3-0.2,1.8-0.5v2.8
				c-0.8,0.4-1.7,0.7-2.8,0.7C1595.6,283.2,1593.8,282.2,1593.8,279z"/>
			<path d="M1602.8,275.1v-0.2c0-4.8,2.9-8.3,6.8-8.3c4.4,0,6.7,3.6,6.7,8.4c0,0.2,0,0.7,0,1.2h-10c0.3,2.7,2,4.1,4.1,4.1
				c1.5,0,2.6-0.7,3.7-1.7l1.8,2.1c-1.5,1.5-3.2,2.5-5.6,2.5C1606,283.2,1602.8,280.1,1602.8,275.1z M1612.9,273.8
				c-0.2-2.5-1.3-4.4-3.3-4.4c-1.9,0-3.2,1.7-3.5,4.4H1612.9z"/>
			<path d="M1618.7,275.1v-0.4c0-5.4,3-8.1,6.2-8.1c2.3,0,3.7,1.3,4.7,2.7v-8.2h3.4v21.8h-3.4v-2.6c-1,1.5-2.4,2.9-4.7,2.9
				C1621.7,283.2,1618.7,280.5,1618.7,275.1z M1629.7,275v-0.3c0-3.1-1.8-5.1-3.8-5.1c-2.1,0-3.7,1.9-3.7,5.2v0.2
				c0,3.2,1.7,5.2,3.7,5.2S1629.7,278.2,1629.7,275z"/>
		</g>
		<g>
			<path d="M1696.3,265.2l-3.3,1l-0.6-3l4.9-1.6h2.5v21.3h-3.5V265.2z"/>
			<path d="M1703.8,272.5v-0.3c0-6.4,3.1-10.8,8.1-10.8c4.8,0,8,4.3,8,10.7v0.3c0,6.4-3.1,10.8-8.1,10.8S1703.8,278.9,1703.8,272.5z
				 M1716.2,272.5v-0.2c0-4.7-1.8-7.6-4.4-7.6s-4.4,2.8-4.4,7.6v0.2c0,4.8,1.8,7.6,4.5,7.6C1714.4,280,1716.2,277.2,1716.2,272.5z"
				/>
			<path d="M1722.7,272.5v-0.3c0-6.4,3.1-10.8,8.1-10.8c4.8,0,8,4.3,8,10.7v0.3c0,6.4-3.1,10.8-8.1,10.8S1722.7,278.9,1722.7,272.5z
				 M1735.2,272.5v-0.2c0-4.7-1.8-7.6-4.4-7.6s-4.4,2.8-4.4,7.6v0.2c0,4.8,1.8,7.6,4.5,7.6C1733.4,280,1735.2,277.2,1735.2,272.5z"
				/>
			<path d="M1741.7,272.5v-0.3c0-6.4,3.1-10.8,8.1-10.8c4.8,0,8,4.3,8,10.7v0.3c0,6.4-3.1,10.8-8.1,10.8S1741.7,278.9,1741.7,272.5z
				 M1754.1,272.5v-0.2c0-4.7-1.8-7.6-4.4-7.6s-4.4,2.8-4.4,7.6v0.2c0,4.8,1.8,7.6,4.5,7.6C1752.4,280,1754.1,277.2,1754.1,272.5z"
				/>
		</g>
		<g>
			<path d="M1831.7,265.2l-3.3,1l-0.6-3l4.9-1.6h2.5v21.3h-3.5V265.2z"/>
			<path d="M1842.3,265.2l-3.3,1l-0.6-3l4.9-1.6h2.5v21.3h-3.5V265.2z"/>
			<path d="M1850.2,266.9h3.9v4h-3.9V266.9z M1850.2,278.9h3.9v4h-3.9V278.9z"/>
			<path d="M1860.6,265.2l-3.3,1l-0.6-3l4.9-1.6h2.5v21.3h-3.5V265.2z"/>
			<path d="M1867.8,280.1l6.5-6.9c2.4-2.5,3.3-3.8,3.3-5.5c0-1.9-1.4-3-3.1-3s-2.8,0.9-4.2,2.7l-2.3-2.1c1.8-2.4,3.8-3.8,6.9-3.8
				c3.7,0,6.4,2.3,6.4,6v0.1c0,2.9-1.3,4.6-4.4,7.7l-4.2,4.6h8.7v3.2H1868v-3H1867.8z"/>
			<path d="M1899,261.6h3.4l7.8,21.3h-3.7l-1.8-5h-8.2l-1.8,5h-3.5L1899,261.6z M1903.7,274.8l-3-8.5l-3,8.5H1903.7z"/>
			<path d="M1913.2,261.7h3.7l5.4,9.7l5.4-9.7h3.7v21.2h-3.5v-15l-5.6,9.8h-0.1l-5.6-9.7v14.9h-3.4V261.7z"/>
		</g>
	</g>
	<g class="st1">
		<g>
			<path class="st7" d="M1187.5,187.4h1.9l7,18.4h-2.1l-1.8-4.8h-8.2l-1.8,4.8h-2L1187.5,187.4z M1191.9,199.2l-3.4-9.3l-3.5,9.3
				H1191.9z"/>
			<path class="st7" d="M1197.8,196.7v-0.2c0-5.3,3.3-9.3,8.1-9.3c2.4,0,4,0.7,5.5,2l-1.2,1.6c-1.1-1-2.4-1.7-4.4-1.7
				c-3.5,0-6.1,3.1-6.1,7.5v0.1c0,4.6,2.5,7.6,6.2,7.6c1.6,0,3-0.6,3.9-1.3v-5.1h-4.6V196h6.4v7.8c-1.4,1.1-3.5,2.1-5.9,2.1
				C1201,206,1197.8,202.2,1197.8,196.7z"/>
			<path class="st7" d="M1215.2,196.7v-0.2c0-5.3,3.3-9.3,8.1-9.3c2.4,0,4,0.7,5.5,2l-1.2,1.6c-1.1-1-2.4-1.7-4.4-1.7
				c-3.5,0-6.1,3.1-6.1,7.5v0.1c0,4.6,2.5,7.6,6.2,7.6c1.6,0,3-0.6,3.9-1.3v-5.1h-4.6V196h6.4v7.8c-1.4,1.1-3.5,2.1-5.9,2.1
				C1218.4,206,1215.2,202.2,1215.2,196.7z"/>
			<path class="st7" d="M1233.4,187.5h6.2c2.1,0,3.8,0.6,4.8,1.7c0.9,0.9,1.4,2.2,1.4,3.8v0.1c0,2.9-1.8,4.6-4.3,5.3l4.9,7.5h-2.3
				l-4.6-7.1h-4.2v7.1h-2L1233.4,187.5L1233.4,187.5z M1239.3,196.9c3,0,4.6-1.5,4.6-3.8V193c0-2.4-1.7-3.7-4.4-3.7h-4.2v7.6
				L1239.3,196.9L1239.3,196.9z"/>
			<path class="st7" d="M1249.6,187.5h11.1v1.8h-9.2v6.4h8.2v1.8h-8.2v6.5h9.3v1.8h-11.3L1249.6,187.5L1249.6,187.5z"/>
			<path class="st7" d="M1263.6,196.7v-0.2c0-5.3,3.3-9.3,8.1-9.3c2.4,0,4,0.7,5.5,2l-1.2,1.6c-1.1-1-2.4-1.7-4.4-1.7
				c-3.5,0-6.1,3.1-6.1,7.5v0.1c0,4.6,2.5,7.6,6.2,7.6c1.6,0,3-0.6,3.9-1.3v-5.1h-4.6V196h6.4v7.8c-1.4,1.1-3.5,2.1-5.9,2.1
				C1266.8,206,1263.6,202.2,1263.6,196.7z"/>
			<path class="st7" d="M1287.3,187.4h1.9l7,18.4h-2.1l-1.8-4.8h-8.2l-1.8,4.8h-2L1287.3,187.4z M1291.7,199.2l-3.4-9.3l-3.5,9.3
				H1291.7z"/>
			<path class="st7" d="M1301.2,189.3h-5.1v-1.8h12.2v1.8h-5.1v16.4h-2V189.3z"/>
			<path class="st7" d="M1311.5,187.5h11.1v1.8h-9.2v6.4h8.2v1.8h-8.2v6.5h9.3v1.8h-11.3L1311.5,187.5L1311.5,187.5z"/>
			<path class="st7" d="M1332.8,198.9v-11.5h2v11.4c0,3.4,1.8,5.4,4.6,5.4c2.8,0,4.6-1.8,4.6-5.3v-11.5h2v11.4
				c0,4.7-2.6,7.2-6.6,7.2C1335.5,206,1332.8,203.5,1332.8,198.9z"/>
			<path class="st7" d="M1349.9,198.9v-11.5h2v11.4c0,3.4,1.8,5.4,4.6,5.4c2.8,0,4.6-1.8,4.6-5.3v-11.5h2v11.4
				c0,4.7-2.6,7.2-6.6,7.2C1352.6,206,1349.9,203.5,1349.9,198.9z"/>
			<path class="st7" d="M1367.4,187.5h2v18.3h-2V187.5z"/>
			<path class="st7" d="M1373.9,187.5h5.2c5.1,0,8.6,3.7,8.6,9v0.2c0,5.4-3.5,9.1-8.6,9.1h-5.2V187.5z M1375.8,189.3V204h3.2
				c4,0,6.6-2.9,6.6-7.2v-0.2c0-4.3-2.6-7.3-6.6-7.3H1375.8z"/>
		</g>
	</g>
	<g class="st1">
		<g>
			<path class="st7" d="M1406.8,187.5h11.1v1.8h-9.2v6.4h8.2v1.8h-8.2v6.5h9.3v1.8h-11.3L1406.8,187.5L1406.8,187.5z"/>
			<path class="st7" d="M1420.3,187.5h2.1l5.4,15.6l5.4-15.6h2.1l-6.6,18.4h-1.8L1420.3,187.5z"/>
			<path class="st7" d="M1438.3,187.5h11.1v1.8h-9.2v6.4h8.2v1.8h-8.2v6.5h9.3v1.8h-11.3L1438.3,187.5L1438.3,187.5z"/>
			<path class="st7" d="M1453.1,187.5h1.9l9.6,14.4v-14.4h1.9v18.3h-1.6L1455,191v14.7h-1.9V187.5z"/>
			<path class="st7" d="M1474.7,189.3h-5.1v-1.8h12.2v1.8h-5.1v16.4h-2V189.3z"/>
			<path class="st7" d="M1491.1,196.7v-0.2c0-5.5,3.4-9.3,8-9.3c2.5,0,4.1,0.9,5.6,2.2l-1.2,1.5c-1.2-1.1-2.5-1.9-4.4-1.9
				c-3.4,0-6,3.1-6,7.5v0.1c0,4.5,2.6,7.5,6,7.5c1.9,0,3.2-0.8,4.5-2l1.2,1.4c-1.5,1.5-3.3,2.5-5.8,2.5
				C1494.5,206,1491.1,202.3,1491.1,196.7z"/>
			<path class="st7" d="M1507.8,187.5h2V204h8.5v1.8h-10.4L1507.8,187.5L1507.8,187.5z"/>
			<path class="st7" d="M1527,187.4h1.9l7,18.4h-2.1l-1.8-4.8h-8.2l-1.8,4.8h-2L1527,187.4z M1531.4,199.2l-3.4-9.3l-3.5,9.3H1531.4
				z"/>
			<path class="st7" d="M1537.5,203.4l1.2-1.5c1.5,1.4,3.1,2.3,5.1,2.3c2.2,0,3.7-1.3,3.7-3.1l0,0c0-1.5-0.7-2.5-4-3.7
				c-3.8-1.4-5.3-2.8-5.3-5.4l0,0c0-2.7,2.3-4.8,5.5-4.8c2.1,0,3.9,0.7,5.5,2.1l-1.2,1.5c-1.4-1.2-2.8-1.8-4.4-1.8
				c-2.1,0-3.4,1.3-3.4,2.8v0.1c0,1.6,0.8,2.5,4.3,3.8c3.7,1.4,5.1,2.9,5.1,5.3v0.1c0,2.9-2.4,5-5.7,5
				C1541.5,206,1539.4,205.2,1537.5,203.4z"/>
			<path class="st7" d="M1551.5,203.4l1.2-1.5c1.5,1.4,3.1,2.3,5.1,2.3c2.2,0,3.7-1.3,3.7-3.1l0,0c0-1.5-0.7-2.5-4-3.7
				c-3.8-1.4-5.3-2.8-5.3-5.4l0,0c0-2.7,2.3-4.8,5.5-4.8c2.1,0,3.9,0.7,5.5,2.1l-1.2,1.5c-1.4-1.2-2.8-1.8-4.4-1.8
				c-2.1,0-3.4,1.3-3.4,2.8v0.1c0,1.6,0.8,2.5,4.3,3.8c3.7,1.4,5.1,2.9,5.1,5.3v0.1c0,2.9-2.4,5-5.7,5
				C1555.5,206,1553.4,205.2,1551.5,203.4z"/>
		</g>
	</g>
	<g class="st1">
		<g>
			<path class="st7" d="M1613.5,187.5h11.1v1.8h-9.2v6.4h8.2v1.8h-8.2v6.5h9.3v1.8h-11.3L1613.5,187.5L1613.5,187.5z"/>
			<path class="st7" d="M1627,187.5h2.1l5.4,15.6l5.4-15.6h2.1l-6.6,18.4h-1.8L1627,187.5z"/>
			<path class="st7" d="M1645,187.5h11.1v1.8h-9.2v6.4h8.2v1.8h-8.2v6.5h9.3v1.8H1645V187.5z"/>
			<path class="st7" d="M1659.8,187.5h1.9l9.6,14.4v-14.4h1.9v18.3h-1.6l-9.8-14.7v14.7h-1.9L1659.8,187.5L1659.8,187.5z"/>
			<path class="st7" d="M1681.4,189.3h-5.1v-1.8h12.2v1.8h-5.1v16.4h-2V189.3z"/>
			<path class="st7" d="M1698.5,187.5h5.5c3.9,0,6.4,2.2,6.4,5.8v0.1c0,3.9-2.9,6-6.7,6h-3.3v6.4h-2L1698.5,187.5L1698.5,187.5z
				 M1703.8,197.5c2.8,0,4.6-1.6,4.6-4.2l0,0c0-2.7-1.8-4.1-4.5-4.1h-3.4v8.3H1703.8z"/>
			<path class="st7" d="M1713.6,187.5h6.2c2.1,0,3.8,0.6,4.8,1.7c0.9,0.9,1.4,2.2,1.4,3.8v0.1c0,2.9-1.8,4.6-4.3,5.3l4.9,7.5h-2.4
				l-4.6-7.1h-4.2v7.1h-2v-18.4H1713.6z M1719.5,196.9c3,0,4.6-1.5,4.6-3.8V193c0-2.4-1.7-3.7-4.4-3.7h-4.2v7.6L1719.5,196.9
				L1719.5,196.9z"/>
			<path class="st7" d="M1729.1,196.7v-0.2c0-5.4,3.2-9.3,7.9-9.3c4.6,0,7.8,3.9,7.8,9.3v0.2c0,5.4-3.2,9.3-7.9,9.3
				S1729.1,202.1,1729.1,196.7z M1742.8,196.7v-0.2c0-4.4-2.5-7.5-5.8-7.5s-5.8,3.1-5.8,7.5v0.2c0,4.4,2.5,7.5,5.8,7.5
				S1742.8,201.1,1742.8,196.7z"/>
			<path class="st7" d="M1748.5,187.5h5.5c3.9,0,6.4,2.2,6.4,5.8v0.1c0,3.9-2.9,6-6.7,6h-3.3v6.4h-2L1748.5,187.5L1748.5,187.5z
				 M1753.8,197.5c2.8,0,4.6-1.6,4.6-4.2l0,0c0-2.7-1.8-4.1-4.5-4.1h-3.4v8.3H1753.8z"/>
			<path class="st7" d="M1763.5,187.5h11.1v1.8h-9.2v6.4h8.2v1.8h-8.2v6.5h9.3v1.8h-11.3L1763.5,187.5L1763.5,187.5z"/>
			<path class="st7" d="M1778.3,187.5h6.2c2.1,0,3.8,0.6,4.8,1.7c0.9,0.9,1.4,2.2,1.4,3.8v0.1c0,2.9-1.8,4.6-4.3,5.3l4.9,7.5h-2.4
				l-4.6-7.1h-4.2v7.1h-2v-18.4H1778.3z M1784.2,196.9c3,0,4.6-1.5,4.6-3.8V193c0-2.4-1.7-3.7-4.4-3.7h-4.2v7.6L1784.2,196.9
				L1784.2,196.9z"/>
			<path class="st7" d="M1798.2,189.3h-5.1v-1.8h12.2v1.8h-5.1v16.4h-2V189.3z"/>
			<path class="st7" d="M1808.7,187.5h2v18.3h-2V187.5z"/>
			<path class="st7" d="M1815.2,187.5h11.1v1.8h-9.2v6.4h8.2v1.8h-8.2v6.5h9.3v1.8h-11.3L1815.2,187.5L1815.2,187.5z"/>
			<path class="st7" d="M1828.7,203.4l1.2-1.5c1.5,1.4,3.1,2.3,5.1,2.3c2.2,0,3.7-1.3,3.7-3.1l0,0c0-1.5-0.7-2.5-4-3.7
				c-3.8-1.4-5.3-2.8-5.3-5.4l0,0c0-2.7,2.3-4.8,5.5-4.8c2.1,0,3.9,0.7,5.5,2.1l-1.2,1.5c-1.4-1.2-2.8-1.8-4.4-1.8
				c-2.1,0-3.4,1.3-3.4,2.8v0.1c0,1.6,0.8,2.5,4.3,3.8c3.7,1.4,5.1,2.9,5.1,5.3v0.1c0,2.9-2.4,5-5.7,5
				C1832.7,206,1830.6,205.2,1828.7,203.4z"/>
		</g>
	</g>
	<g class="st1">
		<g>
			<path class="st7" d="M1879.3,189.3h-5.1v-1.8h12.2v1.8h-5.1v16.4h-2V189.3z"/>
			<path class="st7" d="M1889.8,187.5h2v18.3h-2V187.5z"/>
			<path class="st7" d="M1896.3,187.5h2l5.6,9.8l5.6-9.8h2v18.3h-2V191l-5.6,9.8h-0.1l-5.6-9.8v14.7h-1.9V187.5z"/>
			<path class="st7" d="M1915.9,187.5h11.1v1.8h-9.2v6.4h8.2v1.8h-8.2v6.5h9.3v1.8h-11.3L1915.9,187.5L1915.9,187.5z"/>
		</g>
	</g>
</g>
<g class="st1">
	<path class="st2" d="M1152,872.2L616.7,736.3c-2.5-0.6-4-3.2-3.4-5.7l92.6-364.7c0.6-2.5,3.2-4,5.7-3.4l535.3,135.9
		c2.5,0.6,4,3.2,3.4,5.7l-92.6,364.7C1157.1,871.3,1154.5,872.8,1152,872.2z"/>
</g>
<g>
	<path class="st0" d="M1177.8,847.4L631.1,769c-2.6-0.4-4.3-2.7-4-5.3l53.4-372.4c0.4-2.6,2.7-4.3,5.3-4l546.7,78.5
		c2.6,0.4,4.3,2.7,4,5.3l-53.4,372.4C1182.7,846,1180.3,847.8,1177.8,847.4z"/>
	<path class="st8" d="M1165.3,847.6c-1.1,0-2.2-0.1-3.2-0.2l-515.9-74c-5.9-0.9-11.2-4-14.8-8.8s-5.1-10.7-4.2-16.6l49-341.6
		c1.8-12.2,13.1-20.8,25.4-19l515.9,74c5.9,0.9,11.2,4,14.8,8.8c3.6,4.8,5.1,10.7,4.2,16.6l-49,341.6c-0.9,5.9-4,11.2-8.8,14.8
		C1174.7,846.1,1170.1,847.6,1165.3,847.6z M698.4,391.5c-8.9,0-16.6,6.5-17.9,15.5l-49,341.6c-0.7,4.8,0.5,9.6,3.4,13.4
		c2.9,3.9,7.1,6.4,11.9,7.1l515.9,74c4.8,0.7,9.6-0.5,13.4-3.4c3.9-2.9,6.4-7.1,7.1-11.9l49-341.6c0.7-4.8-0.5-9.6-3.4-13.4
		c-2.9-3.9-7.1-6.4-11.9-7.1l-515.9-74C700.1,391.5,699.2,391.5,698.4,391.5z"/>
</g>
<g>
	<ellipse class="st0" cx="813.4" cy="398.6" rx="35.6" ry="33.5"/>
</g>
<g>
	<circle class="st0" cx="1192.5" cy="790.7" r="38.9"/>
</g>
<g>
	<g class="st1">
		<path class="st2" d="M35.7,201.3l21.9,60.8c0,0,2.4,5.9,10.3,5.4S277.6,247,277.6,247s13.8-1.6,11.6-5.5
			c-2.2-3.9-25.9-60.6-25.9-60.6s-2.3-5.3-12.2-4.6c-9.6,0.6-195.2,17.4-205.9,18.2C37.3,195.2,35.5,198,35.7,201.3z"/>
	</g>
	<g>
		<path class="st0" d="M61.1,73.2l16.1,164.4c0,0,1.8,16.1,8.9,16.1s189.5-17.9,189.5-17.9s12.5-1.8,10.7-12.5
			S266.7,58.9,266.7,58.9s-1.8-14.3-10.7-14.3c-8.7,0-176.3,12.3-185.9,12.5C62.9,57.3,61.1,64.3,61.1,73.2z"/>
		<path class="st3" d="M86.2,255.9c-8.8,0-10.9-16.2-11.1-18L59,73.2c0-4.4,0-18,11-18.2c4.3-0.1,41.5-2.7,80.8-5.5
			c49.2-3.5,100.1-7,105.1-7l0,0c10.7,0,12.8,15.5,12.9,16.2c0.2,1.6,17.9,153.8,19.6,164.3c0.6,3.5-0.1,6.5-1.9,9.1
			c-3.6,4.9-10.3,5.9-10.6,5.9C268.4,238.7,93.3,255.9,86.2,255.9z M63.3,73.1l16.1,164.3c0.5,4.6,2.9,14.1,6.8,14.1
			c5.6,0,126.2-11.7,189.2-17.9l0,0c0,0,5.2-0.8,7.7-4.2c1.2-1.6,1.5-3.5,1.1-5.8c-1.8-10.7-18.9-158.3-19.7-164.5
			c0-0.1-1.7-12.4-8.6-12.4l0,0c-4.8,0-57.9,3.7-104.8,7c-39.4,2.8-76.6,5.4-81,5.5C66.8,59.4,63.3,61.1,63.3,73.1z"/>
	</g>
	<g class="st1">
		<path class="st5" d="M272,66c-0.7-6.8-1.1-8.5-1.1-8.5S269.2,41,260.2,41S80.9,55.4,73.7,55.4s-9,8.2-9,18.5l0.9,8.2
			C113.1,78,212.5,70.4,272,66z"/>
	</g>
	<g>
		<g>
			<path class="st5" d="M79.3,72.6L74.6,73c-0.4,0-0.7-0.3-0.8-0.7l-0.3-4.7c0-0.4,0.3-0.7,0.7-0.8l4.7-0.3c0.4,0,0.7,0.3,0.8,0.7
				l0.3,4.7C80,72.3,79.7,72.6,79.3,72.6z"/>
		</g>
		<g>
			<path class="st5" d="M89.5,71.9l-4.7,0.3c-0.4,0-0.7-0.3-0.8-0.7l-0.3-4.7c0-0.4,0.3-0.7,0.7-0.8l4.7-0.3c0.4,0,0.7,0.3,0.8,0.7
				l0.3,4.7C90.2,71.5,89.9,71.9,89.5,71.9z"/>
		</g>
		<g>
			<path class="st5" d="M99.7,71.2L95,71.5c-0.4,0-0.7-0.3-0.8-0.7L94,66.2c0-0.4,0.3-0.7,0.7-0.8l4.7-0.3c0.4,0,0.7,0.3,0.8,0.7
				l0.3,4.7C100.4,70.8,100.1,71.2,99.7,71.2z"/>
		</g>
	</g>
</g>
<g>
	<path class="st7" d="M133.8,142.7h8.4l15.2,42.6h-9.1l-3.1-9.2h-14.6l-3.1,9.2h-8.8L133.8,142.7z M142.5,168.4l-4.6-13.8l-4.7,13.8
		H142.5z"/>
	<path class="st7" d="M162.6,143h14.1c9.5,0,15.5,5.5,15.5,14.5v0.1c0,9.7-7,14.6-15.9,14.8h-5v12.9h-8.8L162.6,143L162.6,143z
		 M176.3,164.6c4.5,0,7.1-2.8,7.1-6.8v-0.1c0-4.4-2.5-6.8-7.2-6.8h-4.8v13.7L176.3,164.6L176.3,164.6z"/>
	<path class="st7" d="M197.9,143H212c9.5,0,15.5,5.5,15.5,14.5v0.1c0,9.7-7,14.6-15.9,14.8h-5v12.9h-8.8L197.9,143L197.9,143z
		 M211.6,164.6c4.5,0,7.1-2.8,7.1-6.8v-0.1c0-4.4-2.5-6.8-7.2-6.8h-4.8v13.7L211.6,164.6L211.6,164.6z"/>
</g>
<g class="st4">
	<g>
		<g class="st1">
			<path class="st2" d="M1449.9,914.3l22.8,82.3c0,0,4.6,15,18.7,15.8c14.3,0.8,444.3,6.7,444.3,6.7s35-0.2,27-12.4
				c-8-12.1-75.8-110.4-75.8-110.4s-7.6-13.6-29.9-13.2c-21.3,0.4-374.4,17.3-392,17.8C1452.3,901.4,1449.5,907.1,1449.9,914.3z"/>
		</g>
		<g>
			<g>
				<path class="st0" d="M1967.8,1004.8h-474.7c-2.5,0-4.6-2.1-4.6-4.6V754c0-2.5,2.1-4.6,4.6-4.6h474.7c2.5,0,4.6,2.1,4.6,4.6
					v246.2C1972.4,1002.7,1970.3,1004.8,1967.8,1004.8z"/>
			</g>
			<g>
				<path class="st9" d="M1952.4,1006.7h-444c-12.2,0-22.1-8.8-22.1-19.5V767c0-10.8,9.9-19.5,22.1-19.5h444
					c12.2,0,22.1,8.8,22.1,19.5v220.2C1974.5,998,1964.6,1006.7,1952.4,1006.7z M1508.4,751.3c-9.8,0-17.8,7.1-17.8,15.7v220.2
					c0,8.7,8,15.7,17.8,15.7h444c9.8,0,17.8-7.1,17.8-15.7V767c0-8.7-8-15.7-17.8-15.7H1508.4z"/>
			</g>
		</g>
		<g class="st4">
			<path class="st9" d="M1944.3,756.1h-432c-9.5,0-17.3,7.4-17.3,16.4v48.4h466.6v-48.4C1961.6,763.5,1953.8,756.1,1944.3,756.1z"/>
		</g>
		<g>
			<path class="st9" d="M1640.8,777.5h4.4l10,27.4h-4.7l-2.3-6.4h-10.6l-2.3,6.4h-4.6L1640.8,777.5z M1646.7,794.4l-3.9-10.9
				l-3.9,10.9H1646.7z"/>
			<path class="st9" d="M1656.6,791.4v-0.3c0-8.2,5.1-13.9,12.2-13.9c3.8,0,6.3,1.4,8.6,3.4l-2.7,3.5c-1.6-1.5-3.4-2.6-5.8-2.6
				c-4.3,0-7.5,3.9-7.5,9.7v0.2c0,5.9,3.2,9.8,7.5,9.8c2.6,0,4.3-1.2,6-2.8l2.6,3.2c-2.4,2.5-5.1,3.9-8.9,3.9
				C1661.6,805.2,1656.6,799.7,1656.6,791.4z"/>
			<path class="st9" d="M1679.8,791.4v-0.3c0-8.2,5.1-13.9,12.2-13.9c3.8,0,6.3,1.4,8.6,3.4l-2.7,3.5c-1.6-1.5-3.4-2.6-5.8-2.6
				c-4.3,0-7.5,3.9-7.5,9.7v0.2c0,5.9,3.2,9.8,7.5,9.8c2.6,0,4.3-1.2,6-2.8l2.6,3.2c-2.4,2.5-5.1,3.9-8.9,3.9
				C1684.8,805.2,1679.8,799.7,1679.8,791.4z"/>
			<path class="st9" d="M1703,791.5v-0.4c0-8.1,5-13.9,12.1-13.9s12,5.8,12,13.8v0.4c0,8.1-5,13.9-12.1,13.9S1703,799.5,1703,791.5z
				 M1722.4,791.4v-0.3c0-5.8-3.1-9.8-7.4-9.8s-7.4,3.9-7.4,9.7v0.3c0,5.8,3.2,9.8,7.4,9.8S1722.4,797.3,1722.4,791.4z"/>
			<path class="st9" d="M1731.6,794.5v-16.8h4.5v16.8c0,4.4,2.1,6.7,5.6,6.7c3.4,0,5.6-2.2,5.6-6.5v-17h4.5v16.7c0,7.3-4,11-10.2,11
				C1735.6,805.3,1731.6,801.6,1731.6,794.5z"/>
			<path class="st9" d="M1757.5,777.6h4.2l12,18.2v-18.2h4.4v27.2h-3.8l-12.3-18.7v18.7h-4.4L1757.5,777.6L1757.5,777.6z"/>
			<path class="st9" d="M1789.4,781.8h-7.2v-4.2h18.8v4.2h-7.2v23h-4.5L1789.4,781.8L1789.4,781.8z"/>
			<path class="st9" d="M1802.9,801.3l2.7-3.4c2,1.8,4.3,3.2,7.2,3.2c2.6,0,4.3-1.4,4.3-3.5l0,0c0-1.7-0.9-2.8-5.2-4.4
				c-5.2-1.9-7.9-3.9-7.9-8.2v-0.1c0-4.5,3.6-7.6,8.6-7.6c3.2,0,6.1,1,8.6,3.2l-2.6,3.5c-1.9-1.5-3.9-2.6-6.1-2.6
				c-2.5,0-4,1.4-4,3.1l0,0c0,1.9,1,2.9,5.6,4.7c5.1,1.9,7.4,4,7.4,8v0.1c0,4.8-3.7,7.9-8.8,7.9
				C1809.2,805.2,1805.8,804,1802.9,801.3z"/>
		</g>
	</g>
	<g>
		<path class="st9" d="M1611.6,900.9h18.5v7.4h-18.5V900.9z"/>
		<path class="st9" d="M1662.3,889.2c-2.4-1.9-4.9-3.4-7.6-4v13.1c8.9,3.4,12.4,7.4,12.4,13.9v0.1c0,6.9-5,11.7-12.3,12.6v6.6h-5.3
			V925c-5-0.5-9.9-2.6-13.8-6.3l4.3-5.6c2.9,2.7,6,4.6,9.7,5.2v-13.7c-8.5-3.3-12.2-6.8-12.2-13.6v-0.1c0-6.7,4.9-11.5,12.1-12.4
			v-4.1h5.3v4.2c4.3,0.5,8.1,2.1,11.4,5L1662.3,889.2z M1649.7,896.4V885c-3.2,0.7-4.8,2.8-4.8,5.4v0.1
			C1644.9,893,1646,894.6,1649.7,896.4z M1654.7,906.4v11.9c3.3-0.7,5.1-2.8,5.1-5.6v-0.1C1659.8,910,1658.6,908.2,1654.7,906.4z"/>
		<path class="st9" d="M1680.2,886.1l-7.3,2.2l-1.3-6.6l10.8-3.6h5.4V925h-7.6V886.1z"/>
		<path class="st9" d="M1696.5,902.1v-0.7c0-14.1,6.9-23.7,17.7-23.7c10.6,0,17.5,9.4,17.5,23.6v0.7c0,14.1-6.9,23.7-17.7,23.7
			C1703.3,925.7,1696.5,916.2,1696.5,902.1z M1723.9,902v-0.5c0-10.4-4-16.7-9.8-16.7s-9.7,6.2-9.7,16.6v0.5c0,10.4,4,16.7,9.8,16.7
			C1720,918.6,1723.9,912.4,1723.9,902z"/>
		<path class="st9" d="M1738.2,902.1v-0.7c0-14.1,6.9-23.7,17.7-23.7c10.6,0,17.5,9.4,17.5,23.6v0.7c0,14.1-6.9,23.7-17.7,23.7
			C1745,925.7,1738.2,916.2,1738.2,902.1z M1765.5,902v-0.5c0-10.4-4-16.7-9.8-16.7s-9.7,6.2-9.7,16.6v0.5c0,10.4,4,16.7,9.8,16.7
			C1761.7,918.6,1765.5,912.4,1765.5,902z"/>
		<path class="st9" d="M1779.9,902.1v-0.7c0-14.1,6.9-23.7,17.7-23.7c10.6,0,17.5,9.4,17.5,23.6v0.7c0,14.1-6.9,23.7-17.7,23.7
			C1786.7,925.7,1779.9,916.2,1779.9,902.1z M1807.2,902v-0.5c0-10.4-4-16.7-9.8-16.7s-9.7,6.2-9.7,16.6v0.5c0,10.4,4,16.7,9.8,16.7
			C1803.4,918.6,1807.2,912.4,1807.2,902z"/>
	</g>
</g>
<g>
	<g>
		<path class="st0" d="M1134.2,88.6c0,0-271.7,0-319.7,311.1"/>
		<path class="st8" d="M818.4,389.1l-4.3-0.7c1.4-8.1,3-16.2,4.8-24.1l4.2,0.9C821.4,373,819.8,381.1,818.4,389.1z M825.8,354
			l-4.2-1.1c1.9-7.6,4-15.2,6.2-22.5l4.1,1.3C829.8,338.9,827.7,346.4,825.8,354z M835.1,321.8l-4.1-1.4c3.3-9.8,6.9-19.5,10.8-28.8
			l4,1.7C842,302.5,838.4,312.1,835.1,321.8z M850.7,282.2l-3.9-1.8c3.4-7.5,7.1-14.9,11-22l3.8,2.1
			C857.7,267.5,854.1,274.8,850.7,282.2z M867.2,250.4l-3.7-2.2c4-6.8,8.2-13.4,12.5-19.8l3.6,2.4
			C875.2,237.1,871.1,243.7,867.2,250.4z M885.4,222.4l-3.5-2.5c6.1-8.3,12.6-16.4,19.3-24l3.2,2.9
			C897.8,206.2,891.4,214.2,885.4,222.4z M912.7,189.8l-3.1-3c5.7-5.9,11.6-11.6,17.7-17.1l2.9,3.2
			C924.2,178.3,918.3,184,912.7,189.8z M939,165.5l-2.8-3.3c6-4.9,12.2-9.7,18.6-14.2l2.5,3.5C951,155.9,944.9,160.6,939,165.5z
			 M965.9,145.6l-2.4-3.6c8.5-5.6,17.4-10.9,26.5-15.7l2,3.8C983,134.8,974.2,140.1,965.9,145.6z M1002.9,124.6l-1.9-3.9
			c7.3-3.6,14.9-6.9,22.6-10l1.6,4C1017.6,117.7,1010.1,121,1002.9,124.6z M1036,110.6l-1.5-4.1c7.3-2.6,14.8-5.1,22.3-7.2l1.2,4.2
			C1050.5,105.6,1043.1,108,1036,110.6z M1068,100.7l-1.1-4.2c10-2.6,20.2-4.7,30.2-6.4l0.7,4.3C1087.9,96.1,1077.9,98.2,1068,100.7
			z M1109.9,92.7l-0.5-4.3c15.3-1.9,24.5-2,24.8-2v4.3C1134.1,90.7,1124.9,90.8,1109.9,92.7z"/>
	</g>
	<g>
		<path class="st8" d="M813.7,403l-22.8-45.6c-0.5-1.1-0.1-2.4,1-2.9s2.4-0.1,2.9,1l20.4,40.8l41.1-32.9c0.9-0.7,2.3-0.6,3,0.3
			s0.6,2.3-0.3,3L813.7,403z"/>
	</g>
</g>
<g>
	<path class="st0" d="M1014.4,163.8l-131,103.8c-2.2,1.7-5.3,1.3-7-0.8L841,222.2c-1.7-2.2-1.3-5.3,0.8-7l131-103.8
		c2.2-1.7,5.3-1.3,7,0.8l35.3,44.6C1016.9,158.9,1016.5,162.1,1014.4,163.8z"/>
</g>
<g>
	<path class="st8" d="M867,222.2l6.8-6c2.1-1.8,4.3-2.7,6.5-2.6c1.9,0.1,3.6,1.1,5.2,2.9l0.1,0.1c2.4,2.8,2.5,5.7,1.3,8.3l9.8,3.4
		l-4.3,3.8l-8.6-3.1l-2.4,2.1l5.2,6l-3.8,3.3L867,222.2z M881.3,225.4c1.9-1.7,2-3.7,0.6-5.3l0,0c-1.6-1.8-3.5-1.8-5.4-0.1l-2.7,2.4
		l4.8,5.5L881.3,225.4z"/>
	<path class="st8" d="M883.3,208l11.8-10.2l3,3.4l-8,7l3.4,3.9l7-6.1l3,3.4l-7,6.1l3.5,4.1l8.1-7.1l3,3.4l-11.8,10.3L883.3,208z"/>
	<path class="st8" d="M904.7,195.5l-4.6,4l-3-3.5l12.9-11.3l3,3.5l-4.6,4l12.8,14.7l-3.7,3.3L904.7,195.5z"/>
	<path class="st8" d="M912.5,182.5l6.9-6c2.1-1.8,4.3-2.7,6.5-2.6c1.8,0.1,3.6,1.1,5.2,2.9l0.1,0.1c2.4,2.8,2.5,5.7,1.3,8.3l9.8,3.4
		l-4.3,3.8l-8.6-3.1l-2.4,2.1l5.2,6l-3.8,3.3L912.5,182.5z M926.9,185.7c1.9-1.7,2-3.7,0.6-5.3l0,0c-1.6-1.8-3.5-1.8-5.4-0.1
		l-2.7,2.4l4.8,5.5L926.9,185.7z"/>
	<path class="st8" d="M929,168.2l3.8-3.3l15.9,18.2l-3.8,3.3L929,168.2z"/>
	<path class="st8" d="M936.6,161.6l11.8-10.2l3,3.4l-8,7l3.4,3.9l7-6.1l3,3.4l-7,6.1l3.5,4.1l8.1-7.1l3,3.4l-11.8,10.3L936.6,161.6z
		"/>
	<path class="st8" d="M950,149.9l4.1-3.6l14.8,9.2l-7.1-15.9l4-3.5l9.8,23.7l-3.5,3L950,149.9z"/>
	<path class="st8" d="M968.1,134.2l11.8-10.2l3,3.4l-8,7l3.4,3.9l7-6.1l3,3.4l-7,6.1l3.5,4.1l8.1-7.1l3,3.4L984,152.4L968.1,134.2z"
		/>
</g>
<g class="st4">
	<g>
		<g>
			<path class="st0" d="M1180.9,789.2c0,0,253.5,40.5,332.6-162.8"/>
			<path class="st8" d="M1232.8,794.7c-5.4,0-10.6-0.1-15.3-0.3l0.1-4.3c8.9,0.3,19.2,0.4,30.5,0l0.1,4.3
				C1242.9,794.6,1237.7,794.7,1232.8,794.7z M1258.7,793.9l-0.3-4.3c7.7-0.5,15.5-1.1,23.1-2l0.5,4.3
				C1274.4,792.8,1266.5,793.4,1258.7,793.9z M1205.2,793.8c-15.2-1-24.2-2.4-24.6-2.5l0.7-4.3c0.1,0,9.2,1.4,24.2,2.4L1205.2,793.8
				z M1293.6,790.4l-0.6-4.3c8.1-1.2,16.2-2.6,24-4.2l0.9,4.2C1310,787.8,1301.9,789.3,1293.6,790.4z M1329.9,783.5l-1-4.2
				c10-2.4,19.8-5.3,29.2-8.5l1.4,4.1C1350,778.1,1340.1,781,1329.9,783.5z M1369.4,771.2l-1.5-4c7.3-2.8,14.4-5.8,21.2-9.1l1.9,3.9
				C1384,765.3,1376.7,768.4,1369.4,771.2z M1401.4,756.7l-2-3.8c7.2-3.8,14.2-8,20.9-12.4l2.4,3.6
				C1415.8,748.5,1408.7,752.8,1401.4,756.7z M1432.7,737l-2.6-3.5c8.2-6,16-12.6,23.2-19.5l3,3.1C1449,724.2,1441,730.9,1432.7,737
				z M1463.8,709.7l-3.1-3c5.3-5.5,10.3-11.4,15.1-17.4l3.4,2.7C1474.3,698.1,1469.2,704.1,1463.8,709.7z M1486.1,682.6l-3.5-2.5
				c4.6-6.5,9-13.4,12.9-20.5l3.8,2.1C1495.2,668.9,1490.8,675.9,1486.1,682.6z M1505.1,650.8l-3.9-1.9c3.7-7.4,7.2-15.3,10.3-23.3
				l4,1.6C1512.4,635.3,1508.9,643.2,1505.1,650.8z"/>
		</g>
		<g>
			<path class="st8" d="M1531.7,665.4c-0.9,0-1.7-0.5-2-1.4l-15.3-38.6l-40.8,22.9c-1.1,0.6-2.4,0.2-2.9-0.8c-0.6-1-0.2-2.4,0.8-2.9
				l45.1-25.3l17.1,43.2c0.4,1.1-0.1,2.4-1.2,2.8C1532.2,665.3,1531.9,665.4,1531.7,665.4z"/>
		</g>
	</g>
	<g>
		<path class="st0" d="M1306.9,762.1l132.7-66.5c2.5-1.2,5.5-0.2,6.7,2.2l18.8,37.4c1.2,2.5,0.2,5.5-2.2,6.7l-132.7,66.5
			c-2.5,1.2-5.5,0.2-6.7-2.2l-18.8-37.4C1303.4,766.3,1304.4,763.3,1306.9,762.1z"/>
	</g>
	<g>
		<path class="st8" d="M1333.8,771.2l7-3.9c4.7-2.7,9.2-1.6,11.8,2.9v0.1c2.7,4.9,0.6,9.2-3.8,11.8l-2.5,1.4l3.6,6.4l-4.4,2.5
			L1333.8,771.2z M1346.6,778.2c2.3-1.3,2.7-3.4,1.6-5.4l0,0c-1.2-2.2-3.2-2.7-5.5-1.4l-2.4,1.3l3.8,6.8L1346.6,778.2z"/>
		<path class="st8" d="M1351.4,761.4l13.6-7.6l2.2,3.9l-9.2,5.2l2.6,4.5l8.1-4.6l2.2,3.9l-8.1,4.6l2.6,4.7l9.4-5.3l2.2,3.9
			l-13.7,7.7L1351.4,761.4z"/>
		<path class="st8" d="M1368.5,751.7l7.9-4.4c2.4-1.4,4.8-1.8,6.9-1.2c1.8,0.5,3.4,1.8,4.5,3.9l0.1,0.1c1.8,3.2,1.3,6.1-0.4,8.4
			l8.9,5.3l-5,2.8l-7.8-4.7l-2.7,1.5l3.9,6.9l-4.4,2.5L1368.5,751.7z M1381.9,757.8c2.2-1.3,2.7-3.2,1.7-5.1l0,0
			c-1.2-2.1-3.1-2.4-5.3-1.2l-3.1,1.8l3.6,6.4L1381.9,757.8z"/>
		<path class="st8" d="M1396.1,760.2l0.8-4.7c2.1,0.4,4.5,0.6,6.6-0.6c1.7-0.9,2.2-2.4,1.5-3.6l0,0c-0.6-1.1-1.6-1.4-5.2-0.8
			c-4.6,0.6-7.7,0.5-9.7-3.1v-0.1c-2.1-3.7-0.6-7.8,3.4-10c2.5-1.4,5.4-1.9,8.3-1.2l-0.6,4.7c-1.9-0.3-4-0.4-5.6,0.6
			c-1.5,0.8-2,2.1-1.4,3.2l0,0c0.7,1.2,1.7,1.4,5.8,0.9c4.5-0.6,7.4-0.2,9.2,3.1v0.1c2.2,3.9,0.6,8-3.5,10.3
			C1403,760.5,1399.7,761.1,1396.1,760.2z"/>
		<path class="st8" d="M1404.1,731.7l4.4-2.5l11.8,21.1l-4.4,2.5L1404.1,731.7z"/>
		<path class="st8" d="M1421.6,745.9l0.8-4.7c2.1,0.4,4.5,0.6,6.6-0.6c1.7-0.9,2.2-2.4,1.5-3.6l0,0c-0.6-1.1-1.6-1.4-5.2-0.8
			c-4.6,0.7-7.7,0.5-9.7-3.1V733c-2.1-3.7-0.6-7.8,3.4-10c2.5-1.4,5.4-1.9,8.3-1.2l-0.6,4.7c-1.9-0.3-4-0.4-5.6,0.6
			c-1.5,0.8-2,2.1-1.4,3.2l0,0c0.7,1.2,1.7,1.4,5.8,0.9c4.5-0.6,7.4-0.2,9.2,3.1v0.1c2.2,3.9,0.6,8-3.5,10.3
			C1428.5,746.2,1425.1,746.8,1421.6,745.9z"/>
		<path class="st8" d="M1435.3,719.6l-5.3,3l-2.3-4l14.9-8.4l2.3,4l-5.3,3l9.6,17.1l-4.3,2.4L1435.3,719.6z"/>
	</g>
</g>
<g>
	<path class="st10" d="M722.3,489h4.9l3.5,12.7l9.5-12.7h5.4l-6.6,27.2h-4.7l4.7-19.5l-10,12.9h-0.2l-3.7-12.8l-4.7,19.4h-4.7
		L722.3,489z"/>
	<path class="st10" d="M764.6,504c0,3.7-1.4,7.4-3.8,9.7c-1.8,1.9-4.2,3-6.8,3c-5,0-8.2-3.6-8.2-8.8c0-3.7,1.4-7.4,3.8-9.8
		c1.8-1.9,4.2-3,6.8-3C761.4,495.1,764.6,498.7,764.6,504z M757.4,511.2c1.7-1.7,2.6-4.7,2.6-7.1c0-3.3-1.6-5-3.9-5
		c-1.2,0-2.4,0.6-3.3,1.4c-1.7,1.7-2.6,4.7-2.6,7.1c0,3.3,1.6,5,3.9,5C755.4,512.7,756.5,512.1,757.4,511.2z"/>
	<path class="st10" d="M770.9,495.5h4.6l-0.5,2.4c1.3-1.5,3.1-2.8,5.4-2.8c3.1,0,5.2,2,5.2,5.4c0,1-0.3,2.4-0.6,3.9l-2.8,11.8h-4.7
		l2.9-11.9c0.3-1,0.4-1.9,0.4-2.4c0-1.7-0.9-2.6-2.7-2.6c-2.2,0-3.9,1.9-4.5,4.5l-3,12.4H766L770.9,495.5z"/>
	<path class="st10" d="M792.5,507.5v0.3c0,3.1,1.5,5.1,4.1,5.1c1.8,0,3-0.6,4.4-1.7l2,3.2c-1.8,1.4-3.9,2.3-6.6,2.3
		c-5.1,0-8.2-3.4-8.2-8.8c0-3.7,1.5-7.4,3.9-9.8c1.8-1.8,4-3,6.8-3c4.4,0,7.1,3.2,7.1,7.6c0,1.4-0.2,3-0.9,4.8L792.5,507.5
		L792.5,507.5z M793,504.5h8.6c0.2-0.7,0.2-1.2,0.2-2c0-2-1-3.6-3.2-3.6c-1.3,0-2.5,0.6-3.4,1.5C794.2,501.4,793.4,502.8,793,504.5z
		"/>
	<path class="st10" d="M809.4,495.5h4.7l0.8,15.2l7.5-15.2h4.9l-11.5,21.1c-2.2,4-4.1,5.6-7,5.6c-1.7,0-3.2-0.6-4.3-1.6l2.2-3.2
		c0.7,0.5,1.4,0.9,2.1,0.9c0.9,0,1.6-0.5,2.4-1.9L809.4,495.5z"/>
	<path class="st10" d="M825.6,511.7l3.6-3c2,2.4,4,3.8,6.5,3.8c2.3,0,3.9-1.5,3.9-3.4c0-1.4-0.9-2.6-3.9-4.6
		c-3.6-2.5-5.5-4.6-5.5-7.6c0-2.3,0.9-4.2,2.2-5.5c1.7-1.7,4-2.7,6.7-2.7c3.9,0,6.7,1.8,8.7,4l-3.3,3.2c-1.8-1.9-3.5-3.1-5.6-3.1
		c-2.4,0-3.8,1.6-3.8,3.2c0,1.5,0.9,2.6,4,4.7c3.4,2.3,5.4,4.4,5.4,7.7c0,2.3-0.9,4.2-2.3,5.7c-1.6,1.6-4.2,2.6-6.8,2.6
		C831.3,516.6,827.9,514.7,825.6,511.7z"/>
	<path class="st10" d="M848.3,511.2c0-1,0.2-2.4,0.6-3.9l2.8-11.8h4.6l-2.9,11.8c-0.2,1-0.4,1.9-0.4,2.4c0,1.7,0.9,2.7,2.7,2.7
		c2.2,0,4-1.9,4.5-4.5l3-12.4h4.6l-5.1,20.7h-4.6l0.6-2.4c-1.3,1.5-3.1,2.8-5.4,2.8C850.4,516.6,848.3,514.6,848.3,511.2z"/>
	<path class="st10" d="M873.2,512.8l-0.8,3.4h-4.6l6.8-28.1h4.6l-2.4,9.9c1.6-1.8,3.3-3,5.6-3c3.6,0,6.5,3,6.5,8.3
		c0,4-1.4,7.9-3.9,10.4c-1.8,1.7-3.9,2.7-6.2,2.7C876,516.6,874.2,515,873.2,512.8z M881.4,511.2c1.7-1.7,2.7-4.5,2.7-7.4
		c0-3-1.3-4.8-3.7-4.8c-1.3,0-2.5,0.5-3.5,1.6c-1.7,1.7-2.7,4.6-2.7,7.3c0,2.9,1.6,4.7,3.9,4.7C879.2,512.7,880.5,512.2,881.4,511.2
		z"/>
	<path class="st10" d="M892,512.7c0-0.8,0.2-1.7,0.4-2.5l2.6-10.7h-2.3l1-4h2.3l1.3-5.4h4.6l-1.3,5.4h4.3l-1,4h-4.2l-2.6,10.7
		c-0.1,0.4-0.1,0.8-0.1,1c0,0.8,0.6,1.2,1.6,1.2c0.8,0,1.7-0.2,2.5-0.6l-1,4c-0.9,0.5-2.2,0.7-3.5,0.7
		C893.6,516.5,892,515,892,512.7z"/>
	<path class="st10" d="M908.8,495.5h4.6l-0.9,3.7c1.8-2.6,3.8-4.3,7-4.1l-1.3,4.8h-0.3c-3.5,0-6.1,2-7.3,6.8l-2.3,9.5h-4.6
		L908.8,495.5z"/>
	<path class="st10" d="M917.2,511.1c0-2.1,0.7-4,2.1-5.4c1.4-1.4,3.6-2.2,6-2.2c1.9,0,3.6,0.4,5.1,1l0.1-0.5
		c0.2-0.7,0.3-1.4,0.3-2.1c0-1.6-1-2.7-3.6-2.7c-1.6,0-3.1,0.4-4.6,1.1l-1.1-3.7c1.8-0.8,3.9-1.3,6.4-1.3c4.8,0,7.4,2.1,7.4,5.7
		c0,1.2-0.2,2.4-0.6,3.8l-2.7,11.5h-4.5l0.6-2.5c-1.5,1.8-3.3,2.9-5.6,2.9C919.4,516.6,917.2,514.4,917.2,511.1z M929.4,508.8
		l0.4-1.7c-1-0.4-2.4-0.7-3.7-0.7c-1.4,0-2.4,0.4-3.2,1.2c-0.7,0.7-1.2,1.9-1.2,3.1c0,1.6,1,2.7,2.7,2.7
		C926.9,513.4,928.8,511.2,929.4,508.8z"/>
	<path class="st10" d="M938.1,508.1c0-3.8,1.5-7.5,3.9-9.9c1.9-1.9,4.2-3,7-3c3.6,0,5.5,1.6,6.8,3.7l-3.4,2.7
		c-0.9-1.4-1.9-2.4-3.5-2.4c-1.3,0-2.4,0.6-3.3,1.5c-1.7,1.7-2.8,4.7-2.8,7.3c0,3.1,1.6,4.7,3.7,4.7c1.5,0,2.5-0.7,3.8-1.8l2.3,3
		c-1.6,1.5-3.6,2.7-6.4,2.7C941.4,516.6,938.1,513.4,938.1,508.1z"/>
	<path class="st10" d="M956.8,512.7c0-0.8,0.2-1.7,0.4-2.5l2.6-10.7h-2.3l1-4h2.3l1.3-5.4h4.6l-1.3,5.4h4.3l-1,4h-4.2l-2.6,10.7
		c-0.1,0.4-0.1,0.8-0.1,1c0,0.8,0.6,1.2,1.6,1.2c0.8,0,1.7-0.2,2.5-0.6l-1,4c-0.9,0.5-2.2,0.7-3.5,0.7
		C958.4,516.5,956.8,515,956.8,512.7z"/>
	<path class="st10" d="M973.9,507.5v0.3c0,3.1,1.5,5.1,4.1,5.1c1.8,0,3-0.6,4.4-1.7l2,3.2c-1.8,1.4-3.9,2.3-6.6,2.3
		c-5.1,0-8.2-3.4-8.2-8.8c0-3.7,1.5-7.4,3.9-9.8c1.8-1.8,4-3,6.8-3c4.4,0,7.1,3.2,7.1,7.6c0,1.4-0.2,3-0.9,4.8L973.9,507.5
		L973.9,507.5z M974.3,504.5h8.6c0.2-0.7,0.2-1.2,0.2-2c0-2-1-3.6-3.2-3.6c-1.3,0-2.5,0.6-3.4,1.5
		C975.6,501.4,974.8,502.8,974.3,504.5z"/>
	<path class="st10" d="M1001.9,513.7c-1.6,1.7-3.3,2.9-5.6,2.9c-3.6,0-6.5-3-6.5-8.3c0-3.9,1.4-7.9,3.9-10.4
		c1.8-1.7,3.9-2.7,6.2-2.7c2.8,0,4.6,1.6,5.6,3.7l2.6-10.7h4.6l-6.9,28.1h-4.6L1001.9,513.7z M1001.7,511.1c1.7-1.7,2.7-4.6,2.7-7.3
		c0-2.9-1.6-4.7-3.9-4.7c-1.1,0-2.3,0.5-3.3,1.4c-1.7,1.7-2.7,4.5-2.7,7.4c0,3,1.3,4.8,3.7,4.8
		C999.5,512.7,1000.7,512.1,1001.7,511.1z"/>
	<path class="st10" d="M1037.2,486.6l-0.7,2.8c2.3,0.7,4.2,1.9,5.5,3.3l-3.2,3.2c-1.1-1-2.2-1.8-3.5-2.3l-1.9,7.3
		c3.4,1.8,5.5,4,5.5,7.1c0,5-4,8.4-9.5,8.4h-0.1l-1.1,3.7h-3.2l1.2-4.1c-2.8-0.7-5.2-2.1-6.8-4.2l3.4-3c1.4,1.6,3,2.7,4.7,3.2l2-7.8
		c-3.4-1.8-5.5-3.7-5.5-7.2c0-4.6,3.7-8,9.3-8h0.2l0.7-2.3h3V486.6z M1030.7,499.4l1.7-6.5c-2.4,0.1-3.8,1.7-3.8,3.4
		C1028.6,497.4,1029,498.3,1030.7,499.4z M1032,505.5l-1.8,6.8c2.3-0.2,3.8-1.9,3.8-3.9C1034,507.3,1033.5,506.5,1032,505.5z"/>
	<path class="st10" d="M1049.3,494l-4.4,1.2V491l7-2.2h3.3l-6.7,27.4h-4.7L1049.3,494z"/>
	<path class="st10" d="M1078.5,498.8c0,4.9-1.8,11.2-5.3,14.7c-2,2-4.5,3.2-7.5,3.2c-5.3,0-8.7-3.8-8.7-10.2c0-5,1.8-11.2,5.3-14.7
		c2-2,4.5-3.2,7.4-3.2C1075.1,488.6,1078.5,492.4,1078.5,498.8z M1069.6,510.8c2.6-2.6,4.1-8.1,4.1-12c0-4-1.6-6-4.2-6
		c-1.3,0-2.5,0.6-3.5,1.6c-2.6,2.6-4.1,8.1-4.1,12c0,4,1.6,6,4.2,6C1067.4,512.4,1068.6,511.8,1069.6,510.8z"/>
	<path class="st10" d="M1102.7,498.8c0,4.9-1.8,11.2-5.3,14.7c-2,2-4.5,3.2-7.5,3.2c-5.3,0-8.7-3.8-8.7-10.2c0-5,1.8-11.2,5.3-14.7
		c2-2,4.5-3.2,7.4-3.2C1099.2,488.6,1102.7,492.4,1102.7,498.8z M1093.8,510.8c2.6-2.6,4.1-8.1,4.1-12c0-4-1.6-6-4.2-6
		c-1.3,0-2.5,0.6-3.5,1.6c-2.6,2.6-4.1,8.1-4.1,12c0,4,1.6,6,4.2,6C1091.5,512.4,1092.7,511.8,1093.8,510.8z"/>
	<path class="st10" d="M1126.8,498.8c0,4.9-1.8,11.2-5.3,14.7c-2,2-4.5,3.2-7.5,3.2c-5.3,0-8.7-3.8-8.7-10.2c0-5,1.8-11.2,5.3-14.7
		c2-2,4.5-3.2,7.4-3.2C1123.4,488.6,1126.8,492.4,1126.8,498.8z M1117.9,510.8c2.6-2.6,4.1-8.1,4.1-12c0-4-1.6-6-4.2-6
		c-1.3,0-2.5,0.6-3.5,1.6c-2.6,2.6-4.1,8.1-4.1,12c0,4,1.6,6,4.2,6C1115.6,512.4,1116.9,511.8,1117.9,510.8z"/>
</g>
<g class="st11">
	<polygon class="st8" points="1183.9,661.1 652.4,656.7 665.4,583.3 1201.1,583.3 	"/>
</g>
<g class="st6">
	<path class="st8" d="M754.7,604.1h4.9l11.2,30.6h-5.3l-2.5-7.2h-11.8l-2.5,7.2h-5.1L754.7,604.1z M761.4,623l-4.4-12.2l-4.4,12.2
		H761.4z"/>
	<path class="st8" d="M772.5,619.7v-0.3c0-9,5.8-15.5,14-15.5c4.1,0,7,1.2,9.7,3.4l-3,4c-1.7-1.6-3.7-2.7-6.7-2.7
		c-5,0-8.7,4.5-8.7,10.8v0.3c0,6.9,3.7,11,8.9,11c2.1,0,4-0.7,5.4-1.6v-6.7h-6.4V618h11.2v13.7c-2.6,2-6.1,3.7-10.4,3.7
		C778.1,635.1,772.5,629,772.5,619.7z"/>
	<path class="st8" d="M801.6,619.7v-0.3c0-9,5.8-15.5,14-15.5c4.1,0,7,1.2,9.7,3.4l-3,4c-1.7-1.6-3.7-2.7-6.7-2.7
		c-5,0-8.7,4.5-8.7,10.8v0.3c0,6.9,3.7,11,8.9,11c2.1,0,4-0.7,5.4-1.6v-6.7h-6.4V618H826v13.7c-2.6,2-6.1,3.7-10.4,3.7
		C807.3,635.1,801.6,629,801.6,619.7z"/>
	<path class="st8" d="M831.9,604.2h11c3.5,0,6.3,1,8.1,2.9c1.6,1.6,2.5,3.9,2.5,6.7v0.2c0,4.7-2.6,7.6-6.3,8.9l7.2,11.8h-5.8
		l-6.5-10.8c-0.1,0-0.2,0-0.3,0h-4.9v10.7h-5V604.2z M842.4,619.4c3.9,0,6.1-2.1,6.1-5.3V614c0-3.4-2.2-5.2-6-5.2H837v10.6H842.4z"
		/>
	<path class="st8" d="M859,604.2h19.2v4.6H864v8.3h12.6v4.6H864v8.5h14.4v4.6H859V604.2z"/>
	<path class="st8" d="M882.5,619.7v-0.3c0-9,5.8-15.5,14-15.5c4.1,0,7,1.2,9.7,3.4l-3,4c-1.7-1.6-3.7-2.7-6.7-2.7
		c-5,0-8.7,4.5-8.7,10.8v0.3c0,6.9,3.7,11,8.9,11c2.1,0,4-0.7,5.4-1.6v-6.7h-6.4V618h11.2v13.7c-2.6,2-6.1,3.7-10.4,3.7
		C888.1,635.1,882.5,629,882.5,619.7z"/>
	<path class="st8" d="M921.7,604.1h4.9l11.2,30.6h-5.3l-2.5-7.2h-11.8l-2.5,7.2h-5.1L921.7,604.1z M928.4,623l-4.4-12.2l-4.4,12.2
		H928.4z"/>
	<path class="st8" d="M945,608.9h-8v-4.7h21.1v4.7h-8v25.8H945V608.9z"/>
	<path class="st8" d="M962.8,604.2H982v4.6h-14.2v8.3h12.6v4.6h-12.6v8.5h14.4v4.6h-19.4V604.2z"/>
	<path class="st8" d="M998.7,604.2h11c3.5,0,6.3,1,8.1,2.9c1.6,1.6,2.5,3.9,2.5,6.7v0.2c0,4.7-2.6,7.6-6.3,8.9l7.2,11.8h-5.8
		l-6.5-10.8c-0.1,0-0.2,0-0.3,0h-4.9v10.7h-5V604.2z M1009.2,619.4c3.9,0,6.1-2.1,6.1-5.3V614c0-3.4-2.2-5.2-6-5.2h-5.5v10.6H1009.2
		z"/>
	<path class="st8" d="M1024.7,619.7v-0.4c0-9.1,5.6-15.5,13.5-15.5s13.4,6.4,13.4,15.4v0.4c0,9.1-5.6,15.5-13.5,15.5
		C1030.3,635.2,1024.7,628.7,1024.7,619.7z M1046.5,619.6v-0.3c0-6.5-3.5-10.9-8.3-10.9s-8.2,4.3-8.2,10.9v0.3
		c0,6.5,3.5,10.9,8.3,10.9C1043,630.5,1046.5,626.2,1046.5,619.6z"/>
	<path class="st8" d="M1056.1,619.7v-0.4c0-9.1,5.6-15.5,13.5-15.5s13.4,6.4,13.4,15.4v0.4c0,9.1-5.6,15.5-13.5,15.5
		C1061.6,635.2,1056.1,628.7,1056.1,619.7z M1077.8,619.6v-0.3c0-6.5-3.5-10.9-8.3-10.9s-8.2,4.3-8.2,10.9v0.3
		c0,6.5,3.5,10.9,8.3,10.9C1074.4,630.5,1077.8,626.2,1077.8,619.6z"/>
	<path class="st8" d="M1093.2,608.9h-8v-4.7h21.1v4.7h-8v25.8h-5L1093.2,608.9L1093.2,608.9z"/>
</g>
<g class="st4">
	<g>
		<g>
			<path class="st7" d="M846.6,943.4h5.7l10.3,28.9h-6.2l-2.1-6.2h-9.9l-2.1,6.2h-6L846.6,943.4z M852.5,960.8l-3.1-9.4l-3.2,9.4
				H852.5z"/>
			<path class="st7" d="M864.1,961.6v-0.5c0-6.5,4.2-11.3,10.2-11.3c3.2,0,5.3,1.1,7.2,3l-3.2,4.2c-1.1-1.1-2.2-2-3.9-2
				c-2.7,0-4.5,2.5-4.5,6.1v0.2c0,3.7,1.7,6.2,4.6,6.2c1.7,0,2.8-0.8,4-2l3.1,3.9c-1.8,2-4,3.4-7.5,3.4
				C868.2,972.8,864.1,968.1,864.1,961.6z"/>
			<path class="st7" d="M883.4,961.6v-0.5c0-6.5,4.2-11.3,10.2-11.3c3.2,0,5.3,1.1,7.2,3l-3.2,4.2c-1.1-1.1-2.2-2-3.9-2
				c-2.7,0-4.5,2.5-4.5,6.1v0.2c0,3.7,1.7,6.2,4.6,6.2c1.7,0,2.8-0.8,4-2l3.1,3.9c-1.8,2-4,3.4-7.5,3.4
				C887.5,972.8,883.4,968.1,883.4,961.6z"/>
			<path class="st7" d="M902.7,961.6v-0.5c0-6.5,4.4-11.3,10.4-11.3s10.3,4.6,10.3,11.2v0.5c0,6.5-4.4,11.3-10.4,11.3
				C907.1,972.8,902.7,968.1,902.7,961.6z M917.6,961.5v-0.3c0-3.6-1.8-6.3-4.6-6.3c-2.9,0-4.6,2.7-4.6,6.2v0.3
				c0,3.5,1.9,6.3,4.6,6.3C916,967.7,917.6,965.1,917.6,961.5z"/>
			<path class="st7" d="M927.1,965.3v-15h5.8v13.3c0,2.6,1.2,3.9,3.1,3.9c2,0,3.2-1.3,3.2-3.9v-13.3h5.8v22h-5.8v-3
				c-1.2,1.8-2.9,3.4-5.6,3.4C929.5,972.7,927.1,969.8,927.1,965.3z"/>
			<path class="st7" d="M949.8,950.3h5.8v3c1.3-1.8,2.9-3.4,5.7-3.4c4.1,0,6.5,2.9,6.5,7.4v15H962V959c0-2.6-1.1-3.9-3.1-3.9
				c-1.9,0-3.2,1.3-3.2,3.9v13.3h-5.8v-22H949.8z"/>
			<path class="st7" d="M973.2,966.8v-11.6H971v-4.9h2.2v-5.6h5.8v5.6h4.4v4.9H979v10.4c0,1.3,0.6,1.9,1.8,1.9
				c0.9,0,1.8-0.2,2.5-0.6v4.6c-1.1,0.7-2.5,1.2-4.3,1.2C975.6,972.7,973.2,971.3,973.2,966.8z"/>
			<path class="st7" d="M987.7,943.5h9.6c6.4,0,10.5,3.7,10.5,9.9v0.1c0,6.6-4.7,9.9-10.8,10.1h-3.4v8.7h-6v-28.8H987.7z M997,958.2
				c3.1,0,4.8-1.9,4.8-4.6l0,0c0-3-1.7-4.6-4.9-4.6h-3.2v9.3h3.3V958.2z"/>
			<path class="st7" d="M1011.2,950.3h5.8v3.9c1.1-2.7,2.8-4.4,6-4.3v6.3h-0.2c-3.6,0-5.7,2.2-5.7,6.8v9.2h-5.8L1011.2,950.3
				L1011.2,950.3z"/>
			<path class="st7" d="M1024.8,961.6v-0.5c0-6.5,4.4-11.3,10.4-11.3s10.3,4.6,10.3,11.2v0.5c0,6.5-4.4,11.3-10.4,11.3
				C1029.2,972.8,1024.8,968.1,1024.8,961.6z M1039.7,961.5v-0.3c0-3.6-1.8-6.3-4.6-6.3c-2.9,0-4.6,2.7-4.6,6.2v0.3
				c0,3.5,1.8,6.3,4.6,6.3C1038,967.7,1039.7,965.1,1039.7,961.5z"/>
			<path class="st7" d="M1046.5,978.4v-4.6c0.4,0,0.7,0.1,1,0.1c1.2,0,2.1-0.7,2.1-2.3v-21.3h5.8v21.8c0,4.5-2.3,6.5-6.5,6.5
				C1047.8,978.6,1047.3,978.5,1046.5,978.4z M1049.5,942.6h6.1v5.3h-6.1V942.6z"/>
			<path class="st7" d="M1059.4,961.5v-0.4c0-6.5,4.1-11.3,9.6-11.3c6.3,0,9.4,5.1,9.4,11.7c0,0.3,0,1,0,1.9h-13.1
				c0.5,2.9,2.3,4.4,4.8,4.4c1.8,0,3.2-0.8,4.6-2.2l3,3.5c-2,2.2-4.6,3.5-7.8,3.5C1063.9,972.8,1059.4,968.4,1059.4,961.5z
				 M1072.8,959.6c-0.2-3-1.6-4.9-3.7-4.9s-3.5,1.8-3.9,4.9H1072.8z"/>
			<path class="st7" d="M1081.4,961.6v-0.5c0-6.5,4.2-11.3,10.2-11.3c3.2,0,5.3,1.1,7.2,3l-3.2,4.2c-1.1-1.1-2.2-2-3.9-2
				c-2.7,0-4.5,2.5-4.5,6.1v0.2c0,3.7,1.7,6.2,4.6,6.2c1.7,0,2.8-0.8,4-2l3.1,3.9c-1.8,2-4,3.4-7.5,3.4
				C1085.5,972.8,1081.4,968.1,1081.4,961.6z"/>
			<path class="st7" d="M1103,966.8v-11.6h-2.2v-4.9h2.2v-5.6h5.8v5.6h4.4v4.9h-4.4v10.4c0,1.3,0.6,1.9,1.8,1.9
				c0.9,0,1.8-0.2,2.5-0.6v4.6c-1.1,0.7-2.5,1.2-4.3,1.2C1105.4,972.7,1103,971.3,1103,966.8z"/>
			<path class="st7" d="M1115.6,961.6v-0.5c0-6.5,4.4-11.3,10.4-11.3s10.3,4.6,10.3,11.2v0.5c0,6.5-4.4,11.3-10.4,11.3
				C1120,972.8,1115.6,968.1,1115.6,961.6z M1130.5,961.5v-0.3c0-3.6-1.8-6.3-4.6-6.3c-2.9,0-4.6,2.7-4.6,6.2v0.3
				c0,3.5,1.8,6.3,4.6,6.3C1128.8,967.7,1130.5,965.1,1130.5,961.5z"/>
			<path class="st7" d="M1140.1,950.3h5.8v3.9c1.1-2.7,2.8-4.4,6-4.3v6.3h-0.2c-3.6,0-5.7,2.2-5.7,6.8v9.2h-5.8v-21.9H1140.1z"/>
		</g>
		<g>
			<path class="st3" d="M804.3,928.3c-5.2-5.1-10-10.3-14.3-15.4l3.3-2.8c4.2,5,8.9,10.1,14,15.1L804.3,928.3z M782.8,903.6
				c-4.9-6.8-9-13.6-12.1-20.3l3.9-1.8c3,6.4,7,13,11.7,19.6L782.8,903.6z M766.6,873.5c-2.9-8.4-4.4-16.6-4.4-24.6
				c0-2.2,0.1-4.3,0.3-6.4l4.3,0.4c-0.2,2-0.3,4-0.3,6c0,7.5,1.4,15.3,4.1,23.2L766.6,873.5z M769.3,831.4l-4.1-1.3
				c4.1-12.8,12.1-22.1,14.7-22.1v2.2l0.9,1.9C779.9,812.6,773.2,819.2,769.3,831.4z"/>
		</g>
		<g>
			<path class="st3" d="M1194.7,959.2v-4.3c0.1,0,9.3,0,24.5-0.8l0.2,4.3C1204,959.2,1194.8,959.2,1194.7,959.2z M1231.6,957.6
				l-0.3-4.3c10.1-0.7,20.3-1.6,30.5-2.7l0.5,4.3C1252,956,1241.7,956.9,1231.6,957.6z M1272.6,953.7l-0.5-4.3
				c7.7-0.9,15.4-2,23-3.1l0.6,4.3C1288.2,951.7,1280.4,952.7,1272.6,953.7z M1307.3,948.7l-0.7-4.3c8.1-1.3,16.2-2.8,24-4.4
				l0.8,4.2C1323.6,945.9,1315.5,947.4,1307.3,948.7z M1343.5,941.8l-0.9-4.2c10.1-2.2,20.1-4.6,29.7-7.2l1.1,4.2
				C1363.8,937.2,1353.7,939.6,1343.5,941.8z M1383.5,931.8l-1.2-4.2c7.5-2.2,15-4.5,22.1-6.9l1.4,4.1
				C1398.6,927.2,1391.1,929.6,1383.5,931.8z M1416.8,920.9l-1.5-4.1c7.8-2.8,15.4-5.9,22.7-9l1.7,4
				C1432.4,915,1424.7,918,1416.8,920.9z M1451,906.8l-1.8-3.9c2.7-1.3,5.4-2.6,8.1-3.9l1.9,3.9
				C1456.5,904.2,1453.7,905.5,1451,906.8z"/>
		</g>
	</g>
	<g>
		<path class="st3" d="M1445.9,935.8c-0.3,0-0.6-0.1-0.9-0.2c-1.1-0.5-1.5-1.8-1-2.9l15.7-32.5l-30.4-19.5c-1-0.6-1.3-2-0.6-3
			c0.6-1,2-1.3,3-0.6l33.6,21.6l-17.3,35.9C1447.5,935.3,1446.7,935.8,1445.9,935.8z"/>
	</g>
</g>
<g>
	<g>
		<g>
			<path class="st12" d="M496.2,376.3c-3.3,0-6.5,0-9.8-0.1l0.1-4.3c7.8,0.1,15.5,0.1,23.2-0.1l0.1,4.3
				C505.2,376.3,500.7,376.3,496.2,376.3z M475.9,376c-10.5-0.3-20.8-1-30.7-1.9l0.4-4.3c9.8,0.9,20.1,1.5,30.4,1.9L475.9,376z
				 M521.4,375.9l-0.2-4.3c7.8-0.3,16.1-0.7,24.4-1.2l0.3,4.3C537.5,375.2,529.2,375.6,521.4,375.9z M558.1,373.7l-0.3-4.3
				c9.6-0.8,19.6-1.7,30.4-2.8l0.4,4.3C577.8,372.1,567.8,373,558.1,373.7z M433,372.9c-8.3-1-16.5-2.2-24.4-3.5l0.7-4.3
				c7.8,1.4,15.9,2.5,24.1,3.5L433,372.9z M599.1,369.8l-0.5-4.3c7.9-0.9,15.5-1.7,22.7-2.6l0.7,2.1l0.2,2.1
				C614.6,368.1,607,369,599.1,369.8z M397.1,367.1c-7.8-1.6-15.4-3.4-22.8-5.4l1.1-4.2c7.3,2,14.8,3.8,22.5,5.4L397.1,367.1z
				 M633.8,365.9l-0.5-4.3c7.6-0.9,16.5-1.9,24.4-2.5l0.4,4.3C650.2,364,641.4,365,633.8,365.9z M670.2,362.5l-0.2-4.3
				c1.8-0.1,3.4-0.1,5-0.1l0.1,4.3C673.6,362.4,671.9,362.5,670.2,362.5z M364.2,358.8c-10-3.1-19.7-6.6-29-10.5l1.7-4
				c9.1,3.8,18.7,7.3,28.6,10.3L364.2,358.8z M324,343.3c-7.5-3.5-14.8-7.4-21.8-11.6l2.2-3.7c6.9,4.1,14.1,7.9,21.5,11.4L324,343.3
				z M292.2,325.5c-6.5-4.3-12.9-8.9-19-13.8l2.7-3.4c6,4.8,12.2,9.3,18.7,13.5L292.2,325.5z M265.1,305c-7.7-6.7-15.1-14-21.9-21.7
				l3.2-2.9c6.7,7.6,14,14.7,21.5,21.3L265.1,305z M235.2,273.9c-5.1-6.3-10-13-14.5-19.9l3.6-2.4c4.5,6.8,9.3,13.4,14.3,19.6
				L235.2,273.9z"/>
		</g>
		<g>
			<path class="st12" d="M650.3,393.2c-0.5,0-1-0.2-1.4-0.5c-0.9-0.8-1-2.1-0.2-3l23-26.8l-23-26.6c-0.8-0.9-0.7-2.3,0.2-3
				c0.9-0.8,2.3-0.7,3,0.2l24.2,28c0.7,0.8,0.7,2,0,2.8l-24.2,28.2C651.5,392.9,650.9,393.2,650.3,393.2z"/>
		</g>
	</g>
	<g>
		<g>
			<path class="st13" d="M507.7,436.4H304.6c-32.7,0-59.5-26.8-59.5-59.5l0,0c0-32.7,26.8-59.5,59.5-59.5h203.1
				c32.7,0,59.5,26.8,59.5,59.5l0,0C567.2,409.6,540.4,436.4,507.7,436.4z"/>
		</g>
		<g>
			<path class="st0" d="M501.9,424.3H305.5c-26.6,0-48.3-21.7-48.3-48.3l0,0c0-26.6,21.7-48.3,48.3-48.3h196.4
				c26.6,0,48.3,21.7,48.3,48.3l0,0C550.2,402.5,528.5,424.3,501.9,424.3z"/>
		</g>
		<g>
			<path class="st12" d="M275.9,383.4l4.2-3.6c2,2.2,3.7,3.4,5.6,3.4c1.6,0,2.7-1,2.7-2.3c0-1.1-0.7-2-3.3-3.9
				c-3-2.3-4.9-4.4-4.9-7.3c0-2.3,0.9-4.3,2.2-5.6c1.6-1.6,3.9-2.6,6.5-2.6c3.9,0,6.6,1.7,8.5,3.9l-3.9,3.9c-1.7-1.8-3-2.8-4.9-2.8
				c-1.7,0-2.6,1.1-2.6,2.3s0.6,1.9,3.3,3.9c2.9,2.1,5,4.2,5,7.4c0,2.4-0.9,4.3-2.3,5.7c-1.6,1.6-4.1,2.5-6.6,2.5
				C281.5,388.1,278.2,386.4,275.9,383.4z"/>
			<path class="st12" d="M312.2,387.8h-5.5l0.4-1.9c-1.2,1.1-2.7,2.2-4.7,2.2c-2.9,0-4.8-1.9-4.8-5.1c0-1,0.3-2.5,0.7-4l2.7-11.2
				h5.6l-2.7,11.3c-0.2,0.9-0.3,1.7-0.3,2.2c0,1.3,0.6,1.9,1.9,1.9c1.7,0,2.8-1.4,3.2-3.4l2.9-12h5.5L312.2,387.8z"/>
			<path class="st12" d="M322.4,385.1l-0.6,2.6h-5.5l6.5-26.8h5.6l-2.1,8.7c1.5-1.5,2.9-2.3,4.8-2.3c3.3,0,6.1,2.8,6.1,8.1
				c0,3.8-1.4,7.6-3.7,10c-1.7,1.7-3.8,2.6-6,2.6C325,388.1,323.4,386.9,322.4,385.1z M329,382.3c1.4-1.4,2.3-3.8,2.3-6.4
				c0-2.4-1-3.9-3-3.9c-0.9,0-1.9,0.4-2.6,1.1c-1.5,1.5-2.3,4.1-2.3,6.4c0,2.4,1.2,3.9,3,3.9C327.3,383.4,328.3,383.1,329,382.3z"/>
			<path class="st12" d="M339.5,384.2c0-0.8,0.2-1.6,0.4-2.6l2.2-9.1H340l1.2-4.8h2.1l1.2-4.9h5.6l-1.2,4.9h3.5l-1.2,4.8h-3.5
				l-2.2,9c-0.1,0.3-0.1,0.6-0.1,0.8c0,0.5,0.4,0.9,1.1,0.9c0.8,0,1.7-0.2,2.3-0.6l-1.2,4.7c-0.9,0.5-2.3,0.8-3.7,0.8
				C341,388,339.5,386.5,339.5,384.2z"/>
			<path class="st12" d="M355.8,367.7h5.5l-0.8,3.2c1.5-2.3,3.3-3.7,6.1-3.5l-1.6,5.8h-0.3c-3.2,0-5.2,1.5-6.2,5.8l-2.1,8.8h-5.5
				L355.8,367.7z"/>
			<path class="st12" d="M364.2,382.8c0-2,0.7-3.9,2-5.2c1.4-1.4,3.4-2.1,5.8-2.1c1.7,0,3,0.3,4.3,0.9l0.1-0.3
				c0.1-0.6,0.3-1.2,0.3-1.8c0-1.1-0.6-2-2.9-2c-1.4,0-2.9,0.4-4.3,1.1l-1.2-4.4c1.8-0.8,4-1.4,6.5-1.4c4.8,0,7.3,2,7.3,5.5
				c0,1.3-0.3,2.6-0.6,3.9l-2.6,10.9h-5.4l0.5-2.1c-1.3,1.5-2.9,2.4-4.8,2.4C366.1,388.1,364.2,385.8,364.2,382.8z M375.3,380.7
				l0.3-1.3c-0.7-0.3-1.7-0.6-2.5-0.6c-1,0-1.9,0.3-2.4,0.9c-0.6,0.6-1,1.6-1,2.6c0,1.2,0.7,2.1,2,2.1
				C373.6,384.4,374.9,382.5,375.3,380.7z"/>
			<path class="st12" d="M384.5,379.7c0-3.6,1.4-7.1,3.6-9.4c1.9-1.8,4-2.9,6.8-2.9c3.6,0,5.4,1.4,6.8,3.6l-4,3.2
				c-0.9-1.3-1.7-2.1-2.9-2.1c-1,0-1.8,0.4-2.5,1.2c-1.4,1.4-2.4,4.2-2.4,6.4c0,2.5,1.1,3.8,2.7,3.8c1.2,0,2-0.6,3.2-1.5l2.7,3.5
				c-1.6,1.5-3.4,2.7-6.2,2.7C387.5,388.1,384.5,384.9,384.5,379.7z"/>
			<path class="st12" d="M402,384.2c0-0.8,0.2-1.6,0.4-2.6l2.2-9.1h-2.2l1.2-4.8h2.1l1.2-4.9h5.6l-1.2,4.9h3.5l-1.2,4.8h-3.5l-2.2,9
				c-0.1,0.3-0.1,0.6-0.1,0.8c0,0.5,0.4,0.9,1.1,0.9c0.8,0,1.7-0.2,2.3-0.6l-1.2,4.7c-0.9,0.5-2.3,0.8-3.7,0.8
				C403.5,388,402,386.5,402,384.2z"/>
			<path class="st12" d="M439.4,359.5l-0.7,2.8c2,0.6,3.8,1.8,5,3.1l-3.8,3.7c-0.8-0.8-1.7-1.4-2.7-1.9l-1.5,5.5
				c3,1.6,5.1,3.8,5.1,6.8c0,5-4,8.3-9.2,8.3l-1,3.6h-3.7l1.2-4c-2.6-0.7-4.8-2-6.3-4l4-3.5c1.2,1.4,2.4,2.3,3.7,2.7l1.6-5.9
				c-2.9-1.6-5.1-3.4-5.1-7c0-4.7,3.6-8,9.1-8l0.7-2.2H439.4z M432.7,371l1.2-4.4c-1.5,0.2-2.3,1.3-2.3,2.4
				C431.6,369.7,431.8,370.3,432.7,371z M434,378.4l-1.3,4.6c1.4-0.4,2.3-1.4,2.3-2.7C435,379.5,434.8,379,434,378.4z"/>
			<path class="st12" d="M453.4,382.3h-10.1l-0.4-4.3l15.3-16.4h5.5l-3.9,16.1h2.8l-1.2,4.6h-2.7l-1.3,5.5h-5.3L453.4,382.3z
				 M454.5,377.7l2.2-8.8l-7.9,8.8H454.5z"/>
			<path class="st12" d="M464.5,381c0-4.5,2.9-6.4,5.6-7.3c-1.7-1.2-2.5-2.7-2.5-4.8c0-3.6,2.9-7.6,8.6-7.6c4.6,0,7.8,2.7,7.8,6.7
				c0,3.8-2.1,5.8-4.9,6.8c2.1,1.2,3.3,2.7,3.3,5.3c0,4-3.4,8-9.5,8C468.5,388.1,464.5,385.4,464.5,381z M477,380
				c0-2-1.3-3.2-3.4-3.2c-2,0-3.7,1.6-3.7,3.6c0,1.9,1.4,3.2,3.3,3.2C475.3,383.6,476.9,382,477,380z M478.8,368.8
				c0-1.5-0.8-2.8-2.9-2.8c-1.8,0-3.2,1.6-3.2,3.4c0,1.5,0.9,2.9,2.8,2.9C477.3,372.3,478.8,370.7,478.8,368.8z"/>
			<path class="st12" d="M507.5,371.5c0,4.5-1.6,10.3-4.9,13.6c-2,2-4.4,3.1-7.5,3.1c-5.1,0-8.7-3.7-8.7-10.1
				c0-4.5,1.6-10.4,4.9-13.6c1.9-2,4.4-3.1,7.4-3.1C503.9,361.4,507.5,365.1,507.5,371.5z M498.3,381.9c2.2-2.2,3.5-7.2,3.5-10.4
				c0-3.6-1.4-5-3.4-5c-1,0-1.9,0.4-2.7,1.2c-2.2,2.2-3.5,7.2-3.5,10.4c0,3.6,1.4,5,3.4,5C496.5,383.1,497.5,382.7,498.3,381.9z"/>
			<path class="st12" d="M530.8,371.5c0,4.5-1.6,10.3-4.9,13.6c-2,2-4.4,3.1-7.5,3.1c-5.1,0-8.7-3.7-8.7-10.1
				c0-4.5,1.6-10.4,4.9-13.6c1.9-2,4.4-3.1,7.4-3.1C527.2,361.4,530.8,365.1,530.8,371.5z M521.5,381.9c2.2-2.2,3.5-7.2,3.5-10.4
				c0-3.6-1.4-5-3.4-5c-1,0-1.9,0.4-2.7,1.2c-2.2,2.2-3.5,7.2-3.5,10.4c0,3.6,1.4,5,3.4,5C519.8,383.1,520.7,382.7,521.5,381.9z"/>
		</g>
	</g>
</g>
<g>
	<path class="st10" d="M1023.6,718h4.7l-5.6,22.9h11.5l-1.1,4.3H1017L1023.6,718z"/>
	<path class="st10" d="M1042.1,724.5h4.6l-5.1,20.7h-4.6L1042.1,724.5z M1043.8,717.1h4.9l-1.2,4.5h-4.9L1043.8,717.1z"/>
	<path class="st10" d="M1051.8,724.5h4.6l-0.5,2.4c1.4-1.6,3-2.8,5.2-2.8c2.4,0,4.1,1.4,4.7,3.7c1.7-2.3,3.9-3.7,6.6-3.7
		c3.2,0,5.3,2.1,5.3,5.2c0,1.2-0.3,2.6-0.6,4.1l-2.9,11.8h-4.6l2.9-11.9c0.2-1,0.4-1.9,0.4-2.4c0-1.7-0.9-2.6-2.6-2.6
		c-2,0-3.8,1.8-4.4,4.4l-3.1,12.6h-4.6l2.9-11.9c0.2-1,0.4-1.9,0.4-2.4c0-1.7-1-2.6-2.6-2.6c-2.1,0-3.8,1.9-4.4,4.5l-3,12.4h-4.6
		L1051.8,724.5z"/>
	<path class="st10" d="M1084.2,724.5h4.6l-5.1,20.7h-4.6L1084.2,724.5z M1085.9,717.1h4.9l-1.2,4.5h-4.9L1085.9,717.1z"/>
	<path class="st10" d="M1090.8,741.6c0-0.8,0.2-1.7,0.4-2.5l2.6-10.7h-2.3l1-4h2.3l1.3-5.4h4.6l-1.3,5.4h4.3l-1,4h-4.2l-2.6,10.7
		c-0.1,0.4-0.1,0.8-0.1,1c0,0.8,0.6,1.2,1.6,1.2c0.8,0,1.7-0.2,2.5-0.6l-1,4c-0.9,0.5-2.2,0.7-3.5,0.7
		C1092.5,745.5,1090.8,744,1090.8,741.6z"/>
	<path class="st10" d="M1109.7,718h4.7l-2.8,11.4h10.1l2.7-11.4h4.7l-6.6,27.2h-4.7l2.8-11.5h-10.1l-2.8,11.5h-4.7L1109.7,718z"/>
	<path class="st10" d="M1133.2,724.5h4.6l-5.1,20.7h-4.6L1133.2,724.5z M1134.9,717.1h4.9l-1.2,4.5h-4.9L1134.9,717.1z"/>
	<path class="st10" d="M1139.8,741.6c0-0.8,0.2-1.7,0.4-2.5l2.6-10.7h-2.3l1-4h2.3l1.3-5.4h4.6l-1.3,5.4h4.3l-1,4h-4.2l-2.6,10.7
		c-0.1,0.4-0.1,0.8-0.1,1c0,0.8,0.6,1.2,1.6,1.2c0.8,0,1.7-0.2,2.5-0.6l-1,4c-0.9,0.5-2.2,0.7-3.5,0.7
		C1141.5,745.5,1139.8,744,1139.8,741.6z"/>
</g>
</svg>
