<?xml version="1.0" encoding="utf-8"?>
<!-- Generator: Adobe Illustrator 23.0.3, SVG Export Plug-In . SVG Version: 6.00 Build 0)  -->
<svg version="1.1" id="_x30_1" xmlns="http://www.w3.org/2000/svg" xmlns:xlink="http://www.w3.org/1999/xlink" x="0px" y="0px"
	 viewBox="0 0 2048 925" style="enable-background:new 0 0 2048 925;" xml:space="preserve">
<style type="text/css">
	.st0{fill:#FFFFFF;}
	.st1{opacity:0.5;}
	.st2{fill:#DEE1E0;}
	.st3{fill:#197593;}
	.st4{opacity:0.25;}
	.st5{fill:#CAE1E8;}
	.st6{opacity:0.75;}
	.st7{fill:#004966;}
	.st8{fill:#D6902D;}
	.st9{fill:#94631E;}
	.st10{opacity:0.1;}
	.st11{fill:#0A9181;}
	.st12{fill:#E6F4F2;}
</style>
<g>
	<rect class="st0" width="2048" height="925"/>
</g>
<g>
	<g class="st1">
		<path class="st2" d="M1120.1,427l36.6,162.3c0,0,7.5,20.1,31.2,21c24,0.8,746.8-0.8,746.8-0.8s58.9-1,45.6-17.3
			c-13.1-16.1-124.9-199-124.9-199s-12.5-18.2-50-17.1c-35.8,1-629.9,31.6-659.4,32.6C1124.4,409.5,1119.5,417.2,1120.1,427z"/>
	</g>
	<g>
		<g>
			<g>
				<path class="st3" d="M1917.2,105.7c-21.5,0-46.3-3.4-65.3-18c-8.8-6.7-17.6-18.7-13.5-30.5c4.3-12.5,44.7-20.4,53.1-21.1l0,0
					c72.2-6.4,117.7-0.3,131.6,17.8c5.2,6.8,6.1,15.2,2.6,25c-4.3,12-20.1,15.4-28.6,17.2c-19.7,4.3-40,7.2-60.1,8.8
					C1930.9,105.3,1924.2,105.7,1917.2,105.7z M1891.6,39c-13.5,1.2-47.4,9.9-50.6,19.2c-3.5,10.3,4.6,21.2,12.6,27.3
					c24.5,18.7,59.1,18.4,83.1,16.6c20-1.5,40.1-4.5,59.7-8.7c11-2.4,23.1-5.7,26.5-15.4c3.2-9,2.5-16.2-2.2-22.3
					C2011.5,43.6,1981.6,31,1891.6,39L1891.6,39z"/>
			</g>
		</g>
		<g class="st4">
			<g>
				<path class="st5" d="M1887,30.5c-12.1,1.1-51.2,10.5-55,23.1c-3.8,12.5,4.6,25.9,14.2,34c24.9,21.1,58.7,23,89.7,20.6
					c21.4-1.6,42.8-4.9,63.8-9.7c11.5-2.6,25.3-6.6,29.2-18.9C2048.7,17.2,1919.5,27.6,1887,30.5z"/>
			</g>
		</g>
		<g>
			<g>
				<path class="st3" d="M1915.8,359.3c-24.6,0-49.1-5.4-71.4-16.4c-4.2-2.1-8.8-4.6-11.6-9c-3-4.9-3-10.9-2.9-15.8l1.9-249.9
					c0-0.8,0.6-1.4,1.4-1.4l0,0c0.8,0,1.4,0.6,1.4,1.4l-1.9,249.9c0,4.5-0.1,10.1,2.5,14.3c2.3,3.8,6.6,6.1,10.4,8
					c57,28.3,132.3,17.6,179.3-25.3l0.5-7.3c5.2-74.8,11.2-159.6,1.2-234.5c-0.1-0.8,0.4-1.5,1.2-1.6c0.8-0.1,1.5,0.4,1.6,1.2
					c10,75.2,4.1,160.2-1.2,235.1l-0.6,8.4l-0.4,0.4C1997,344.6,1956.4,359.3,1915.8,359.3z"/>
			</g>
		</g>
		<g class="st4">
			<g>
				<path class="st5" d="M2005.2,108.3c-21,4.8-42.3,8-63.8,9.7c-31.1,2.4-64.8,0.5-89.7-20.6c-5.3-4.5-10.2-10.6-12.9-17.2
					c-0.6,82.5-1.3,165.1-1.9,247.6c0,5.2,0,10.7,2.7,15c2.5,4,6.8,6.4,11,8.5c58.1,28.8,110.9,11.1,158.6-32.8
					C2014.5,242.6,2016.7,105.7,2005.2,108.3z"/>
			</g>
		</g>
	</g>
	<g>
		<g>
			<path class="st0" d="M1967.9,603h-794.7c-2.5,0-4.6-2.1-4.6-4.6V88.6c0-2.5,2.1-4.6,4.6-4.6h794.7c2.5,0,4.6,2.1,4.6,4.6v509.7
				C1972.5,600.9,1970.4,603,1967.9,603z"/>
		</g>
		<g>
			<path class="st3" d="M1953.9,604.9h-766.6c-11.4,0-20.7-8.8-20.7-19.5V101.6c0-10.8,9.3-19.5,20.7-19.5h766.6
				c11.4,0,20.7,8.8,20.7,19.5v483.7C1974.5,596.1,1965.3,604.9,1953.9,604.9z M1187.3,85.9c-9.2,0-16.7,7.1-16.7,15.7v483.7
				c0,8.7,7.5,15.7,16.7,15.7h766.6c9.2,0,16.7-7.1,16.7-15.7V101.6c0-8.7-7.5-15.7-16.7-15.7H1187.3z"/>
		</g>
	</g>
	<g class="st1">
		<path class="st5" d="M1941.2,90.7h-745.6c-8.9,0-16.1,7.4-16.1,16.4v117.5h777.7V107.2C1957.3,98.1,1950.1,90.7,1941.2,90.7z"/>
	</g>
	<g class="st6">
		<g>
			<path class="st7" d="M1419,135.5l3-3.8c2.3,2,4.8,3.6,8,3.6c2.9,0,4.8-1.6,4.8-3.9l0,0c0-1.9-1-3.2-5.8-5
				c-5.8-2.2-8.8-4.3-8.8-9.2v-0.1c0-5,4-8.5,9.7-8.5c3.5,0,6.8,1.1,9.6,3.6l-2.9,3.9c-2.1-1.7-4.4-2.9-6.8-2.9
				c-2.7,0-4.4,1.5-4.4,3.5l0,0c0,2.1,1.1,3.3,6.3,5.3c5.7,2.2,8.3,4.5,8.3,9v0.1c0,5.4-4.2,8.8-9.9,8.8
				C1426.1,139.9,1422.3,138.5,1419,135.5z"/>
			<path class="st7" d="M1450.5,113.7h-8V109h21.1v4.7h-8v25.8h-5L1450.5,113.7L1450.5,113.7z"/>
			<path class="st7" d="M1465.8,124.5v-0.4c0-9.1,5.6-15.5,13.5-15.5s13.4,6.4,13.4,15.4v0.4c0,9.1-5.6,15.5-13.5,15.5
				S1465.8,133.5,1465.8,124.5z M1487.5,124.4v-0.3c0-6.5-3.5-10.9-8.3-10.9s-8.2,4.3-8.2,10.9v0.3c0,6.5,3.5,10.9,8.3,10.9
				C1484.1,135.3,1487.5,131,1487.5,124.4z"/>
			<path class="st7" d="M1498.2,109h11c3.5,0,6.3,1,8.1,2.9c1.6,1.6,2.5,3.9,2.5,6.7v0.2c0,4.7-2.6,7.6-6.3,8.9l7.2,11.8h-5.8
				l-6.5-10.8c-0.1,0-0.2,0-0.3,0h-4.9v10.7h-5L1498.2,109L1498.2,109z M1508.7,124.2c3.9,0,6.1-2.1,6.1-5.3v-0.1
				c0-3.4-2.2-5.2-6-5.2h-5.5v10.6H1508.7z"/>
			<path class="st7" d="M1525.4,109h19.2v4.6h-14.2v8.3h12.6v4.6h-12.6v8.5h14.4v4.6h-19.4V109z"/>
			<path class="st7" d="M1550.1,109h9.3c8.7,0,14.4,6.1,14.4,15v0.3c0,8.9-5.7,15.1-14.4,15.1h-9.3V109z M1555.1,113.6v21.3h4.2
				c5.6,0,9.3-4,9.3-10.5v-0.3c0-6.6-3.7-10.6-9.3-10.6h-4.2V113.6z"/>
			<path class="st7" d="M1590.5,109h19.2v4.6h-14.2v8.3h12.6v4.6h-12.6v8.5h14.4v4.6h-19.4V109z"/>
			<path class="st7" d="M1613,109h5.5l7.5,23l7.5-23h5.3l-10.5,30.6h-4.7L1613,109z"/>
			<path class="st7" d="M1643.1,109h19.2v4.6h-14.2v8.3h12.6v4.6h-12.6v8.5h14.4v4.6h-19.4V109z"/>
			<path class="st7" d="M1667.8,109h4.7l13.4,20.3V109h4.9v30.5h-4.3l-13.8-20.9v20.9h-5V109H1667.8z"/>
			<path class="st7" d="M1703.5,113.7h-8V109h21.1v4.7h-8v25.8h-5L1703.5,113.7L1703.5,113.7z"/>
			<path class="st7" d="M1718.6,135.5l3-3.8c2.3,2,4.8,3.6,8,3.6c2.9,0,4.8-1.6,4.8-3.9l0,0c0-1.9-1-3.2-5.8-5
				c-5.8-2.2-8.8-4.3-8.8-9.2v-0.1c0-5,4-8.5,9.7-8.5c3.5,0,6.8,1.1,9.6,3.6l-2.9,3.9c-2.1-1.7-4.4-2.9-6.8-2.9
				c-2.7,0-4.4,1.5-4.4,3.5l0,0c0,2.1,1.1,3.3,6.3,5.3c5.7,2.2,8.3,4.5,8.3,9v0.1c0,5.4-4.2,8.8-9.9,8.8
				C1725.7,139.9,1721.9,138.5,1718.6,135.5z"/>
		</g>
	</g>
	<g class="st1">
		<rect x="1183.9" y="155.5" class="st0" width="769.1" height="4.3"/>
	</g>
	<g class="st1">
		<rect x="1183.9" y="306.8" class="st3" width="773.4" height="4.3"/>
	</g>
	<g class="st1">
		<rect x="1183.9" y="380.2" class="st3" width="773.4" height="4.3"/>
	</g>
	<g class="st1">
		<rect x="1183.9" y="453.7" class="st3" width="773.4" height="4.3"/>
	</g>
	<g class="st1">
		<rect x="1183.9" y="527.1" class="st3" width="773.4" height="4.3"/>
	</g>
	<g class="st1">
		<g>
			<path class="st7" d="M1187.5,187.4h1.9l7,18.4h-2.1l-1.8-4.8h-8.2l-1.8,4.8h-2L1187.5,187.4z M1191.9,199.2l-3.4-9.3l-3.5,9.3
				H1191.9z"/>
			<path class="st7" d="M1197.8,196.7v-0.2c0-5.3,3.3-9.3,8.1-9.3c2.4,0,4,0.7,5.5,2l-1.2,1.6c-1.1-1-2.4-1.7-4.4-1.7
				c-3.5,0-6.1,3.1-6.1,7.5v0.1c0,4.6,2.5,7.6,6.2,7.6c1.6,0,3-0.6,3.9-1.3v-5.1h-4.6V196h6.4v7.8c-1.4,1.1-3.5,2.1-5.9,2.1
				C1201,206,1197.8,202.2,1197.8,196.7z"/>
			<path class="st7" d="M1215.2,196.7v-0.2c0-5.3,3.3-9.3,8.1-9.3c2.4,0,4,0.7,5.5,2l-1.2,1.6c-1.1-1-2.4-1.7-4.4-1.7
				c-3.5,0-6.1,3.1-6.1,7.5v0.1c0,4.6,2.5,7.6,6.2,7.6c1.6,0,3-0.6,3.9-1.3v-5.1h-4.6V196h6.4v7.8c-1.4,1.1-3.5,2.1-5.9,2.1
				C1218.4,206,1215.2,202.2,1215.2,196.7z"/>
			<path class="st7" d="M1233.4,187.5h6.2c2.1,0,3.8,0.6,4.8,1.7c0.9,0.9,1.4,2.2,1.4,3.8v0.1c0,2.9-1.8,4.6-4.3,5.3l4.9,7.5h-2.3
				l-4.6-7.1h-4.2v7.1h-2L1233.4,187.5L1233.4,187.5z M1239.3,196.9c3,0,4.6-1.5,4.6-3.8V193c0-2.4-1.7-3.7-4.4-3.7h-4.2v7.6
				L1239.3,196.9L1239.3,196.9z"/>
			<path class="st7" d="M1249.6,187.5h11.1v1.8h-9.2v6.4h8.2v1.8h-8.2v6.5h9.3v1.8h-11.3L1249.6,187.5L1249.6,187.5z"/>
			<path class="st7" d="M1263.6,196.7v-0.2c0-5.3,3.3-9.3,8.1-9.3c2.4,0,4,0.7,5.5,2l-1.2,1.6c-1.1-1-2.4-1.7-4.4-1.7
				c-3.5,0-6.1,3.1-6.1,7.5v0.1c0,4.6,2.5,7.6,6.2,7.6c1.6,0,3-0.6,3.9-1.3v-5.1h-4.6V196h6.4v7.8c-1.4,1.1-3.5,2.1-5.9,2.1
				C1266.8,206,1263.6,202.2,1263.6,196.7z"/>
			<path class="st7" d="M1287.3,187.4h1.9l7,18.4h-2.1l-1.8-4.8h-8.2l-1.8,4.8h-2L1287.3,187.4z M1291.7,199.2l-3.4-9.3l-3.5,9.3
				H1291.7z"/>
			<path class="st7" d="M1301.2,189.3h-5.1v-1.8h12.2v1.8h-5.1v16.4h-2V189.3z"/>
			<path class="st7" d="M1311.5,187.5h11.1v1.8h-9.2v6.4h8.2v1.8h-8.2v6.5h9.3v1.8h-11.3L1311.5,187.5L1311.5,187.5z"/>
			<path class="st7" d="M1332.8,198.9v-11.5h2v11.4c0,3.4,1.8,5.4,4.6,5.4c2.8,0,4.6-1.8,4.6-5.3v-11.5h2v11.4
				c0,4.7-2.6,7.2-6.6,7.2C1335.5,206,1332.8,203.5,1332.8,198.9z"/>
			<path class="st7" d="M1349.9,198.9v-11.5h2v11.4c0,3.4,1.8,5.4,4.6,5.4c2.8,0,4.6-1.8,4.6-5.3v-11.5h2v11.4
				c0,4.7-2.6,7.2-6.6,7.2C1352.6,206,1349.9,203.5,1349.9,198.9z"/>
			<path class="st7" d="M1367.4,187.5h2v18.3h-2V187.5z"/>
			<path class="st7" d="M1373.9,187.5h5.2c5.1,0,8.6,3.7,8.6,9v0.2c0,5.4-3.5,9.1-8.6,9.1h-5.2V187.5z M1375.8,189.3V204h3.2
				c4,0,6.6-2.9,6.6-7.2v-0.2c0-4.3-2.6-7.3-6.6-7.3H1375.8z"/>
		</g>
	</g>
	<g class="st1">
		<g>
			<path class="st7" d="M1406.8,187.5h11.1v1.8h-9.2v6.4h8.2v1.8h-8.2v6.5h9.3v1.8h-11.3L1406.8,187.5L1406.8,187.5z"/>
			<path class="st7" d="M1420.3,187.5h2.1l5.4,15.6l5.4-15.6h2.1l-6.6,18.4h-1.8L1420.3,187.5z"/>
			<path class="st7" d="M1438.3,187.5h11.1v1.8h-9.2v6.4h8.2v1.8h-8.2v6.5h9.3v1.8h-11.3L1438.3,187.5L1438.3,187.5z"/>
			<path class="st7" d="M1453.1,187.5h1.9l9.6,14.4v-14.4h1.9v18.3h-1.6L1455,191v14.7h-1.9V187.5z"/>
			<path class="st7" d="M1474.7,189.3h-5.1v-1.8h12.2v1.8h-5.1v16.4h-2V189.3z"/>
			<path class="st7" d="M1491.1,196.7v-0.2c0-5.5,3.4-9.3,8-9.3c2.5,0,4.1,0.9,5.6,2.2l-1.2,1.5c-1.2-1.1-2.5-1.9-4.4-1.9
				c-3.4,0-6,3.1-6,7.5v0.1c0,4.5,2.6,7.5,6,7.5c1.9,0,3.2-0.8,4.5-2l1.2,1.4c-1.5,1.5-3.3,2.5-5.8,2.5
				C1494.5,206,1491.1,202.3,1491.1,196.7z"/>
			<path class="st7" d="M1507.8,187.5h2V204h8.5v1.8h-10.4L1507.8,187.5L1507.8,187.5z"/>
			<path class="st7" d="M1527,187.4h1.9l7,18.4h-2.1l-1.8-4.8h-8.2l-1.8,4.8h-2L1527,187.4z M1531.4,199.2l-3.4-9.3l-3.5,9.3H1531.4
				z"/>
			<path class="st7" d="M1537.5,203.4l1.2-1.5c1.5,1.4,3.1,2.3,5.1,2.3c2.2,0,3.7-1.3,3.7-3.1l0,0c0-1.5-0.7-2.5-4-3.7
				c-3.8-1.4-5.3-2.8-5.3-5.4l0,0c0-2.7,2.3-4.8,5.5-4.8c2.1,0,3.9,0.7,5.5,2.1l-1.2,1.5c-1.4-1.2-2.8-1.8-4.4-1.8
				c-2.1,0-3.4,1.3-3.4,2.8v0.1c0,1.6,0.8,2.5,4.3,3.8c3.7,1.4,5.1,2.9,5.1,5.3v0.1c0,2.9-2.4,5-5.7,5
				C1541.5,206,1539.4,205.2,1537.5,203.4z"/>
			<path class="st7" d="M1551.5,203.4l1.2-1.5c1.5,1.4,3.1,2.3,5.1,2.3c2.2,0,3.7-1.3,3.7-3.1l0,0c0-1.5-0.7-2.5-4-3.7
				c-3.8-1.4-5.3-2.8-5.3-5.4l0,0c0-2.7,2.3-4.8,5.5-4.8c2.1,0,3.9,0.7,5.5,2.1l-1.2,1.5c-1.4-1.2-2.8-1.8-4.4-1.8
				c-2.1,0-3.4,1.3-3.4,2.8v0.1c0,1.6,0.8,2.5,4.3,3.8c3.7,1.4,5.1,2.9,5.1,5.3v0.1c0,2.9-2.4,5-5.7,5
				C1555.5,206,1553.4,205.2,1551.5,203.4z"/>
		</g>
	</g>
	<g class="st1">
		<g>
			<path class="st7" d="M1613.5,187.5h11.1v1.8h-9.2v6.4h8.2v1.8h-8.2v6.5h9.3v1.8h-11.3L1613.5,187.5L1613.5,187.5z"/>
			<path class="st7" d="M1627,187.5h2.1l5.4,15.6l5.4-15.6h2.1l-6.6,18.4h-1.8L1627,187.5z"/>
			<path class="st7" d="M1645,187.5h11.1v1.8h-9.2v6.4h8.2v1.8h-8.2v6.5h9.3v1.8H1645V187.5z"/>
			<path class="st7" d="M1659.8,187.5h1.9l9.6,14.4v-14.4h1.9v18.3h-1.6l-9.8-14.7v14.7h-1.9L1659.8,187.5L1659.8,187.5z"/>
			<path class="st7" d="M1681.4,189.3h-5.1v-1.8h12.2v1.8h-5.1v16.4h-2V189.3z"/>
			<path class="st7" d="M1698.5,187.5h5.5c3.9,0,6.4,2.2,6.4,5.8v0.1c0,3.9-2.9,6-6.7,6h-3.3v6.4h-2L1698.5,187.5L1698.5,187.5z
				 M1703.8,197.5c2.8,0,4.6-1.6,4.6-4.2l0,0c0-2.7-1.8-4.1-4.5-4.1h-3.4v8.3H1703.8z"/>
			<path class="st7" d="M1713.6,187.5h6.2c2.1,0,3.8,0.6,4.8,1.7c0.9,0.9,1.4,2.2,1.4,3.8v0.1c0,2.9-1.8,4.6-4.3,5.3l4.9,7.5h-2.4
				l-4.6-7.1h-4.2v7.1h-2v-18.4H1713.6z M1719.5,196.9c3,0,4.6-1.5,4.6-3.8V193c0-2.4-1.7-3.7-4.4-3.7h-4.2v7.6L1719.5,196.9
				L1719.5,196.9z"/>
			<path class="st7" d="M1729.1,196.7v-0.2c0-5.4,3.2-9.3,7.9-9.3c4.6,0,7.8,3.9,7.8,9.3v0.2c0,5.4-3.2,9.3-7.9,9.3
				S1729.1,202.1,1729.1,196.7z M1742.8,196.7v-0.2c0-4.4-2.5-7.5-5.8-7.5s-5.8,3.1-5.8,7.5v0.2c0,4.4,2.5,7.5,5.8,7.5
				S1742.8,201.1,1742.8,196.7z"/>
			<path class="st7" d="M1748.5,187.5h5.5c3.9,0,6.4,2.2,6.4,5.8v0.1c0,3.9-2.9,6-6.7,6h-3.3v6.4h-2L1748.5,187.5L1748.5,187.5z
				 M1753.8,197.5c2.8,0,4.6-1.6,4.6-4.2l0,0c0-2.7-1.8-4.1-4.5-4.1h-3.4v8.3H1753.8z"/>
			<path class="st7" d="M1763.5,187.5h11.1v1.8h-9.2v6.4h8.2v1.8h-8.2v6.5h9.3v1.8h-11.3L1763.5,187.5L1763.5,187.5z"/>
			<path class="st7" d="M1778.3,187.5h6.2c2.1,0,3.8,0.6,4.8,1.7c0.9,0.9,1.4,2.2,1.4,3.8v0.1c0,2.9-1.8,4.6-4.3,5.3l4.9,7.5h-2.4
				l-4.6-7.1h-4.2v7.1h-2v-18.4H1778.3z M1784.2,196.9c3,0,4.6-1.5,4.6-3.8V193c0-2.4-1.7-3.7-4.4-3.7h-4.2v7.6L1784.2,196.9
				L1784.2,196.9z"/>
			<path class="st7" d="M1798.2,189.3h-5.1v-1.8h12.2v1.8h-5.1v16.4h-2V189.3z"/>
			<path class="st7" d="M1808.7,187.5h2v18.3h-2V187.5z"/>
			<path class="st7" d="M1815.2,187.5h11.1v1.8h-9.2v6.4h8.2v1.8h-8.2v6.5h9.3v1.8h-11.3L1815.2,187.5L1815.2,187.5z"/>
			<path class="st7" d="M1828.7,203.4l1.2-1.5c1.5,1.4,3.1,2.3,5.1,2.3c2.2,0,3.7-1.3,3.7-3.1l0,0c0-1.5-0.7-2.5-4-3.7
				c-3.8-1.4-5.3-2.8-5.3-5.4l0,0c0-2.7,2.3-4.8,5.5-4.8c2.1,0,3.9,0.7,5.5,2.1l-1.2,1.5c-1.4-1.2-2.8-1.8-4.4-1.8
				c-2.1,0-3.4,1.3-3.4,2.8v0.1c0,1.6,0.8,2.5,4.3,3.8c3.7,1.4,5.1,2.9,5.1,5.3v0.1c0,2.9-2.4,5-5.7,5
				C1832.7,206,1830.6,205.2,1828.7,203.4z"/>
		</g>
	</g>
	<g class="st1">
		<g>
			<path class="st7" d="M1879.3,189.3h-5.1v-1.8h12.2v1.8h-5.1v16.4h-2V189.3z"/>
			<path class="st7" d="M1889.8,187.5h2v18.3h-2V187.5z"/>
			<path class="st7" d="M1896.3,187.5h2l5.6,9.8l5.6-9.8h2v18.3h-2V191l-5.6,9.8h-0.1l-5.6-9.8v14.7h-1.9V187.5z"/>
			<path class="st7" d="M1915.9,187.5h11.1v1.8h-9.2v6.4h8.2v1.8h-8.2v6.5h9.3v1.8h-11.3L1915.9,187.5L1915.9,187.5z"/>
		</g>
	</g>
</g>
<g class="st1">
	<path class="st2" d="M1152,872.2L616.7,736.3c-2.5-0.6-4-3.2-3.4-5.7l92.6-364.7c0.6-2.5,3.2-4,5.7-3.4l535.3,135.9
		c2.5,0.6,4,3.2,3.4,5.7l-92.6,364.7C1157.1,871.3,1154.5,872.8,1152,872.2z"/>
</g>
<g>
	<path class="st0" d="M1177.8,847.4L631.1,769c-2.6-0.4-4.3-2.7-4-5.3l53.4-372.4c0.4-2.6,2.7-4.3,5.3-4l546.7,78.5
		c2.6,0.4,4.3,2.7,4,5.3l-53.4,372.4C1182.7,846,1180.3,847.8,1177.8,847.4z"/>
	<path class="st8" d="M1165.3,847.6c-1.1,0-2.2-0.1-3.2-0.2l-515.9-74c-5.9-0.9-11.2-4-14.8-8.8s-5.1-10.7-4.2-16.6l49-341.6
		c1.8-12.2,13.1-20.8,25.4-19l515.9,74c5.9,0.9,11.2,4,14.8,8.8c3.6,4.8,5.1,10.7,4.2,16.6l-49,341.6c-0.9,5.9-4,11.2-8.8,14.8
		C1174.7,846.1,1170.1,847.6,1165.3,847.6z M698.4,391.5c-8.9,0-16.6,6.5-17.9,15.5l-49,341.6c-0.7,4.8,0.5,9.6,3.4,13.4
		c2.9,3.9,7.1,6.4,11.9,7.1l515.9,74c4.8,0.7,9.6-0.5,13.4-3.4c3.9-2.9,6.4-7.1,7.1-11.9l49-341.6c0.7-4.8-0.5-9.6-3.4-13.4
		c-2.9-3.9-7.1-6.4-11.9-7.1l-515.9-74C700.1,391.5,699.2,391.5,698.4,391.5z"/>
</g>
<g>
	<ellipse class="st0" cx="813.4" cy="398.6" rx="35.6" ry="33.5"/>
</g>
<g>
	<g class="st1">
		<path class="st2" d="M35.7,201.3l21.9,60.8c0,0,2.4,5.9,10.3,5.4S277.6,247,277.6,247s13.8-1.6,11.6-5.5
			c-2.2-3.9-25.9-60.6-25.9-60.6s-2.3-5.3-12.2-4.6c-9.6,0.6-195.2,17.4-205.9,18.2C37.3,195.2,35.5,198,35.7,201.3z"/>
	</g>
	<g>
		<path class="st0" d="M61.1,73.2l16.1,164.4c0,0,1.8,16.1,8.9,16.1s189.5-17.9,189.5-17.9s12.5-1.8,10.7-12.5
			S266.7,58.9,266.7,58.9s-1.8-14.3-10.7-14.3c-8.7,0-176.3,12.3-185.9,12.5C62.9,57.3,61.1,64.3,61.1,73.2z"/>
		<path class="st3" d="M86.2,255.9c-8.8,0-10.9-16.2-11.1-18L59,73.2c0-4.4,0-18,11-18.2c4.3-0.1,41.5-2.7,80.8-5.5
			c49.2-3.5,100.1-7,105.1-7l0,0c10.7,0,12.8,15.5,12.9,16.2c0.2,1.6,17.9,153.8,19.6,164.3c0.6,3.5-0.1,6.5-1.9,9.1
			c-3.6,4.9-10.3,5.9-10.6,5.9C268.4,238.7,93.3,255.9,86.2,255.9z M63.3,73.1l16.1,164.3c0.5,4.6,2.9,14.1,6.8,14.1
			c5.6,0,126.2-11.7,189.2-17.9l0,0c0,0,5.2-0.8,7.7-4.2c1.2-1.6,1.5-3.5,1.1-5.8c-1.8-10.7-18.9-158.3-19.7-164.5
			c0-0.1-1.7-12.4-8.6-12.4l0,0c-4.8,0-57.9,3.7-104.8,7c-39.4,2.8-76.6,5.4-81,5.5C66.8,59.4,63.3,61.1,63.3,73.1z"/>
	</g>
	<g class="st1">
		<path class="st5" d="M272,66c-0.7-6.8-1.1-8.5-1.1-8.5S269.2,41,260.2,41S80.9,55.4,73.7,55.4s-9,8.2-9,18.5l0.9,8.2
			C113.1,78,212.5,70.4,272,66z"/>
	</g>
	<g>
		<g>
			<path class="st5" d="M79.3,72.6L74.6,73c-0.4,0-0.7-0.3-0.8-0.7l-0.3-4.7c0-0.4,0.3-0.7,0.7-0.8l4.7-0.3c0.4,0,0.7,0.3,0.8,0.7
				l0.3,4.7C80,72.3,79.7,72.6,79.3,72.6z"/>
		</g>
		<g>
			<path class="st5" d="M89.5,71.9l-4.7,0.3c-0.4,0-0.7-0.3-0.8-0.7l-0.3-4.7c0-0.4,0.3-0.7,0.7-0.8l4.7-0.3c0.4,0,0.7,0.3,0.8,0.7
				l0.3,4.7C90.2,71.5,89.9,71.9,89.5,71.9z"/>
		</g>
		<g>
			<path class="st5" d="M99.7,71.2L95,71.5c-0.4,0-0.7-0.3-0.8-0.7L94,66.2c0-0.4,0.3-0.7,0.7-0.8l4.7-0.3c0.4,0,0.7,0.3,0.8,0.7
				l0.3,4.7C100.4,70.8,100.1,71.2,99.7,71.2z"/>
		</g>
	</g>
</g>
<g>
	<path class="st7" d="M133.8,142.7h8.4l15.2,42.6h-9.1l-3.1-9.2h-14.6l-3.1,9.2h-8.8L133.8,142.7z M142.5,168.4l-4.6-13.8l-4.7,13.8
		H142.5z"/>
	<path class="st7" d="M162.6,143h14.1c9.5,0,15.5,5.5,15.5,14.5v0.1c0,9.7-7,14.6-15.9,14.8h-5v12.9h-8.8L162.6,143L162.6,143z
		 M176.3,164.6c4.5,0,7.1-2.8,7.1-6.8v-0.1c0-4.4-2.5-6.8-7.2-6.8h-4.8v13.7L176.3,164.6L176.3,164.6z"/>
	<path class="st7" d="M197.9,143H212c9.5,0,15.5,5.5,15.5,14.5v0.1c0,9.7-7,14.6-15.9,14.8h-5v12.9h-8.8L197.9,143L197.9,143z
		 M211.6,164.6c4.5,0,7.1-2.8,7.1-6.8v-0.1c0-4.4-2.5-6.8-7.2-6.8h-4.8v13.7L211.6,164.6L211.6,164.6z"/>
</g>
<g>
	<g>
		<path class="st0" d="M1134.2,88.6c0,0-271.7,0-319.7,311.1"/>
		<path class="st8" d="M818.4,389.1l-4.3-0.7c1.4-8.1,3-16.2,4.8-24.1l4.2,0.9C821.4,373,819.8,381.1,818.4,389.1z M825.8,354
			l-4.2-1.1c1.9-7.6,4-15.2,6.2-22.5l4.1,1.3C829.8,338.9,827.7,346.4,825.8,354z M835.1,321.8l-4.1-1.4c3.3-9.8,6.9-19.5,10.8-28.8
			l4,1.7C842,302.5,838.4,312.1,835.1,321.8z M850.7,282.2l-3.9-1.8c3.4-7.5,7.1-14.9,11-22l3.8,2.1
			C857.7,267.5,854.1,274.8,850.7,282.2z M867.2,250.4l-3.7-2.2c4-6.8,8.2-13.4,12.5-19.8l3.6,2.4
			C875.2,237.1,871.1,243.7,867.2,250.4z M885.4,222.4l-3.5-2.5c6.1-8.3,12.6-16.4,19.3-24l3.2,2.9
			C897.8,206.2,891.4,214.2,885.4,222.4z M912.7,189.8l-3.1-3c5.7-5.9,11.6-11.6,17.7-17.1l2.9,3.2
			C924.2,178.3,918.3,184,912.7,189.8z M939,165.5l-2.8-3.3c6-4.9,12.2-9.7,18.6-14.2l2.5,3.5C951,155.9,944.9,160.6,939,165.5z
			 M965.9,145.6l-2.4-3.6c8.5-5.6,17.4-10.9,26.5-15.7l2,3.8C983,134.8,974.2,140.1,965.9,145.6z M1002.9,124.6l-1.9-3.9
			c7.3-3.6,14.9-6.9,22.6-10l1.6,4C1017.6,117.7,1010.1,121,1002.9,124.6z M1036,110.6l-1.5-4.1c7.3-2.6,14.8-5.1,22.3-7.2l1.2,4.2
			C1050.5,105.6,1043.1,108,1036,110.6z M1068,100.7l-1.1-4.2c10-2.6,20.2-4.7,30.2-6.4l0.7,4.3C1087.9,96.1,1077.9,98.2,1068,100.7
			z M1109.9,92.7l-0.5-4.3c15.3-1.9,24.5-2,24.8-2v4.3C1134.1,90.7,1124.9,90.8,1109.9,92.7z"/>
	</g>
	<g>
		<path class="st8" d="M813.7,403l-22.8-45.6c-0.5-1.1-0.1-2.4,1-2.9s2.4-0.1,2.9,1l20.4,40.8l41.1-32.9c0.9-0.7,2.3-0.6,3,0.3
			s0.6,2.3-0.3,3L813.7,403z"/>
	</g>
</g>
<g>
	<path class="st0" d="M1014.4,163.8l-131,103.8c-2.2,1.7-5.3,1.3-7-0.8L841,222.2c-1.7-2.2-1.3-5.3,0.8-7l131-103.8
		c2.2-1.7,5.3-1.3,7,0.8l35.3,44.6C1016.9,158.9,1016.5,162.1,1014.4,163.8z"/>
</g>
<g>
	<path class="st8" d="M867,222.2l6.8-6c2.1-1.8,4.3-2.7,6.5-2.6c1.9,0.1,3.6,1.1,5.2,2.9l0.1,0.1c2.4,2.8,2.5,5.7,1.3,8.3l9.8,3.4
		l-4.3,3.8l-8.6-3.1l-2.4,2.1l5.2,6l-3.8,3.3L867,222.2z M881.3,225.4c1.9-1.7,2-3.7,0.6-5.3l0,0c-1.6-1.8-3.5-1.8-5.4-0.1l-2.7,2.4
		l4.8,5.5L881.3,225.4z"/>
	<path class="st8" d="M883.3,208l11.8-10.2l3,3.4l-8,7l3.4,3.9l7-6.1l3,3.4l-7,6.1l3.5,4.1l8.1-7.1l3,3.4l-11.8,10.3L883.3,208z"/>
	<path class="st8" d="M904.7,195.5l-4.6,4l-3-3.5l12.9-11.3l3,3.5l-4.6,4l12.8,14.7l-3.7,3.3L904.7,195.5z"/>
	<path class="st8" d="M912.5,182.5l6.9-6c2.1-1.8,4.3-2.7,6.5-2.6c1.8,0.1,3.6,1.1,5.2,2.9l0.1,0.1c2.4,2.8,2.5,5.7,1.3,8.3l9.8,3.4
		l-4.3,3.8l-8.6-3.1l-2.4,2.1l5.2,6l-3.8,3.3L912.5,182.5z M926.9,185.7c1.9-1.7,2-3.7,0.6-5.3l0,0c-1.6-1.8-3.5-1.8-5.4-0.1
		l-2.7,2.4l4.8,5.5L926.9,185.7z"/>
	<path class="st8" d="M929,168.2l3.8-3.3l15.9,18.2l-3.8,3.3L929,168.2z"/>
	<path class="st8" d="M936.6,161.6l11.8-10.2l3,3.4l-8,7l3.4,3.9l7-6.1l3,3.4l-7,6.1l3.5,4.1l8.1-7.1l3,3.4l-11.8,10.3L936.6,161.6z
		"/>
	<path class="st8" d="M950,149.9l4.1-3.6l14.8,9.2l-7.1-15.9l4-3.5l9.8,23.7l-3.5,3L950,149.9z"/>
	<path class="st8" d="M968.1,134.2l11.8-10.2l3,3.4l-8,7l3.4,3.9l7-6.1l3,3.4l-7,6.1l3.5,4.1l8.1-7.1l3,3.4L984,152.4L968.1,134.2z"
		/>
</g>
<g>
	<path class="st9" d="M717.1,508.3c0-5.8,2.3-10.9,6.1-14.7c2.1-2.1,4.8-3.9,7.9-5.1l1.6,3.3c-2.3,1.1-4.2,2.5-5.8,4
		c-3.5,3.5-5.2,7.8-5.2,12.4c0,4.3,1.7,7.6,4.5,10.7l-2.9,2.7C719.5,518.1,717.1,514,717.1,508.3z"/>
	<path class="st9" d="M734.8,507.5v0.3c0,3.1,1.5,5.1,4.1,5.1c1.8,0,3-0.6,4.4-1.7l2,3.2c-1.8,1.4-3.9,2.3-6.6,2.3
		c-5.1,0-8.2-3.4-8.2-8.8c0-3.7,1.5-7.4,3.9-9.8c1.8-1.8,4-3,6.8-3c4.4,0,7.1,3.2,7.1,7.6c0,1.4-0.2,3-0.9,4.8L734.8,507.5
		L734.8,507.5z M735.3,504.5h8.6c0.2-0.7,0.2-1.2,0.2-2c0-2-1-3.6-3.2-3.6c-1.3,0-2.5,0.6-3.4,1.5
		C736.5,501.4,735.7,502.8,735.3,504.5z"/>
	<path class="st9" d="M754.4,495.5h4.6l-0.5,2.4c1.4-1.6,3-2.8,5.2-2.8c2.4,0,4.1,1.4,4.7,3.7c1.7-2.3,3.9-3.7,6.6-3.7
		c3.2,0,5.3,2.1,5.3,5.2c0,1.2-0.3,2.6-0.6,4.1l-2.9,11.8h-4.6l2.9-11.9c0.2-1,0.4-1.9,0.4-2.4c0-1.7-0.9-2.6-2.6-2.6
		c-2,0-3.8,1.8-4.4,4.4l-3.1,12.6h-4.6l2.9-11.9c0.2-1,0.4-1.9,0.4-2.4c0-1.7-1-2.6-2.6-2.6c-2.1,0-3.8,1.9-4.4,4.5l-3,12.4h-4.6
		L754.4,495.5z"/>
	<path class="st9" d="M786.9,512.8l-2.2,9.2h-4.6l6.5-26.6h4.6l-0.6,2.6c1.6-1.8,3.3-3,5.6-3c3.6,0,6.5,3,6.5,8.3
		c0,4-1.4,7.9-3.9,10.4c-1.8,1.7-3.9,2.7-6.2,2.7C789.7,516.6,787.9,515,786.9,512.8z M795.1,511.2c1.7-1.7,2.7-4.5,2.7-7.4
		c0-3-1.3-4.8-3.7-4.8c-1.3,0-2.5,0.5-3.5,1.6c-1.7,1.7-2.7,4.6-2.7,7.3c0,2.9,1.6,4.7,3.9,4.7C792.9,512.7,794.2,512.2,795.1,511.2
		z"/>
	<path class="st9" d="M805.7,512.7c0-0.8,0.2-1.7,0.4-2.5l2.6-10.7h-2.3l1-4h2.3l1.3-5.4h4.6l-1.3,5.4h4.3l-1,4h-4.2l-2.6,10.7
		c-0.1,0.4-0.1,0.8-0.1,1c0,0.8,0.6,1.2,1.6,1.2c0.8,0,1.7-0.2,2.5-0.6l-1,4c-0.9,0.5-2.2,0.7-3.5,0.7
		C807.4,516.5,805.7,515,805.7,512.7z"/>
	<path class="st9" d="M820.7,495.5h4.7l0.8,15.2l7.5-15.2h4.9l-11.5,21.1c-2.2,4-4.1,5.6-7,5.6c-1.7,0-3.2-0.6-4.3-1.6l2.2-3.2
		c0.7,0.5,1.4,0.9,2.1,0.9c0.9,0,1.6-0.5,2.4-1.9L820.7,495.5z"/>
	<path class="st9" d="M850.1,501.8c0,5.8-2.3,10.9-6.1,14.7c-2.1,2.1-4.8,3.9-7.9,5.1l-1.6-3.3c2.3-1.1,4.2-2.5,5.8-4
		c3.5-3.5,5.2-7.8,5.2-12.4c0-4.3-1.7-7.6-4.5-10.7l2.9-2.7C847.8,492,850.1,496.1,850.1,501.8z"/>
</g>
<g class="st10">
	<polygon class="st8" points="1183.9,661.1 652.4,656.7 665.4,583.3 1201.1,583.3 	"/>
</g>
<g class="st6">
	<path class="st8" d="M754.7,604.1h4.9l11.2,30.6h-5.3l-2.5-7.2h-11.8l-2.5,7.2h-5.1L754.7,604.1z M761.4,623l-4.4-12.2l-4.4,12.2
		H761.4z"/>
	<path class="st8" d="M772.5,619.7v-0.3c0-9,5.8-15.5,14-15.5c4.1,0,7,1.2,9.7,3.4l-3,4c-1.7-1.6-3.7-2.7-6.7-2.7
		c-5,0-8.7,4.5-8.7,10.8v0.3c0,6.9,3.7,11,8.9,11c2.1,0,4-0.7,5.4-1.6v-6.7h-6.4V618h11.2v13.7c-2.6,2-6.1,3.7-10.4,3.7
		C778.1,635.1,772.5,629,772.5,619.7z"/>
	<path class="st8" d="M801.6,619.7v-0.3c0-9,5.8-15.5,14-15.5c4.1,0,7,1.2,9.7,3.4l-3,4c-1.7-1.6-3.7-2.7-6.7-2.7
		c-5,0-8.7,4.5-8.7,10.8v0.3c0,6.9,3.7,11,8.9,11c2.1,0,4-0.7,5.4-1.6v-6.7h-6.4V618H826v13.7c-2.6,2-6.1,3.7-10.4,3.7
		C807.3,635.1,801.6,629,801.6,619.7z"/>
	<path class="st8" d="M831.9,604.2h11c3.5,0,6.3,1,8.1,2.9c1.6,1.6,2.5,3.9,2.5,6.7v0.2c0,4.7-2.6,7.6-6.3,8.9l7.2,11.8h-5.8
		l-6.5-10.8c-0.1,0-0.2,0-0.3,0h-4.9v10.7h-5V604.2z M842.4,619.4c3.9,0,6.1-2.1,6.1-5.3V614c0-3.4-2.2-5.2-6-5.2H837v10.6H842.4z"
		/>
	<path class="st8" d="M859,604.2h19.2v4.6H864v8.3h12.6v4.6H864v8.5h14.4v4.6H859V604.2z"/>
	<path class="st8" d="M882.5,619.7v-0.3c0-9,5.8-15.5,14-15.5c4.1,0,7,1.2,9.7,3.4l-3,4c-1.7-1.6-3.7-2.7-6.7-2.7
		c-5,0-8.7,4.5-8.7,10.8v0.3c0,6.9,3.7,11,8.9,11c2.1,0,4-0.7,5.4-1.6v-6.7h-6.4V618h11.2v13.7c-2.6,2-6.1,3.7-10.4,3.7
		C888.1,635.1,882.5,629,882.5,619.7z"/>
	<path class="st8" d="M921.7,604.1h4.9l11.2,30.6h-5.3l-2.5-7.2h-11.8l-2.5,7.2h-5.1L921.7,604.1z M928.4,623l-4.4-12.2l-4.4,12.2
		H928.4z"/>
	<path class="st8" d="M945,608.9h-8v-4.7h21.1v4.7h-8v25.8H945V608.9z"/>
	<path class="st8" d="M962.8,604.2H982v4.6h-14.2v8.3h12.6v4.6h-12.6v8.5h14.4v4.6h-19.4V604.2z"/>
	<path class="st8" d="M998.7,604.2h11c3.5,0,6.3,1,8.1,2.9c1.6,1.6,2.5,3.9,2.5,6.7v0.2c0,4.7-2.6,7.6-6.3,8.9l7.2,11.8h-5.8
		l-6.5-10.8c-0.1,0-0.2,0-0.3,0h-4.9v10.7h-5V604.2z M1009.2,619.4c3.9,0,6.1-2.1,6.1-5.3V614c0-3.4-2.2-5.2-6-5.2h-5.5v10.6H1009.2
		z"/>
	<path class="st8" d="M1024.7,619.7v-0.4c0-9.1,5.6-15.5,13.5-15.5s13.4,6.4,13.4,15.4v0.4c0,9.1-5.6,15.5-13.5,15.5
		C1030.3,635.2,1024.7,628.7,1024.7,619.7z M1046.5,619.6v-0.3c0-6.5-3.5-10.9-8.3-10.9s-8.2,4.3-8.2,10.9v0.3
		c0,6.5,3.5,10.9,8.3,10.9C1043,630.5,1046.5,626.2,1046.5,619.6z"/>
	<path class="st8" d="M1056.1,619.7v-0.4c0-9.1,5.6-15.5,13.5-15.5s13.4,6.4,13.4,15.4v0.4c0,9.1-5.6,15.5-13.5,15.5
		C1061.6,635.2,1056.1,628.7,1056.1,619.7z M1077.8,619.6v-0.3c0-6.5-3.5-10.9-8.3-10.9s-8.2,4.3-8.2,10.9v0.3
		c0,6.5,3.5,10.9,8.3,10.9C1074.4,630.5,1077.8,626.2,1077.8,619.6z"/>
	<path class="st8" d="M1093.2,608.9h-8v-4.7h21.1v4.7h-8v25.8h-5L1093.2,608.9L1093.2,608.9z"/>
</g>
<g>
	<g>
		<path class="st11" d="M287.8,133.9l-1-4.2c7.8-1.8,15.9-3.6,24-5.2l0.8,4.2C303.6,130.3,295.5,132.1,287.8,133.9z M723.9,130.7
			c-6.9-1-14.6-2-23-3.1l0.5-4.3c8.5,1.1,16.2,2.1,23.1,3.1L723.9,130.7z M323.7,126.5l-0.8-4.3c9.8-1.7,20-3.3,30.3-4.7l0.6,4.3
			C343.6,123.2,333.5,124.8,323.7,126.5z M690.5,126.3c-9.4-1.2-19.6-2.3-30.4-3.5l0.5-4.3c10.8,1.1,21,2.3,30.5,3.5L690.5,126.3z
			 M647.9,121.6c-7.8-0.8-16-1.5-24.4-2.3l0.4-4.3c8.4,0.7,16.6,1.5,24.4,2.3L647.9,121.6z M364.1,120.5l-0.5-4.3
			c7.6-0.9,15.4-1.8,23.2-2.5l0.4,4.3C379.5,118.8,371.7,119.6,364.1,120.5z M612,118.4c-7.6-0.6-15.3-1.2-23.2-1.7l0.3-4.3
			c7.9,0.5,15.7,1.1,23.2,1.7L612,118.4z M398.8,117l-0.4-4.3c8-0.7,16.2-1.2,24.5-1.7l0.2,4.3C414.9,115.8,406.7,116.3,398.8,117z
			 M578.4,116c-10.2-0.6-20.5-1.1-30.5-1.5l0.2-4.3c10.1,0.4,20.4,0.9,30.6,1.5L578.4,116z M435.4,114.7l-0.2-4.3
			c10-0.5,20.3-0.8,30.7-1l0.1,4.3C455.6,113.8,445.3,114.2,435.4,114.7z M535.6,114.1c-8.1-0.3-16.2-0.4-24.5-0.6l0.1-4.3
			c8.3,0.1,16.4,0.3,24.5,0.6L535.6,114.1z M476.3,113.5l-0.1-4.3c7.8-0.1,15.6-0.1,23.3-0.1v4.3
			C491.9,113.4,484.1,113.4,476.3,113.5z"/>
	</g>
	<g>
		<path class="st11" d="M715.1,151.2c-0.5,0-1.1-0.2-1.5-0.6c-0.9-0.8-0.9-2.2-0.1-3.1l18.3-19.7l-14.3-25.3c-0.6-1-0.2-2.4,0.8-2.9
			c1-0.6,2.4-0.2,2.9,0.8l15,26.7c0.5,0.8,0.3,1.8-0.3,2.5l-19.4,20.8C716.2,151,715.6,151.2,715.1,151.2z"/>
	</g>
</g>
<g>
	<g>
		<path class="st12" d="M615.7,181.4H412.6c-32.7,0-59.5-26.8-59.5-59.5l0,0c0-32.7,26.8-59.5,59.5-59.5h203.1
			c32.7,0,59.5,26.8,59.5,59.5l0,0C675.2,154.7,648.4,181.4,615.7,181.4z"/>
	</g>
	<g>
		<path class="st0" d="M609.9,169.4H413.5c-26.6,0-48.3-21.7-48.3-48.3l0,0c0-26.6,21.7-48.3,48.3-48.3h196.4
			c26.6,0,48.3,21.7,48.3,48.3l0,0C658.2,147.6,636.5,169.4,609.9,169.4z"/>
	</g>
	<g>
		<path class="st11" d="M386.1,128.5l4.2-3.6c2,2.2,3.7,3.4,5.6,3.4c1.6,0,2.7-1,2.7-2.3c0-1.1-0.7-2-3.3-3.9
			c-3-2.3-4.9-4.4-4.9-7.3c0-2.3,0.9-4.3,2.2-5.6c1.6-1.6,3.9-2.6,6.5-2.6c3.9,0,6.6,1.7,8.5,3.9l-3.9,3.9c-1.7-1.8-3-2.8-4.9-2.8
			c-1.7,0-2.6,1.1-2.6,2.3s0.6,1.9,3.3,3.9c2.9,2.1,5,4.2,5,7.4c0,2.4-0.9,4.3-2.3,5.7c-1.6,1.6-4.1,2.5-6.6,2.5
			C391.7,133.2,388.3,131.5,386.1,128.5z"/>
		<path class="st11" d="M422.3,132.9h-5.5l0.4-1.9c-1.2,1.1-2.7,2.2-4.7,2.2c-2.9,0-4.8-1.9-4.8-5.1c0-1,0.3-2.5,0.7-4l2.7-11.2h5.6
			l-2.7,11.3c-0.2,0.9-0.3,1.7-0.3,2.2c0,1.3,0.6,1.9,1.9,1.9c1.7,0,2.8-1.4,3.2-3.4l2.9-12h5.5L422.3,132.9z"/>
		<path class="st11" d="M432.5,130.2l-0.6,2.6h-5.5l6.5-26.8h5.6l-2.1,8.7c1.5-1.5,2.9-2.3,4.8-2.3c3.3,0,6.1,2.8,6.1,8.1
			c0,3.8-1.4,7.6-3.7,10c-1.7,1.7-3.8,2.6-6,2.6C435.2,133.2,433.6,132,432.5,130.2z M439.2,127.4c1.4-1.4,2.3-3.8,2.3-6.4
			c0-2.4-1-3.9-3-3.9c-0.9,0-1.9,0.4-2.6,1.1c-1.5,1.5-2.3,4.1-2.3,6.4c0,2.4,1.2,3.9,3,3.9C437.4,128.5,438.4,128.1,439.2,127.4z"
			/>
		<path class="st11" d="M449.7,129.3c0-0.8,0.2-1.6,0.4-2.6l2.2-9.1h-2.2l1.2-4.8h2.1l1.2-4.9h5.6l-1.2,4.9h3.5l-1.2,4.8h-3.5
			l-2.2,9c-0.1,0.3-0.1,0.6-0.1,0.8c0,0.5,0.4,0.9,1.1,0.9c0.8,0,1.7-0.2,2.3-0.6l-1.2,4.7c-0.9,0.5-2.3,0.8-3.7,0.8
			C451.2,133.1,449.7,131.6,449.7,129.3z"/>
		<path class="st11" d="M466,112.8h5.5l-0.8,3.2c1.5-2.3,3.3-3.7,6.1-3.5l-1.6,5.8h-0.3c-3.2,0-5.2,1.5-6.2,5.8l-2.1,8.8h-5.5
			L466,112.8z"/>
		<path class="st11" d="M474.4,127.9c0-2,0.7-3.9,2-5.2c1.4-1.4,3.4-2.1,5.8-2.1c1.7,0,3,0.3,4.3,0.9l0.1-0.3
			c0.1-0.6,0.3-1.2,0.3-1.8c0-1.1-0.6-2-2.9-2c-1.4,0-2.9,0.4-4.3,1.1l-1.2-4.4c1.8-0.8,4-1.4,6.5-1.4c4.8,0,7.3,2,7.3,5.5
			c0,1.3-0.3,2.6-0.6,3.9l-2.6,10.9h-5.4l0.5-2.1c-1.3,1.5-2.9,2.4-4.8,2.4C476.2,133.2,474.4,130.9,474.4,127.9z M485.5,125.7
			l0.3-1.3c-0.7-0.3-1.7-0.6-2.5-0.6c-1,0-1.9,0.3-2.4,0.9c-0.6,0.6-1,1.6-1,2.6c0,1.2,0.7,2.1,2,2.1
			C483.8,129.4,485,127.6,485.5,125.7z"/>
		<path class="st11" d="M494.6,124.8c0-3.6,1.4-7.1,3.6-9.4c1.9-1.8,4-2.9,6.8-2.9c3.6,0,5.4,1.4,6.8,3.6l-4,3.2
			c-0.9-1.3-1.7-2.1-2.9-2.1c-1,0-1.8,0.4-2.5,1.2c-1.4,1.4-2.4,4.2-2.4,6.4c0,2.5,1.1,3.8,2.7,3.8c1.2,0,2-0.6,3.2-1.5l2.7,3.5
			c-1.6,1.5-3.4,2.7-6.2,2.7C497.7,133.2,494.6,130,494.6,124.8z"/>
		<path class="st11" d="M512.1,129.3c0-0.8,0.2-1.6,0.4-2.6l2.2-9.1h-2.2l1.2-4.8h2.1l1.2-4.9h5.6l-1.2,4.9h3.5l-1.2,4.8h-3.5
			l-2.2,9c-0.1,0.3-0.1,0.6-0.1,0.8c0,0.5,0.4,0.9,1.1,0.9c0.8,0,1.7-0.2,2.3-0.6l-1.2,4.7c-0.9,0.5-2.3,0.8-3.7,0.8
			C513.7,133.1,512.1,131.6,512.1,129.3z"/>
		<path class="st11" d="M549.5,104.6l-0.7,2.8c2,0.6,3.8,1.8,5,3.1l-3.8,3.7c-0.8-0.8-1.7-1.4-2.7-1.9l-1.5,5.5
			c3,1.6,5.1,3.8,5.1,6.8c0,5-4,8.3-9.2,8.3l-1,3.6H537l1.2-4c-2.6-0.7-4.8-2-6.3-4l4-3.5c1.2,1.4,2.4,2.3,3.7,2.7l1.6-5.9
			c-2.9-1.6-5.1-3.4-5.1-7c0-4.7,3.6-8,9.1-8l0.7-2.2H549.5z M542.8,116.1l1.2-4.4c-1.5,0.2-2.3,1.3-2.3,2.4
			C541.8,114.7,542,115.4,542.8,116.1z M544.2,123.5l-1.3,4.6c1.4-0.4,2.3-1.4,2.3-2.7C545.2,124.6,544.9,124.1,544.2,123.5z"/>
		<path class="st11" d="M560.4,112.8l-3.9,1v-4.9l7.1-2.1h3.9l-6.4,26.1h-5.6L560.4,112.8z"/>
		<path class="st11" d="M590.1,116.6c0,4.5-1.6,10.3-4.9,13.6c-2,2-4.4,3.1-7.5,3.1c-5.1,0-8.7-3.7-8.7-10.1
			c0-4.5,1.6-10.4,4.9-13.6c1.9-2,4.4-3.1,7.4-3.1C586.5,106.5,590.1,110.1,590.1,116.6z M580.9,127c2.2-2.2,3.5-7.2,3.5-10.4
			c0-3.6-1.4-5-3.4-5c-1,0-1.9,0.4-2.7,1.2c-2.2,2.2-3.5,7.2-3.5,10.4c0,3.6,1.4,5,3.4,5C579.1,128.2,580.1,127.8,580.9,127z"/>
		<path class="st11" d="M613.4,116.6c0,4.5-1.6,10.3-4.9,13.6c-2,2-4.4,3.1-7.5,3.1c-5.1,0-8.7-3.7-8.7-10.1
			c0-4.5,1.6-10.4,4.9-13.6c1.9-2,4.4-3.1,7.4-3.1C609.8,106.5,613.4,110.1,613.4,116.6z M604.2,127c2.2-2.2,3.5-7.2,3.5-10.4
			c0-3.6-1.4-5-3.4-5c-1,0-1.9,0.4-2.7,1.2c-2.2,2.2-3.5,7.2-3.5,10.4c0,3.6,1.4,5,3.4,5C602.4,128.2,603.3,127.8,604.2,127z"/>
		<path class="st11" d="M636.6,116.6c0,4.5-1.6,10.3-4.9,13.6c-2,2-4.4,3.1-7.5,3.1c-5.1,0-8.7-3.7-8.7-10.1
			c0-4.5,1.6-10.4,4.9-13.6c1.9-2,4.4-3.1,7.4-3.1C633,106.5,636.6,110.1,636.6,116.6z M627.4,127c2.2-2.2,3.5-7.2,3.5-10.4
			c0-3.6-1.4-5-3.4-5c-1,0-1.9,0.4-2.7,1.2c-2.2,2.2-3.5,7.2-3.5,10.4c0,3.6,1.4,5,3.4,5C625.7,128.2,626.6,127.8,627.4,127z"/>
	</g>
</g>
<g>
	<path class="st9" d="M746.5,718h4.9l3.5,12.7l9.5-12.7h5.4l-6.6,27.2h-4.7l4.7-19.5l-10,12.9H753l-3.7-12.8l-4.7,19.4h-4.7
		L746.5,718z"/>
	<path class="st9" d="M788.8,733c0,3.7-1.4,7.4-3.8,9.7c-1.8,1.9-4.2,3-6.8,3c-5,0-8.2-3.6-8.2-8.8c0-3.7,1.4-7.4,3.8-9.8
		c1.8-1.9,4.2-3,6.8-3C785.6,724.1,788.8,727.7,788.8,733z M781.6,740.2c1.7-1.7,2.6-4.7,2.6-7.1c0-3.3-1.6-5-3.9-5
		c-1.2,0-2.4,0.6-3.3,1.4c-1.7,1.7-2.6,4.7-2.6,7.1c0,3.3,1.6,5,3.9,5C779.6,741.6,780.7,741.1,781.6,740.2z"/>
	<path class="st9" d="M795.2,724.5h4.6l-0.5,2.4c1.3-1.5,3.1-2.8,5.4-2.8c3.1,0,5.2,2,5.2,5.4c0,1-0.3,2.4-0.6,3.9l-2.8,11.8h-4.7
		l2.9-11.9c0.3-1,0.4-1.9,0.4-2.4c0-1.7-0.9-2.6-2.7-2.6c-2.2,0-3.9,1.9-4.5,4.5l-3,12.4h-4.6L795.2,724.5z"/>
	<path class="st9" d="M816.7,736.5v0.3c0,3.1,1.5,5.1,4.1,5.1c1.8,0,3-0.6,4.4-1.7l2,3.2c-1.8,1.4-3.9,2.3-6.6,2.3
		c-5.1,0-8.2-3.4-8.2-8.8c0-3.7,1.5-7.4,3.9-9.8c1.8-1.8,4-3,6.8-3c4.4,0,7.1,3.2,7.1,7.6c0,1.4-0.2,3-0.9,4.8L816.7,736.5
		L816.7,736.5z M817.2,733.5h8.6c0.2-0.7,0.2-1.2,0.2-2c0-2-1-3.6-3.2-3.6c-1.3,0-2.5,0.6-3.4,1.5
		C818.5,730.4,817.7,731.8,817.2,733.5z"/>
	<path class="st9" d="M833.7,724.5h4.7l0.8,15.2l7.5-15.2h4.9l-11.5,21.1c-2.2,4-4.1,5.6-7,5.6c-1.7,0-3.2-0.6-4.3-1.6l2.2-3.2
		c0.7,0.5,1.4,0.9,2.1,0.9c0.9,0,1.6-0.5,2.4-1.9L833.7,724.5z"/>
	<path class="st9" d="M849.8,740.7l3.6-3c2,2.4,4,3.8,6.5,3.8c2.3,0,3.9-1.5,3.9-3.4c0-1.4-0.9-2.6-3.9-4.6
		c-3.6-2.5-5.5-4.6-5.5-7.6c0-2.3,0.9-4.2,2.2-5.5c1.7-1.7,4-2.7,6.7-2.7c3.9,0,6.7,1.8,8.7,4l-3.3,3.2c-1.8-1.9-3.5-3.1-5.6-3.1
		c-2.4,0-3.8,1.6-3.8,3.2c0,1.5,0.9,2.6,4,4.7c3.4,2.3,5.4,4.4,5.4,7.7c0,2.3-0.9,4.2-2.3,5.7c-1.6,1.6-4.2,2.6-6.8,2.6
		C855.5,745.6,852.1,743.7,849.8,740.7z"/>
	<path class="st9" d="M872.5,740.2c0-1,0.2-2.4,0.6-3.9l2.8-11.8h4.6l-2.9,11.8c-0.2,1-0.4,1.9-0.4,2.4c0,1.7,0.9,2.7,2.7,2.7
		c2.2,0,4-1.9,4.5-4.5l3-12.4h4.6l-5.1,20.7h-4.6l0.6-2.4c-1.3,1.5-3.1,2.8-5.4,2.8C874.6,745.6,872.5,743.6,872.5,740.2z"/>
	<path class="st9" d="M897.4,741.8l-0.8,3.4H892l6.8-28.1h4.6L901,727c1.6-1.8,3.3-3,5.6-3c3.6,0,6.5,3,6.5,8.3
		c0,4-1.4,7.9-3.9,10.4c-1.8,1.7-3.9,2.7-6.2,2.7C900.2,745.6,898.4,744,897.4,741.8z M905.6,740.2c1.7-1.7,2.7-4.5,2.7-7.4
		c0-3-1.3-4.8-3.7-4.8c-1.3,0-2.5,0.5-3.5,1.6c-1.7,1.7-2.7,4.6-2.7,7.3c0,2.9,1.6,4.7,3.9,4.7C903.5,741.6,904.7,741.2,905.6,740.2
		z"/>
	<path class="st9" d="M916.2,741.6c0-0.8,0.2-1.7,0.4-2.5l2.6-10.7h-2.3l1-4h2.3l1.3-5.4h4.6l-1.3,5.4h4.3l-1,4h-4.2l-2.6,10.7
		c-0.1,0.4-0.1,0.8-0.1,1c0,0.8,0.6,1.2,1.6,1.2c0.8,0,1.7-0.2,2.5-0.6l-1,4c-0.9,0.5-2.2,0.7-3.5,0.7
		C917.9,745.5,916.2,744,916.2,741.6z"/>
	<path class="st9" d="M933,724.5h4.6l-0.9,3.7c1.8-2.6,3.8-4.3,7-4.1l-1.3,4.8h-0.3c-3.5,0-6.1,2-7.3,6.8l-2.3,9.5H928L933,724.5z"
		/>
	<path class="st9" d="M941.5,740.1c0-2.1,0.7-4,2.1-5.4c1.4-1.4,3.6-2.2,6-2.2c1.9,0,3.6,0.4,5.1,1l0.1-0.5c0.2-0.7,0.3-1.4,0.3-2.1
		c0-1.6-1-2.7-3.6-2.7c-1.6,0-3.1,0.4-4.6,1.1l-1.1-3.7c1.8-0.8,3.9-1.3,6.4-1.3c4.8,0,7.4,2.1,7.4,5.7c0,1.2-0.2,2.4-0.6,3.8
		l-2.7,11.5h-4.5l0.6-2.5c-1.5,1.8-3.3,2.9-5.6,2.9C943.6,745.6,941.5,743.4,941.5,740.1z M953.7,737.8l0.4-1.7
		c-1-0.4-2.4-0.7-3.7-0.7c-1.4,0-2.4,0.4-3.2,1.2c-0.7,0.7-1.2,1.9-1.2,3.1c0,1.6,1,2.7,2.7,2.7
		C951.2,742.3,953.1,740.2,953.7,737.8z"/>
	<path class="st9" d="M962.4,737.1c0-3.8,1.5-7.5,3.9-9.9c1.9-1.9,4.2-3,7-3c3.6,0,5.5,1.6,6.8,3.7l-3.4,2.7
		c-0.9-1.4-1.9-2.4-3.5-2.4c-1.3,0-2.4,0.6-3.3,1.5c-1.7,1.7-2.8,4.7-2.8,7.3c0,3.1,1.6,4.7,3.7,4.7c1.5,0,2.5-0.7,3.8-1.8l2.3,3
		c-1.6,1.5-3.6,2.7-6.4,2.7C965.7,745.6,962.4,742.4,962.4,737.1z"/>
	<path class="st9" d="M981,741.6c0-0.8,0.2-1.7,0.4-2.5l2.6-10.7h-2.3l1-4h2.3l1.3-5.4h4.6l-1.3,5.4h4.3l-1,4h-4.2l-2.6,10.7
		c-0.1,0.4-0.1,0.8-0.1,1c0,0.8,0.6,1.2,1.6,1.2c0.8,0,1.7-0.2,2.5-0.6l-1,4c-0.9,0.5-2.2,0.7-3.5,0.7
		C982.7,745.5,981,744,981,741.6z"/>
	<path class="st9" d="M998.1,736.5v0.3c0,3.1,1.5,5.1,4.1,5.1c1.8,0,3-0.6,4.4-1.7l2,3.2c-1.8,1.4-3.9,2.3-6.6,2.3
		c-5.1,0-8.2-3.4-8.2-8.8c0-3.7,1.5-7.4,3.9-9.8c1.8-1.8,4-3,6.8-3c4.4,0,7.1,3.2,7.1,7.6c0,1.4-0.2,3-0.9,4.8L998.1,736.5
		L998.1,736.5z M998.6,733.5h8.6c0.2-0.7,0.2-1.2,0.2-2c0-2-1-3.6-3.2-3.6c-1.3,0-2.5,0.6-3.4,1.5
		C999.8,730.4,999,731.8,998.6,733.5z"/>
	<path class="st9" d="M1026.1,742.7c-1.6,1.7-3.3,2.9-5.6,2.9c-3.6,0-6.5-3-6.5-8.3c0-3.9,1.4-7.9,3.9-10.4c1.8-1.7,3.9-2.7,6.2-2.7
		c2.8,0,4.6,1.6,5.6,3.7l2.6-10.7h4.6l-6.9,28.1h-4.6L1026.1,742.7z M1026,740.1c1.7-1.7,2.7-4.6,2.7-7.3c0-2.9-1.6-4.7-3.9-4.7
		c-1.1,0-2.3,0.5-3.3,1.4c-1.7,1.7-2.7,4.5-2.7,7.4c0,3,1.3,4.8,3.7,4.8C1023.7,741.6,1024.9,741.1,1026,740.1z"/>
	<path class="st9" d="M1061.4,715.6l-0.7,2.8c2.3,0.7,4.2,1.9,5.5,3.3l-3.2,3.2c-1-1-2.2-1.8-3.5-2.3l-1.9,7.3
		c3.4,1.8,5.5,4,5.5,7.1c0,5-4,8.4-9.5,8.4h-0.1l-1.1,3.7h-3.2l1.2-4.1c-2.8-0.7-5.2-2.1-6.8-4.2l3.4-3c1.4,1.6,3,2.7,4.7,3.2l2-7.8
		c-3.4-1.8-5.5-3.7-5.5-7.2c0-4.6,3.7-8,9.3-8h0.2l0.7-2.3h3V715.6z M1054.9,728.4l1.7-6.5c-2.4,0.1-3.8,1.7-3.8,3.4
		C1052.9,726.4,1053.2,727.3,1054.9,728.4z M1056.2,734.5l-1.8,6.8c2.3-0.2,3.8-1.9,3.8-3.9C1058.2,736.3,1057.7,735.5,1056.2,734.5
		z"/>
	<path class="st9" d="M1073.5,723l-4.4,1.2V720l7-2.2h3.3l-6.7,27.4h-4.7L1073.5,723z"/>
	<path class="st9" d="M1102.8,727.8c0,4.9-1.8,11.2-5.3,14.7c-2,2-4.5,3.2-7.5,3.2c-5.3,0-8.7-3.8-8.7-10.2c0-5,1.8-11.2,5.3-14.7
		c2-2,4.5-3.2,7.4-3.2C1099.3,717.6,1102.8,721.4,1102.8,727.8z M1093.8,739.8c2.6-2.6,4.1-8.1,4.1-12c0-4-1.6-6-4.2-6
		c-1.3,0-2.5,0.6-3.5,1.6c-2.6,2.6-4.1,8.1-4.1,12c0,4,1.6,6,4.2,6C1091.6,741.4,1092.8,740.8,1093.8,739.8z"/>
	<path class="st9" d="M1126.9,727.8c0,4.9-1.8,11.2-5.3,14.7c-2,2-4.5,3.2-7.5,3.2c-5.3,0-8.7-3.8-8.7-10.2c0-5,1.8-11.2,5.3-14.7
		c2-2,4.5-3.2,7.4-3.2C1123.4,717.6,1126.9,721.4,1126.9,727.8z M1118,739.8c2.6-2.6,4.1-8.1,4.1-12c0-4-1.6-6-4.2-6
		c-1.3,0-2.5,0.6-3.5,1.6c-2.6,2.6-4.1,8.1-4.1,12c0,4,1.6,6,4.2,6C1115.7,741.4,1116.9,740.8,1118,739.8z"/>
	<path class="st9" d="M1151.1,727.8c0,4.9-1.8,11.2-5.3,14.7c-2,2-4.5,3.2-7.5,3.2c-5.3,0-8.7-3.8-8.7-10.2c0-5,1.8-11.2,5.3-14.7
		c2-2,4.5-3.2,7.4-3.2C1147.6,717.6,1151.1,721.4,1151.1,727.8z M1142.1,739.8c2.6-2.6,4.1-8.1,4.1-12c0-4-1.6-6-4.2-6
		c-1.3,0-2.5,0.6-3.5,1.6c-2.6,2.6-4.1,8.1-4.1,12c0,4,1.6,6,4.2,6C1139.9,741.4,1141.1,740.8,1142.1,739.8z"/>
</g>
</svg>
