<?xml version="1.0" encoding="utf-8"?>
<!-- Generator: Adobe Illustrator 23.0.3, SVG Export Plug-In . SVG Version: 6.00 Build 0)  -->
<svg version="1.1" id="Layer_1" xmlns="http://www.w3.org/2000/svg" xmlns:xlink="http://www.w3.org/1999/xlink" x="0px" y="0px"
	 viewBox="0 0 2048 1348" style="enable-background:new 0 0 2048 1348;" xml:space="preserve">
<style type="text/css">
	.st0{fill:#FFFFFF;}
	.st1{opacity:0.5;}
	.st2{fill:#DEE1E0;}
	.st3{fill:#197593;}
	.st4{opacity:0.25;}
	.st5{fill:#CAE1E8;}
	.st6{opacity:0.35;}
	.st7{fill:#004966;}
	.st8{opacity:0.48;}
	.st9{fill:#DD9099;}
	.st10{fill:#0A9181;}
	.st11{opacity:0.1;}
</style>
<g>
	<rect class="st0" width="2048" height="1348.1"/>
</g>
<g id="_x30_7">
	<g class="st1">
		<path class="st2" d="M1847.9,542.1c-2.2-6.1-73.3-146.7-73.3-146.7s-259-76-273-76.1c-7.3,0-71.7,45.4-152.4,30.7
			c-39,24.5-81,30.4-126.4,7.9c-4.2-2.1-7.4-5.4-11-8.5c-5-4.3-7.9-10.6-7.8-15.7c0.2-26.3,1.9-83.3,0-85.8V225
			c0,0-51.8,2.2-53.3,2.2c-11.2,0.1-14.3,4-14.9,9.1L1236,536c0,0,1.9,9.1,13,9.2c11.1,0,581.5,4,581.5,4S1850.1,548.2,1847.9,542.1
			z"/>
	</g>
	<g>
		<g>
			<g>
				<path class="st3" d="M1289.6,112.2c-21.5,0-46.3-3.4-65.3-18c-8.8-6.7-17.6-18.7-13.5-30.5c4.3-12.5,44.7-20.4,53.1-21.1l0,0
					c72.2-6.4,117.7-0.3,131.6,17.8c5.2,6.8,6.1,15.2,2.6,25c-4.3,12-20.1,15.4-28.6,17.2c-19.7,4.3-40,7.2-60.1,8.8
					C1303.3,111.8,1296.6,112.2,1289.6,112.2z M1264,45.5c-13.5,1.2-47.4,9.9-50.6,19.2C1209.9,75,1218,85.9,1226,92
					c24.5,18.7,59.1,18.4,83.1,16.6c20-1.5,40.1-4.5,59.7-8.7c11-2.4,23.1-5.7,26.5-15.4c3.2-9,2.5-16.2-2.2-22.3
					C1383.9,50.1,1353.9,37.5,1264,45.5L1264,45.5z"/>
			</g>
		</g>
		<g class="st4">
			<g>
				<path class="st5" d="M1259.4,37c-12.1,1.1-51.2,10.5-55,23.1c-3.8,12.5,4.6,25.9,14.2,34c24.9,21.1,58.7,23,89.7,20.6
					c21.4-1.6,42.8-4.9,63.8-9.7c11.5-2.6,25.3-6.6,29.2-18.9C1421.1,23.7,1291.9,34.1,1259.4,37z"/>
			</g>
		</g>
		<g>
			<g>
				<path class="st3" d="M1288.2,365.8c-24.6,0-49.1-5.4-71.4-16.4c-4.2-2.1-8.8-4.6-11.6-9c-3-4.9-3-10.9-2.9-15.8l1.9-249.9
					c0-0.8,0.6-1.4,1.4-1.4l0,0c0.8,0,1.4,0.6,1.4,1.4l-1.9,249.9c0,4.5-0.1,10.1,2.5,14.3c2.3,3.8,6.6,6.1,10.4,8
					c57,28.3,132.3,17.6,179.3-25.3l0.5-7.3c5.2-74.8,11.2-159.6,1.2-234.5c-0.1-0.8,0.4-1.5,1.2-1.6c0.8-0.1,1.5,0.4,1.6,1.2
					c10,75.2,4.1,160.2-1.2,235.1l-0.6,8.4l-0.4,0.4C1369.4,351.1,1328.8,365.8,1288.2,365.8z"/>
			</g>
		</g>
		<g class="st4">
			<g>
				<path class="st5" d="M1377.5,114.8c-21,4.8-42.3,8-63.8,9.7c-31.1,2.4-64.8,0.5-89.7-20.6c-5.3-4.5-10.2-10.6-12.9-17.2
					c-0.6,82.5-1.3,165.1-1.9,247.6c0,5.2,0,10.7,2.7,15c2.5,4,6.8,6.4,11,8.5c58.1,28.8,110.9,11.1,158.6-32.8
					C1386.8,249.1,1389.1,112.2,1377.5,114.8z"/>
			</g>
		</g>
		<g class="st6">
			<g>
				<path class="st5" d="M1377.5,240.7c-21,4.8-42.2,49.9-63.8,49.9c-95.4,0-99.9-71.4-102.7-78.1c-0.6,82.5-1.3,30.6-1.9,113.1
					c0,5.2,0,10.7,2.7,15c2.5,4,6.8,6.4,11,8.5c58.1,28.8,110.9,11.1,158.6-32.8C1386.8,240.5,1389.1,238.1,1377.5,240.7z"/>
			</g>
		</g>
	</g>
	<g>
		<g class="st1">
			<path class="st2" d="M82.1,305.1l37.6,104.3c0,0,4.1,10.2,17.7,9.3C151,417.9,497,383.6,497,383.6s23.7-2.7,19.9-9.4
				c-3.9-6.7-44.4-103.9-44.4-103.9s-4-9-21-7.9c-16.5,1.1-334.8,29.9-353.1,31.3C84.9,294.6,81.7,299.4,82.1,305.1z"/>
		</g>
		<g>
			<path class="st0" d="M125.7,85.4l27.6,282c0,0,3.1,27.6,15.3,27.6s324.9-30.7,324.9-30.7s21.5-3.1,18.4-21.5s-33.7-282-33.7-282
				s-3.1-24.5-18.4-24.5c-14.9,0-302.3,21-318.8,21.5C128.8,58.1,125.7,70.1,125.7,85.4z"/>
			<path class="st3" d="M168.6,397.2c-13.8,0-17.1-26.5-17.5-29.5L123.6,85.4c0-12.6,1.8-29.4,17.4-29.7c7.4-0.2,71.2-4.7,138.6-9.4
				c84.4-5.9,171.6-12.1,180.2-12.1c0,0,0,0,0.1,0c17,0.1,20.4,25.3,20.5,26.4c0.3,2.7,30.7,263.8,33.7,281.9
				c0.9,5.5-0.1,10.4-3,14.4c-5.7,7.8-16.7,9.5-17.2,9.6C481,367.8,180.9,397.2,168.6,397.2z M127.9,85.3l27.6,281.9
				c0.8,7.1,4.7,25.6,13.2,25.6c12,0,321.6-30.3,324.7-30.6c0,0,9.6-1.5,14.2-7.8c2.2-3,3-6.8,2.2-11.1
				c-3-18.2-32.5-271.3-33.7-282.1c0-0.2-3-22.6-16.3-22.6l0,0c-8.3,0-99.4,6.4-179.8,12c-67.5,4.7-131.3,9.2-138.8,9.4
				C132,60.2,127.9,68,127.9,85.3z"/>
		</g>
		<g class="st1">
			<path class="st5" d="M487.4,73c-1.2-11.6-1.9-14.6-1.9-14.6s-3.1-28.2-18.5-28.2S159.5,54.9,147.2,54.9S131.9,69,131.9,86.7
				l1.5,14.1C214.9,93.6,385.2,80.7,487.4,73z"/>
		</g>
		<g>
			<g>
				<path class="st5" d="M156.9,84.4l-8.1,0.6c-0.7,0-1.3-0.5-1.3-1.1l-0.6-8.1c0-0.7,0.5-1.3,1.1-1.3l8.1-0.6
					c0.7,0,1.3,0.5,1.3,1.1l0.6,8.1C158.1,83.8,157.6,84.4,156.9,84.4z"/>
			</g>
			<g>
				<path class="st5" d="M174.4,83.2l-8.1,0.6c-0.7,0-1.3-0.5-1.3-1.1l-0.6-8.1c0-0.7,0.5-1.3,1.1-1.3l8.1-0.6
					c0.7,0,1.3,0.5,1.3,1.1l0.6,8.1C175.6,82.6,175.1,83.1,174.4,83.2z"/>
			</g>
			<g>
				<path class="st5" d="M191.9,82l-8.1,0.6c-0.7,0-1.3-0.5-1.3-1.1l-0.6-8.1c0-0.7,0.5-1.3,1.1-1.3l8.1-0.6c0.7,0,1.3,0.5,1.3,1.1
					l0.6,8.1C193.1,81.3,192.6,81.9,191.9,82z"/>
			</g>
		</g>
	</g>
	<g>
		<g>
			<path class="st0" d="M1858.6,531.7h-604.3c-2.5,0-4.6-2.1-4.6-4.6V151.3c0-2.5,2.1-4.6,4.6-4.6h604.3c2.5,0,4.6,2.1,4.6,4.6
				v375.8C1863.2,529.6,1861.2,531.7,1858.6,531.7z"/>
		</g>
		<g>
			<path class="st3" d="M1843.3,533.6h-573.6c-12.2,0-22.1-8.8-22.1-19.5V164.3c0-10.8,9.9-19.5,22.1-19.5h573.6
				c12.2,0,22.1,8.8,22.1,19.5v349.8C1865.4,524.8,1855.5,533.6,1843.3,533.6z M1269.7,148.6c-9.8,0-17.8,7.1-17.8,15.7v349.8
				c0,8.7,8,15.7,17.8,15.7h573.6c9.8,0,17.8-7.1,17.8-15.7V164.3c0-8.7-8-15.7-17.8-15.7H1269.7z"/>
		</g>
	</g>
	<g>
		<path class="st7" d="M286.9,190.7h9.5l17.4,48.7h-10.4l-3.6-10.5h-16.7l-3.5,10.5h-10.1L286.9,190.7z M296.8,220l-5.3-15.8
			l-5.3,15.8H296.8z"/>
		<path class="st7" d="M319.8,190.9h16.1c10.9,0,17.7,6.3,17.7,16.6v0.1c0,11.1-8,16.7-18.1,16.9h-5.7v14.7h-10V190.9z M335.4,215.6
			c5.2,0,8.1-3.2,8.1-7.7v-0.1c0-5.1-2.9-7.8-8.2-7.8h-5.5v15.6H335.4z"/>
		<path class="st7" d="M360.2,190.9h16.1c10.9,0,17.7,6.3,17.7,16.6v0.1c0,11.1-8,16.7-18.1,16.9h-5.7v14.7h-10V190.9z M375.8,215.6
			c5.2,0,8.1-3.2,8.1-7.7v-0.1c0-5.1-2.9-7.8-8.2-7.8h-5.5v15.6H375.8z"/>
	</g>
	<g>
		<path class="st7" d="M589.2,623h16.1c10.9,0,17.7,6.3,17.7,16.6v0.1c0,11.1-8,16.7-18.1,16.9h-5.7v14.7h-10V623z M604.9,647.7
			c5.2,0,8.1-3.2,8.1-7.7v-0.1c0-5.1-2.9-7.8-8.2-7.8h-5.5v15.6H604.9z"/>
		<path class="st7" d="M629.6,623h18.2c5.6,0,10.1,1.6,13.1,4.6c2.6,2.6,4.1,6.4,4.1,11.2v0.3c0,7.3-3.7,12-9,14.3l10.3,18h-11.5
			l-8.9-15.9h-6.3v15.9h-10L629.6,623L629.6,623z M647,646.7c5.1,0,7.9-2.9,7.9-7.3v-0.1c0-4.8-3-7.3-8.1-7.3h-7.2v14.6L647,646.7
			L647,646.7z"/>
		<path class="st7" d="M671.2,647.7v-0.8c0-14.5,9.1-24.7,21.9-24.7c12.9,0,21.9,10.1,21.9,24.6v0.8c0,14.5-9.1,24.7-21.9,24.7
			C680.2,672.3,671.2,662.2,671.2,647.7z M704.6,647.5V647c0-9.5-4.8-15.6-11.5-15.6c-6.8,0-11.5,5.9-11.5,15.5v0.5
			c0,9.5,4.9,15.6,11.6,15.6C699.8,663,704.6,657,704.6,647.5z"/>
		<path class="st7" d="M716.7,665.9l6.1-7.1c2,2.3,4.1,3.8,6.8,3.8c3.4,0,5.5-2.1,5.5-7.1V623h10.1v33c0,5.4-1.5,9.3-4.2,12
			c-2.6,2.6-6.5,4-11.1,4C724,672.1,719.5,669.4,716.7,665.9z"/>
		<path class="st7" d="M754.4,623h31.2v9.1h-21.2v10.4H783v9.1h-18.7v10.8h21.5v9.1h-31.5V623H754.4z"/>
		<path class="st7" d="M791.8,647.6V647c0-14.7,9.1-24.6,21.9-24.6c7.2,0,11.8,2.6,15.6,6.4l-6,7.7c-2.9-3-5.9-4.8-9.9-4.8
			c-6.5,0-11.3,6-11.3,15.4v0.2c0,9.6,5,15.5,11.4,15.5c3.9,0,6.7-1.8,10-5l6,7.1c-4.4,4.5-9,7.3-16.4,7.3
			C800.4,672.1,791.8,662.4,791.8,647.6z"/>
		<path class="st7" d="M845.6,632.3h-12.2V623h34.3v9.3h-12.2v39.1h-10v-39.1H845.6z"/>
		<path class="st7" d="M870.9,647.7v-0.8c0-14.5,9.1-24.7,21.9-24.7c12.9,0,21.9,10.1,21.9,24.6v0.8c0,14.5-9.1,24.7-21.9,24.7
			C879.9,672.3,870.9,662.2,870.9,647.7z M904.3,647.5V647c0-9.5-4.8-15.6-11.5-15.6c-6.8,0-11.5,5.9-11.5,15.5v0.5
			c0,9.5,4.9,15.6,11.6,15.6C899.5,663,904.3,657,904.3,647.5z"/>
		<path class="st7" d="M922.6,623h18.2c5.6,0,10.1,1.6,13.1,4.6c2.6,2.6,4.1,6.4,4.1,11.2v0.3c0,7.3-3.7,12-9,14.3l10.3,18h-11.5
			l-8.9-15.9h-6.3v15.9h-10L922.6,623L922.6,623z M940,646.7c5.1,0,7.9-2.9,7.9-7.3v-0.1c0-4.8-3-7.3-8.1-7.3h-7.2v14.6L940,646.7
			L940,646.7z"/>
	</g>
	<g>
		<path class="st7" d="M584.2,968.7h16.1c10.9,0,17.7,6.3,17.7,16.6v0.1c0,11.1-8,16.7-18.1,16.9h-5.7v14.7h-10V968.7z M599.9,993.4
			c5.2,0,8.1-3.2,8.1-7.7v-0.1c0-5.1-2.9-7.8-8.2-7.8h-5.5v15.6H599.9z"/>
		<path class="st7" d="M624.6,968.7h18.2c5.6,0,10.1,1.6,13.1,4.6c2.6,2.6,4.1,6.4,4.1,11.2v0.3c0,7.3-3.7,12-9,14.3l10.3,18h-11.5
			l-8.9-15.9h-6.3v15.9h-10L624.6,968.7L624.6,968.7z M642.1,992.3c5.1,0,7.9-2.9,7.9-7.3l0,0c0-4.8-3-7.3-8.1-7.3h-7.2v14.6H642.1z
			"/>
		<path class="st7" d="M666.2,993.4v-0.8c0-14.5,9.1-24.7,21.9-24.7c12.9,0,21.9,10.1,21.9,24.6v0.8c0,14.5-9.1,24.7-21.9,24.7
			C675.2,1017.9,666.2,1007.8,666.2,993.4z M699.6,993.2v-0.5c0-9.5-4.8-15.6-11.5-15.6c-6.8,0-11.5,5.9-11.5,15.5v0.5
			c0,9.5,4.9,15.6,11.6,15.6C694.9,1008.6,699.6,1002.7,699.6,993.2z"/>
		<path class="st7" d="M711.7,1011.5l6.1-7.1c2,2.3,4.1,3.8,6.8,3.8c3.4,0,5.5-2.1,5.5-7.1v-32.5h10.1v33c0,5.4-1.5,9.3-4.2,12
			c-2.6,2.6-6.5,4-11.1,4C719.1,1017.7,714.6,1015,711.7,1011.5z"/>
		<path class="st7" d="M749.4,968.7h31.2v9.1h-21.2v10.4H778v9.1h-18.7v10.8h21.5v9.1h-31.5v-48.5H749.4z"/>
		<path class="st7" d="M786.8,993.2v-0.6c0-14.7,9.1-24.6,21.9-24.6c7.2,0,11.8,2.6,15.6,6.4l-6,7.7c-2.9-3-5.9-4.8-9.9-4.8
			c-6.5,0-11.3,6-11.3,15.4v0.2c0,9.6,5,15.5,11.4,15.5c3.9,0,6.7-1.8,10-5l6,7.1c-4.4,4.5-9,7.3-16.4,7.3
			C795.4,1017.8,786.8,1008,786.8,993.2z"/>
		<path class="st7" d="M840.6,977.9h-12.2v-9.3h34.3v9.3h-12.2v39.1h-10v-39.1H840.6z"/>
		<path class="st7" d="M865.9,993.4v-0.8c0-14.5,9.1-24.7,21.9-24.7c12.9,0,21.9,10.1,21.9,24.6v0.8c0,14.5-9.1,24.7-21.9,24.7
			C874.9,1017.9,865.9,1007.8,865.9,993.4z M899.3,993.2v-0.5c0-9.5-4.8-15.6-11.5-15.6c-6.8,0-11.5,5.9-11.5,15.5v0.5
			c0,9.5,4.9,15.6,11.6,15.6C894.5,1008.6,899.3,1002.7,899.3,993.2z"/>
		<path class="st7" d="M917.6,968.7h18.2c5.6,0,10.1,1.6,13.1,4.6c2.6,2.6,4.1,6.4,4.1,11.2v0.3c0,7.3-3.7,12-9,14.3l10.3,18h-11.5
			l-8.9-15.9h-6.3v15.9h-10L917.6,968.7L917.6,968.7z M935,992.3c5.1,0,7.9-2.9,7.9-7.3l0,0c0-4.8-3-7.3-8.1-7.3h-7.2v14.6H935z"/>
		<path class="st7" d="M974.6,1009l14.2-14.7c5.1-5.3,7-7.9,7-11.4c0-3.7-2.5-5.7-5.8-5.7c-3.4,0-5.7,1.9-8.9,5.7l-6.5-6.2
			c4.2-5.7,9.1-8.8,16.1-8.8c8.9,0,15.2,5.3,15.2,14.1v0.1c0,6.8-3.1,10.6-10.3,17.6l-8.1,8.2h18.5v9h-31.5L974.6,1009L974.6,1009z"
			/>
	</g>
	<g class="st1">
		<path class="st5" d="M1835.1,153.4h-561.6c-9.5,0-17.3,7.4-17.3,16.4v48.4h596.3v-48.4C1852.4,160.8,1844.7,153.4,1835.1,153.4z"
			/>
	</g>
	<g class="st8">
		<g>
			<path class="st7" d="M1404.9,198.1l3-3.8c2.3,2,4.8,3.6,8,3.6c2.9,0,4.8-1.6,4.8-3.9l0,0c0-1.9-1-3.2-5.8-5
				c-5.8-2.2-8.8-4.3-8.8-9.2v-0.1c0-5,4-8.5,9.7-8.5c3.5,0,6.8,1.1,9.6,3.6l-2.9,3.9c-2.1-1.7-4.4-2.9-6.8-2.9
				c-2.7,0-4.4,1.5-4.4,3.5l0,0c0,2.1,1.1,3.3,6.3,5.3c5.7,2.2,8.3,4.5,8.3,9v0.1c0,5.4-4.2,8.8-9.9,8.8
				C1412,202.5,1408.2,201.2,1404.9,198.1z"/>
			<path class="st7" d="M1436.4,176.4h-8v-4.7h21.1v4.7h-8v25.8h-5L1436.4,176.4L1436.4,176.4z"/>
			<path class="st7" d="M1451.7,187.1v-0.4c0-9.1,5.6-15.5,13.5-15.5s13.4,6.4,13.4,15.4v0.4c0,9.1-5.6,15.5-13.5,15.5
				C1457.2,202.6,1451.7,196.2,1451.7,187.1z M1473.4,187.1v-0.3c0-6.5-3.5-10.9-8.3-10.9s-8.2,4.3-8.2,10.9v0.3
				c0,6.5,3.5,10.9,8.3,10.9C1470,197.9,1473.4,193.6,1473.4,187.1z"/>
			<path class="st7" d="M1484.1,171.7h11c3.5,0,6.3,1,8.1,2.9c1.6,1.6,2.5,3.9,2.5,6.7v0.2c0,4.7-2.6,7.6-6.3,8.9l7.2,11.8h-5.8
				l-6.5-10.8c-0.1,0-0.2,0-0.3,0h-4.9v10.7h-5L1484.1,171.7L1484.1,171.7z M1494.6,186.8c3.9,0,6.1-2.1,6.1-5.3v-0.1
				c0-3.4-2.2-5.2-6-5.2h-5.5v10.6H1494.6z"/>
			<path class="st7" d="M1511.3,171.7h19.2v4.6h-14.2v8.3h12.6v4.6h-12.6v8.5h14.4v4.6h-19.4V171.7z"/>
			<path class="st7" d="M1536,171.7h9.3c8.7,0,14.4,6.1,14.4,15v0.3c0,8.9-5.7,15.1-14.4,15.1h-9.3V171.7z M1541,176.2v21.3h4.2
				c5.6,0,9.3-4,9.3-10.5v-0.3c0-6.6-3.7-10.6-9.3-10.6h-4.2V176.2z"/>
			<path class="st7" d="M1576.4,171.7h19.2v4.6h-14.2v8.3h12.6v4.6h-12.6v8.5h14.4v4.6h-19.4V171.7z"/>
			<path class="st7" d="M1598.9,171.7h5.5l7.5,23l7.5-23h5.3l-10.5,30.6h-4.7L1598.9,171.7z"/>
			<path class="st7" d="M1629,171.7h19.2v4.6H1634v8.3h12.6v4.6H1634v8.5h14.4v4.6H1629V171.7z"/>
			<path class="st7" d="M1653.7,171.7h4.7l13.4,20.3v-20.3h4.9v30.5h-4.3l-13.8-20.9v20.9h-5v-30.5H1653.7z"/>
			<path class="st7" d="M1689.4,176.4h-8v-4.7h21.1v4.7h-8v25.8h-5L1689.4,176.4L1689.4,176.4z"/>
			<path class="st7" d="M1704.5,198.1l3-3.8c2.3,2,4.8,3.6,8,3.6c2.9,0,4.8-1.6,4.8-3.9l0,0c0-1.9-1-3.2-5.8-5
				c-5.8-2.2-8.8-4.3-8.8-9.2v-0.1c0-5,4-8.5,9.7-8.5c3.5,0,6.8,1.1,9.6,3.6l-2.9,3.9c-2.1-1.7-4.4-2.9-6.8-2.9
				c-2.7,0-4.4,1.5-4.4,3.5l0,0c0,2.1,1.1,3.3,6.3,5.3c5.7,2.2,8.3,4.5,8.3,9v0.1c0,5.4-4.2,8.8-9.9,8.8
				C1711.6,202.5,1707.8,201.2,1704.5,198.1z"/>
		</g>
	</g>
	<g>
		<g class="st1">
			<path class="st2" d="M1414.2,894.9l40.1,142.8c0,0,4.6,15,18.7,15.8c14.3,0.8,444.3,6.7,444.3,6.7s35-0.2,27-12.4
				c-8-12.1-93-170.9-93-170.9s-7.6-13.6-29.9-13.2c-21.3,0.4-374.4,17.3-392,17.8C1416.6,881.9,1413.8,887.6,1414.2,894.9z"/>
		</g>
		<g>
			<g>
				<path class="st0" d="M1949.3,1037.2h-474.7c-2.5,0-4.6-2.1-4.6-4.6V656.8c0-2.5,2.1-4.6,4.6-4.6h474.7c2.5,0,4.6,2.1,4.6,4.6
					v375.8C1954,1035.1,1951.9,1037.2,1949.3,1037.2z"/>
			</g>
			<g>
				<path class="st9" d="M1934,1039.1h-444c-12.2,0-22.1-8.8-22.1-19.5V669.8c0-10.8,9.9-19.5,22.1-19.5h444
					c12.2,0,22.1,8.8,22.1,19.5v349.8C1956.1,1030.4,1946.2,1039.1,1934,1039.1z M1490,654.1c-9.8,0-17.8,7.1-17.8,15.7v349.8
					c0,8.7,8,15.7,17.8,15.7h444c9.8,0,17.8-7.1,17.8-15.7V669.8c0-8.7-8-15.7-17.8-15.7H1490z"/>
			</g>
		</g>
		<g class="st4">
			<path class="st9" d="M1925.9,658.9h-432c-9.5,0-17.3,7.4-17.3,16.4v48.4h466.6v-48.4C1943.2,666.3,1935.4,658.9,1925.9,658.9z"/>
		</g>
	</g>
	<g>
		<g>
			<path class="st10" d="M673.5,241.3c-5.6,0-11.2,0-16.8-0.1l0.1-4.3c8.1,0.1,16.2,0.1,24.5,0.1v4.3
				C678.7,241.3,676.1,241.3,673.5,241.3z M693.6,241.2l-0.1-4.3c10-0.1,20.3-0.4,30.6-0.8l0.2,4.3
				C713.9,240.8,703.6,241,693.6,241.2z M645.1,241c-7.8-0.2-15.6-0.4-23.3-0.8l0.2-4.3c7.7,0.3,15.4,0.6,23.2,0.8L645.1,241z
				 M734.6,240l-0.2-4.3c7.7-0.3,15.5-0.7,23.2-1.1l0.2,4.3C750.1,239.3,742.4,239.7,734.6,240z M611.4,239.7
				c-10.5-0.6-20.8-1.3-30.6-2.2l0.4-4.3c9.8,0.9,20,1.6,30.5,2.2L611.4,239.7z M769.5,238.2l-0.3-4.3c8.1-0.5,16.3-1.1,24.4-1.7
				l0.3,4.3C785.9,237.1,777.7,237.7,769.5,238.2z M568.5,236.2c-8.4-0.9-16.6-1.9-24.4-3.1l0.6-4.3c7.8,1.1,15.9,2.1,24.2,3
				L568.5,236.2z M806.3,235.5l-0.4-4.3c10.2-0.8,20.4-1.7,30.5-2.7l0.4,4.3C826.7,233.8,816.5,234.7,806.3,235.5z M847.3,231.8
				l-0.4-4.3c7.8-0.8,15.5-1.6,23.1-2.4l0.5,4.3C862.8,230.2,855,231.1,847.3,231.8z M532.6,231.4c-7.9-1.3-15.6-2.7-23-4.3l0.9-4.2
				c7.3,1.5,15,3,22.8,4.2L532.6,231.4z M882,228.1l-0.5-4.3c8.2-0.9,16.3-1.9,24.3-2.9l0.5,4.3C898.3,226.2,890.2,227.2,882,228.1z
				 M499.4,224.9c-10.4-2.4-20.4-5.1-29.7-8.1l1.3-4.1c9.2,2.9,19.1,5.6,29.4,8L499.4,224.9z M918.5,223.6l-0.6-4.3
				c10.3-1.3,20.4-2.7,30.3-4.1l0.6,4.3C939,220.9,928.8,222.3,918.5,223.6z M959.3,218l-0.6-4.3c7.8-1.1,15.5-2.3,23-3.4l0.7,4.3
				C974.7,215.8,967.1,216.9,959.3,218z M993.8,212.8l-0.7-4.3c8.2-1.3,16.3-2.6,24.2-3.9l0.7,4.3
				C1010.2,210.2,1002.1,211.5,993.8,212.8z M458.1,212.8c-8-2.9-15.7-6.1-22.8-9.4l1.8-3.9c7,3.3,14.5,6.4,22.4,9.3L458.1,212.8z
				 M1030.1,206.9l-0.7-4.3c10.4-1.8,20.5-3.6,30.2-5.3l0.8,4.3C1050.7,203.3,1040.6,205.1,1030.1,206.9z M1070.6,199.7l-0.8-4.2
				c8-1.5,15.6-2.9,22.9-4.3l0.8,4.2C1086.2,196.8,1078.6,198.2,1070.6,199.7z M1104.9,193.1l-0.8-4.2c8.6-1.7,16.6-3.4,24-4.9
				l0.9,4.2C1121.6,189.7,1113.6,191.4,1104.9,193.1z M1141,185.5l-0.9-4.2c10.5-2.3,19.8-4.5,27-6.3l1.1,4.2
				C1160.9,181.1,1151.5,183.2,1141,185.5z"/>
		</g>
		<g>
			<path class="st10" d="M1148.7,216.2c-0.4,0-0.7-0.1-1.1-0.3c-1-0.6-1.4-1.9-0.8-2.9l20.8-37l-34.3-25.1c-1-0.7-1.2-2.1-0.5-3
				c0.7-1,2.1-1.2,3-0.5l35.8,26.3c0.9,0.6,1.1,1.8,0.6,2.8l-21.7,38.7C1150.2,215.8,1149.4,216.2,1148.7,216.2z"/>
		</g>
	</g>
	<g class="st11">
		<circle class="st10" cx="809" cy="224.7" r="123.1"/>
	</g>
	<g class="st11">
		<circle class="st10" cx="809" cy="224.7" r="97.2"/>
	</g>
	<g>
		<circle class="st0" cx="809" cy="224.7" r="79.9"/>
	</g>
	<g>
		<path class="st10" d="M766.2,216h17.7l-1.4,5.4h-11.7l-1.3,5.8h10.3l-1.4,5.3h-10.3l-1.4,6h11.9l-1.4,5.4h-17.9L766.2,216z"/>
		<path class="st10" d="M784.4,222.3h6.1l0.2,14.2l6.9-14.2h6.3L791.6,244h-5.4L784.4,222.3z"/>
		<path class="st10" d="M808.1,235.2c0.1,2.7,1.3,4.3,3.5,4.3c1.6,0,2.6-0.5,4.1-1.6l2.5,4c-1.8,1.4-4.1,2.3-6.8,2.3
			c-5.6,0-8.8-3.6-8.8-9.4c0-3.7,1.5-7.4,4-9.9c1.9-1.9,4.2-3.1,7.2-3.1c4.6,0,7.6,3.3,7.6,8c0,1.4-0.3,3.2-1,5.3L808.1,235.2
			L808.1,235.2z M808.6,231.5h7.2c0.2-0.8,0.2-1.2,0.2-1.9c0-1.7-0.9-2.9-2.6-2.9c-1.1,0-2.1,0.5-2.9,1.3
			C809.6,228.8,809,230.1,808.6,231.5z"/>
		<path class="st10" d="M827.2,222.3h5.9l-0.5,2c1.2-1.2,2.9-2.3,5-2.3c3.1,0,5.2,2,5.2,5.5c0,1.1-0.3,2.7-0.7,4.3l-2.9,12.1h-6
			l2.9-12.1c0.2-1,0.4-1.9,0.4-2.3c0-1.4-0.7-2.1-2.1-2.1c-1.8,0-3,1.6-3.5,3.6l-3.1,12.9h-5.9L827.2,222.3z"/>
		<path class="st10" d="M845.3,240c0-0.9,0.2-1.8,0.4-2.8l2.4-9.8h-2.3l1.3-5.1h2.2l1.3-5.3h6l-1.3,5.3h3.8l-1.3,5.1h-3.7l-2.4,9.7
			c-0.1,0.4-0.1,0.7-0.1,0.9c0,0.5,0.4,0.9,1.2,0.9s1.8-0.2,2.5-0.6l-1.3,5c-1,0.5-2.5,0.8-4,0.8C846.9,244.1,845.3,242.4,845.3,240
			z"/>
	</g>
	<g>
		<path class="st3" d="M839.7,582.8l-3.5-2.5c4.6-6.5,10.1-12.7,16.6-18.6l2.9,3.2C849.4,570.6,844.1,576.6,839.7,582.8z
			 M864.4,557.6l-2.6-3.4c5.9-4.5,12.5-8.9,19.6-13l2.2,3.7C876.6,548.9,870.2,553.2,864.4,557.6z M892.6,540l-2-3.8
			c8.6-4.4,18.1-8.6,28.2-12.4l1.5,4C910.5,531.6,901.1,535.7,892.6,540z M931.9,523.7l-1.4-4.1c7.4-2.5,15.4-4.9,23.6-7.2l1.1,4.2
			C947.1,518.8,939.3,521.2,931.9,523.7z M966.5,513.6l-1-4.2c7.3-1.8,15-3.5,22.8-5.1l0.9,4.2C981.3,510.1,973.7,511.8,966.5,513.6
			z M999.3,506.5l-0.8-4.2c9.7-1.8,19.9-3.5,30.3-5l0.6,4.3C1019.1,503.1,1009,504.7,999.3,506.5z M1041.6,500l-0.5-4.3
			c8-1,16.2-1.9,24.4-2.8l0.4,4.3C1057.7,498,1049.5,498.9,1041.6,500z M1077.5,496.1l-0.4-4.3c8.1-0.7,15.8-1.3,23.3-1.7l0.3,4.3
			C1093.2,494.9,1085.5,495.5,1077.5,496.1z M1111,493.8l-0.2-4.3c10.3-0.5,20.6-0.9,30.7-1.2l0.1,4.3
			C1131.6,492.9,1121.3,493.3,1111,493.8z M1178.3,492.6c0,0-9.2-0.3-24.4-0.1v-4.3c15.4-0.2,24.6,0.1,24.6,0.1L1178.3,492.6z"/>
	</g>
	<g>
		<g>
			<path class="st3" d="M1412.9,810.8c-0.5,0-1-0.2-1.4-0.6c-0.9-0.8-1-2.2-0.2-3.1l28.4-31.6l-27.9-32.1c-0.8-0.9-0.7-2.3,0.2-3
				c0.9-0.8,2.3-0.7,3,0.2l30.4,34.9l-30.9,34.4C1414.1,810.5,1413.5,810.8,1412.9,810.8z"/>
		</g>
		<g>
			<path class="st3" d="M1374.5,781.2v-4.3c7.8,0,15.6-0.1,23.2-0.3l0.1,4.3C1390.1,781.1,1382.3,781.2,1374.5,781.2z M1364,781.2
				c-10.1-0.1-20.4-0.3-30.7-0.7l0.2-4.3c10.2,0.4,20.5,0.6,30.6,0.7L1364,781.2z M1409.4,780.5l-0.2-4.3c4.4-0.2,8.8-0.4,13.2-0.6
				l0.2,4.3C1418.2,780.1,1413.8,780.3,1409.4,780.5z M1321.1,780c-8.2-0.4-16.4-0.9-24.5-1.5l0.3-4.3c8.1,0.6,16.2,1.1,24.4,1.5
				L1321.1,780z M1284.9,777.5c-7.8-0.6-15.6-1.4-23.2-2.2l0.4-4.3c7.6,0.8,15.4,1.5,23.1,2.2L1284.9,777.5z M1251.3,774.3
				c-10.1-1.1-20.3-2.4-30.5-3.8l0.6-4.3c10.1,1.4,20.3,2.7,30.3,3.8L1251.3,774.3z M1208.7,768.7c-8.2-1.2-16.3-2.5-24.2-3.8
				l0.7-4.3c7.9,1.3,16,2.6,24.2,3.8L1208.7,768.7z M1173,762.9c-7.8-1.4-15.4-2.8-22.9-4.3l0.8-4.2c7.5,1.5,15.1,2.9,22.9,4.3
				L1173,762.9z M1139.8,756.6c-10-2-20.1-4.2-30-6.5l1-4.2c9.9,2.2,20,4.4,29.9,6.4L1139.8,756.6z M1097.9,747.4
				c-8.3-2-16.2-3.9-23.8-5.9l1.1-4.2c7.6,1.9,15.5,3.9,23.8,5.8L1097.9,747.4z M1062.7,738.6c-7.9-2.1-15.4-4.2-22.5-6.2l1.2-4.2
				c7.1,2,14.5,4.1,22.4,6.2L1062.7,738.6z M1030.2,729.5c-10-2.9-19.9-6-29.4-9l1.3-4.1c9.4,3,19.3,6,29.3,9L1030.2,729.5z
				 M989.2,716.7c-14.8-5-23.2-8.2-23.3-8.2l1.6-4c0.1,0,8.3,3.2,23.1,8.1L989.2,716.7z"/>
		</g>
	</g>
	<g>
		<path class="st3" d="M557,939.2l-5.2-4.5l2.8-3.3l5.2,4.5L557,939.2z M543,927c-5.8-5.2-11.6-10.5-17.2-15.8l3-3.1
			c5.5,5.2,11.3,10.5,17.1,15.7L543,927z M518.3,903.9c-7.5-7.3-14.7-14.7-21.5-21.9l3.2-2.9c6.7,7.2,13.9,14.5,21.3,21.8
			L518.3,903.9z M488.6,872.9c-5.6-6.2-10.9-12.5-16-18.7l3.4-2.7c5,6.1,10.3,12.4,15.8,18.6L488.6,872.9z M465.4,845
			c-4.9-6.3-9.5-12.7-13.7-19l3.6-2.4c4.2,6.2,8.7,12.5,13.5,18.8L465.4,845z M445.9,817.3c-5.7-9-10.8-18.1-15.1-26.9l3.9-1.9
			c4.2,8.7,9.3,17.6,14.9,26.5L445.9,817.3z M425.7,779.2c-3.3-7.8-6.2-15.6-8.4-23.3l4.1-1.2c2.2,7.5,4.9,15.1,8.2,22.8
			L425.7,779.2z M414.4,744.5c-1.7-7.9-2.8-15.7-3.3-23.3l4.3-0.3c0.5,7.4,1.5,15,3.2,22.7L414.4,744.5z M415.2,710.7l-4.3-0.1
			c0.1-10.4,1.5-20.7,4.1-30.6l4.2,1.1C416.6,690.6,415.3,700.6,415.2,710.7z M422.6,669.6l-4.1-1.5c2.7-7.6,6.3-15.1,10.4-22.4
			l3.7,2.2C428.7,654.9,425.3,662.2,422.6,669.6z M438.8,638.2l-3.6-2.4c4.3-6.3,9.2-12.5,14.5-18.4l3.2,2.9
			C447.8,626,443,632.1,438.8,638.2z M460.1,612.7l-3.1-3.1c6.9-6.9,14.7-13.8,23.2-20.3l2.6,3.4
			C474.6,599.2,466.9,605.9,460.1,612.7z M492.6,585.5l-2.5-3.5c6.5-4.6,13.4-9.1,20.6-13.4l2.2,3.7
			C505.9,576.6,499,581,492.6,585.5z M523,566.5l-2.1-3.8c6.6-3.7,13.5-7.3,20.7-10.9l1.9,3.9C536.4,559.2,529.5,562.8,523,566.5z
			 M552.9,551.2l-1.8-3.9c9-4.2,18.4-8.3,28.2-12.2l1.6,4C571.2,543,561.7,547.1,552.9,551.2z M592.2,534.7l-1.5-4
			c7.5-2.8,15.2-5.6,23.1-8.3l1.4,4.1C607.4,529.1,599.6,531.9,592.2,534.7z M626.2,522.8l-1.3-4.1c7.3-2.3,14.8-4.6,22.3-6.8
			l1.2,4.1C640.9,518.2,633.5,520.5,626.2,522.8z M658.4,513.2l-1.2-4.2c9.6-2.7,19.6-5.3,29.7-7.8l1,4.2
			C678,507.9,668,510.5,658.4,513.2z M699.9,502.6l-1-4.2c7.9-1.8,15.9-3.6,24-5.3l0.9,4.2C715.7,499,707.7,500.7,699.9,502.6z
			 M735.1,494.9l-0.9-4.2c7.6-1.5,15.2-3,22.9-4.4l0.8,4.2C750.3,491.9,742.7,493.4,735.1,494.9z M768.2,488.7l-0.7-4.3
			c9.9-1.7,20.1-3.4,30.3-5l0.7,4.3C788.2,485.3,778,487,768.2,488.7z M810.5,482l-0.6-4.3c8-1.2,16.1-2.3,24.3-3.3l0.6,4.3
			C826.6,479.7,818.5,480.8,810.5,482z M846.3,477.2l-0.5-4.3c7.7-0.9,15.4-1.8,23.2-2.7l0.5,4.3
			C861.6,475.4,853.9,476.3,846.3,477.2z M879.7,473.5l-0.4-4.3c10.1-1,20.3-2,30.5-2.9l0.4,4.3
			C899.9,471.5,889.8,472.4,879.7,473.5z M922.4,469.6l-0.3-4.3c8.1-0.6,16.3-1.2,24.5-1.8l0.3,4.3
			C938.6,468.4,930.5,469,922.4,469.6z M958.4,467.1l-0.3-4.3c7.7-0.5,15.5-0.9,23.3-1.3l0.2,4.3
			C973.8,466.2,966.1,466.6,958.4,467.1z M992,465.3l-0.2-4.3c10.2-0.5,20.4-0.8,30.6-1.2l0.1,4.3
			C1012.3,464.5,1002.1,464.9,992,465.3z M1171.9,464.5c-8.2-0.3-16.3-0.5-24.5-0.7l0.1-4.3c8.2,0.2,16.3,0.4,24.5,0.7L1171.9,464.5
			z M1034.8,463.8l-0.1-4.3c8.2-0.2,16.3-0.4,24.5-0.5l0.1,4.3C1051.1,463.5,1042.9,463.6,1034.8,463.8z M1135.2,463.5
			c-10.2-0.2-20.4-0.3-30.6-0.4v-4.3c10.2,0.1,20.4,0.2,30.6,0.4V463.5z M1070.9,463.2v-4.3c7-0.1,14.1-0.1,21.2-0.1h2.1v4.3h-2.1
			C1085,463.1,1077.9,463.1,1070.9,463.2z"/>
	</g>
	<g>
		<g>
			<path class="st3" d="M1149.3,1169.4c-0.5,0-1-0.2-1.4-0.6c-0.9-0.8-1-2.2-0.2-3.1l28.4-31.6l-27.9-32.1c-0.8-0.9-0.7-2.3,0.2-3
				c0.9-0.8,2.3-0.7,3,0.2l30.4,34.9l-30.9,34.4C1150.5,1169.1,1149.9,1169.4,1149.3,1169.4z"/>
		</g>
		<g>
			<path class="st3" d="M1167.6,1138.5c-3.2,0-6.4-0.1-9.5-0.2l0.1-4.3c3.1,0.1,6.3,0.1,9.5,0.2L1167.6,1138.5z M1146.4,1138.1
				c-7.9-0.2-15.6-0.4-23.3-0.7l0.2-4.3c7.6,0.3,15.4,0.5,23.2,0.7L1146.4,1138.1z M1112.7,1137c-10.4-0.4-20.6-1-30.6-1.6l0.3-4.3
				c10,0.6,20.1,1.1,30.5,1.6L1112.7,1137z M1069.9,1134.6c-8.3-0.6-16.5-1.2-24.5-1.8l0.4-4.3c8,0.7,16.1,1.3,24.4,1.8
				L1069.9,1134.6z M1033.8,1131.8c-7.9-0.7-15.6-1.5-23.2-2.3l0.5-4.3c7.6,0.8,15.3,1.6,23.1,2.3L1033.8,1131.8z M1000.3,1128.4
				c-10.2-1.1-20.4-2.4-30.4-3.8l0.6-4.3c10,1.3,20.2,2.6,30.3,3.7L1000.3,1128.4z M957.7,1122.9c-8.3-1.2-16.4-2.4-24.2-3.7
				l0.7-4.3c7.8,1.3,15.9,2.5,24.2,3.7L957.7,1122.9z M921.9,1117.3c-7.9-1.4-15.5-2.8-22.9-4.2l0.8-4.2c7.4,1.4,15,2.8,22.8,4.2
				L921.9,1117.3z M888.8,1111.1c-10.1-2.1-20.2-4.2-30-6.5l1-4.2c9.7,2.3,19.8,4.5,29.9,6.5L888.8,1111.1z M846.9,1101.7
				c-8-2-16-4.1-23.8-6.2l1.1-4.2c7.7,2.1,15.6,4.2,23.6,6.2L846.9,1101.7z M811.9,1092.3c-7.6-2.2-15.1-4.5-22.3-6.8l1.3-4.1
				c7.2,2.3,14.6,4.6,22.2,6.8L811.9,1092.3z M779.7,1082.2c-10.1-3.4-19.8-7-28.8-10.6l1.6-4c8.9,3.6,18.6,7.1,28.6,10.6
				L779.7,1082.2z M739.5,1066.8c-14.9-6.4-22-10.6-22.3-10.7l2.2-3.7c0.1,0,7.3,4.2,21.9,10.5L739.5,1066.8z"/>
		</g>
	</g>
	<g class="st1">
		<rect x="1258.3" y="291.6" class="st3" width="587.6" height="4.3"/>
	</g>
	<g class="st1">
		<rect x="1260.5" y="369.4" class="st3" width="587.6" height="4.3"/>
	</g>
	<g class="st1">
		<rect x="1260.5" y="447.2" class="st3" width="587.6" height="4.3"/>
	</g>
	<g>
		<path d="M1300.4,240.6h17.2v4.1h-12.7v7.4h11.2v4.1h-11.2v7.6h12.9v4.1h-17.3L1300.4,240.6L1300.4,240.6z"/>
		<path d="M1320,247.2h4.6l4.6,15l4.7-15h4.6l-7.2,20.8h-4.1L1320,247.2z"/>
		<path d="M1339.8,257.7v-0.3c0-6.2,3.7-10.6,8.8-10.6c5.6,0,8.6,4.7,8.6,10.9c0,0.3,0,0.9,0,1.5h-12.9c0.4,3.5,2.5,5.3,5.2,5.3
			c1.9,0,3.4-0.9,4.7-2.2l2.3,2.7c-1.9,2-4.2,3.2-7.2,3.2C1343.9,268.2,1339.8,264.2,1339.8,257.7z M1352.9,256.1
			c-0.2-3.3-1.7-5.6-4.3-5.6c-2.4,0-4.1,2.1-4.4,5.6H1352.9z"/>
		<path d="M1361.1,247.2h4.4v3c1.2-1.8,2.8-3.4,5.6-3.4c4,0,6.3,2.8,6.3,7.2v13.8h-4.4v-12.6c0-2.9-1.4-4.5-3.7-4.5
			c-2.3,0-3.9,1.7-3.9,4.6v12.5h-4.4L1361.1,247.2L1361.1,247.2z"/>
		<path d="M1383.1,262.8v-11.9h-2.3v-3.8h2.3v-5.6h4.4v5.6h4.6v3.8h-4.6v11c0,1.6,0.8,2.3,2.2,2.3c0.9,0,1.6-0.2,2.4-0.6v3.6
			c-1,0.5-2.2,0.9-3.7,0.9C1385.4,268.1,1383.1,266.8,1383.1,262.8z"/>
		<path d="M1409.5,245.1l-4.3,1.3l-0.7-3.9l6.3-2.1h3.2v27.4h-4.5V245.1z"/>
	</g>
	<g>
		<path d="M1300.4,322.7h17.2v4.1h-12.7v7.4h11.2v4.1h-11.2v7.6h12.9v4.1h-17.3L1300.4,322.7L1300.4,322.7z"/>
		<path d="M1320,329.3h4.6l4.6,15l4.7-15h4.6l-7.2,20.8h-4.1L1320,329.3z"/>
		<path d="M1339.8,339.8v-0.3c0-6.2,3.7-10.6,8.8-10.6c5.6,0,8.6,4.7,8.6,10.9c0,0.3,0,0.9,0,1.5h-12.9c0.4,3.5,2.5,5.3,5.2,5.3
			c1.9,0,3.4-0.9,4.7-2.2l2.3,2.7c-1.9,2-4.2,3.2-7.2,3.2C1343.9,350.3,1339.8,346.3,1339.8,339.8z M1352.9,338.2
			c-0.2-3.3-1.7-5.6-4.3-5.6c-2.4,0-4.1,2.1-4.4,5.6H1352.9z"/>
		<path d="M1361.1,329.3h4.4v3c1.2-1.8,2.8-3.4,5.6-3.4c4,0,6.3,2.8,6.3,7.2v13.8h-4.4v-12.6c0-2.9-1.4-4.5-3.7-4.5
			c-2.3,0-3.9,1.7-3.9,4.6v12.5h-4.4L1361.1,329.3L1361.1,329.3z"/>
		<path d="M1383.1,344.9V333h-2.3v-3.8h2.3v-5.6h4.4v5.6h4.6v3.8h-4.6v11c0,1.6,0.8,2.3,2.2,2.3c0.9,0,1.6-0.2,2.4-0.6v3.6
			c-1,0.5-2.2,0.9-3.7,0.9C1385.4,350.2,1383.1,348.9,1383.1,344.9z"/>
		<path d="M1405.3,346.3l8.3-8.9c3.1-3.2,4.2-4.9,4.2-7.1c0-2.5-1.8-3.9-4-3.9c-2.1,0-3.7,1.2-5.4,3.5l-3-2.8
			c2.3-3.1,4.9-4.9,8.8-4.9c4.7,0,8.2,3,8.2,7.7v0.1c0,3.7-1.7,5.9-5.7,9.9l-5.4,5.9h11.2v4.1h-17.2V346.3z"/>
	</g>
	<g>
		<path d="M1300.4,396.1h17.2v4.1h-12.7v7.4h11.2v4.1h-11.2v7.6h12.9v4.1h-17.3L1300.4,396.1L1300.4,396.1z"/>
		<path d="M1320,402.7h4.6l4.6,15l4.7-15h4.6l-7.2,20.8h-4.1L1320,402.7z"/>
		<path d="M1339.8,413.3V413c0-6.2,3.7-10.6,8.8-10.6c5.6,0,8.6,4.7,8.6,10.9c0,0.3,0,0.9,0,1.5h-12.9c0.4,3.5,2.5,5.3,5.2,5.3
			c1.9,0,3.4-0.9,4.7-2.2l2.3,2.7c-1.9,2-4.2,3.2-7.2,3.2C1343.9,423.8,1339.8,419.7,1339.8,413.3z M1352.9,411.7
			c-0.2-3.3-1.7-5.6-4.3-5.6c-2.4,0-4.1,2.1-4.4,5.6H1352.9z"/>
		<path d="M1361.1,402.7h4.4v3c1.2-1.8,2.8-3.4,5.6-3.4c4,0,6.3,2.8,6.3,7.2v13.8h-4.4v-12.6c0-2.9-1.4-4.5-3.7-4.5
			c-2.3,0-3.9,1.7-3.9,4.6v12.5h-4.4L1361.1,402.7L1361.1,402.7z"/>
		<path d="M1383.1,418.4v-11.9h-2.3v-3.8h2.3v-5.6h4.4v5.6h4.6v3.8h-4.6v11c0,1.6,0.8,2.3,2.2,2.3c0.9,0,1.6-0.2,2.4-0.6v3.6
			c-1,0.5-2.2,0.9-3.7,0.9C1385.4,423.6,1383.1,422.4,1383.1,418.4z"/>
		<path d="M1404.8,420l2.8-3.2c1.5,1.6,3.3,2.8,5.9,2.8c2.5,0,4.5-1.7,4.5-4.3v-0.1c0-2.8-2.4-4.4-6.2-4.4h-1.4l-0.6-2.8l6.6-7.9
			h-10.3v-4h15.9v3.5l-6.9,7.9c3.8,0.6,7.2,2.8,7.2,7.5v0.1c0,5.1-3.7,8.6-8.9,8.6C1409.7,423.8,1406.8,422.2,1404.8,420z"/>
	</g>
	<g>
		<path d="M1300.4,478.2h17.2v4.1h-12.7v7.4h11.2v4.1h-11.2v7.6h12.9v4.1h-17.3L1300.4,478.2L1300.4,478.2z"/>
		<path d="M1320,484.8h4.6l4.6,15l4.7-15h4.6l-7.2,20.8h-4.1L1320,484.8z"/>
		<path d="M1339.8,495.4V495c0-6.2,3.7-10.6,8.8-10.6c5.6,0,8.6,4.7,8.6,10.9c0,0.3,0,0.9,0,1.5h-12.9c0.4,3.5,2.5,5.3,5.2,5.3
			c1.9,0,3.4-0.9,4.7-2.2l2.3,2.7c-1.9,2-4.2,3.2-7.2,3.2C1343.9,505.9,1339.8,501.8,1339.8,495.4z M1352.9,493.8
			c-0.2-3.3-1.7-5.6-4.3-5.6c-2.4,0-4.1,2.1-4.4,5.6H1352.9z"/>
		<path d="M1361.1,484.8h4.4v3c1.2-1.8,2.8-3.4,5.6-3.4c4,0,6.3,2.8,6.3,7.2v13.8h-4.4v-12.6c0-2.9-1.4-4.5-3.7-4.5
			c-2.3,0-3.9,1.7-3.9,4.6v12.5h-4.4L1361.1,484.8L1361.1,484.8z"/>
		<path d="M1383.1,500.4v-11.9h-2.3v-3.8h2.3v-5.6h4.4v5.6h4.6v3.8h-4.6v11c0,1.6,0.8,2.3,2.2,2.3c0.9,0,1.6-0.2,2.4-0.6v3.6
			c-1,0.5-2.2,0.9-3.7,0.9C1385.4,505.7,1383.1,504.5,1383.1,500.4z"/>
		<path d="M1417.4,499.5h-12.1l-0.6-3.3l12.9-18.2h4v17.7h3.4v3.8h-3.4v5.9h-4.3L1417.4,499.5L1417.4,499.5z M1417.4,495.7v-10.9
			l-7.7,10.9H1417.4z"/>
	</g>
	<g>
		<path class="st9" d="M1925.9,775.6h-436.4c-4.8,0-8.6-3.9-8.6-8.6c0-4.8,3.9-8.6,8.6-8.6h436.4c4.8,0,8.6,3.9,8.6,8.6
			C1934.5,771.7,1930.7,775.6,1925.9,775.6z"/>
	</g>
	<g>
		<path class="st9" d="M1925.9,978.6h-436.4c-4.8,0-8.6-3.9-8.6-8.6s3.9-8.6,8.6-8.6h436.4c4.8,0,8.6,3.9,8.6,8.6
			S1930.7,978.6,1925.9,978.6z"/>
	</g>
	<g>
		<path class="st9" d="M1861.1,843.3h-371.6c-4.8,0-8.6-3.9-8.6-8.6s3.9-8.6,8.6-8.6h371.6c4.8,0,8.6,3.9,8.6,8.6
			S1865.8,843.3,1861.1,843.3z"/>
	</g>
	<g>
		<path class="st9" d="M1796.3,910.9h-306.8c-4.8,0-8.6-3.9-8.6-8.6s3.9-8.6,8.6-8.6h306.8c4.8,0,8.6,3.9,8.6,8.6
			S1801,910.9,1796.3,910.9z"/>
	</g>
	<g>
		<g class="st1">
			<path class="st2" d="M1180.9,1154.1L1221,1297c0,0,4.6,15,18.7,15.8c14.3,0.8,444.3,6.7,444.3,6.7s35-0.2,27-12.4
				c-8-12.1-93-170.9-93-170.9s-7.6-13.6-29.9-13.2c-21.3,0.4-374.4,17.3-392,17.8C1183.3,1141.2,1180.4,1146.9,1180.9,1154.1z"/>
		</g>
		<g>
			<g>
				<path class="st0" d="M1716,1305.1h-474.7c-2.5,0-4.6-2.1-4.6-4.6V924.7c0-2.5,2.1-4.6,4.6-4.6H1716c2.5,0,4.6,2.1,4.6,4.6v375.8
					C1720.6,1303,1718.6,1305.1,1716,1305.1z"/>
			</g>
			<g>
				<path class="st9" d="M1700.7,1307h-444c-12.2,0-22.1-8.8-22.1-19.5V937.7c0-10.8,9.9-19.5,22.1-19.5h444
					c12.2,0,22.1,8.8,22.1,19.5v349.8C1722.8,1298.2,1712.9,1307,1700.7,1307z M1256.7,922c-9.8,0-17.8,7.1-17.8,15.7v349.8
					c0,8.7,8,15.7,17.8,15.7h444c9.8,0,17.8-7.1,17.8-15.7V937.7c0-8.7-8-15.7-17.8-15.7H1256.7z"/>
			</g>
		</g>
		<g class="st4">
			<path class="st9" d="M1692.5,926.8h-432c-9.5,0-17.3,7.4-17.3,16.4v48.4h466.6v-48.4C1709.8,934.2,1702.1,926.8,1692.5,926.8z"/>
		</g>
	</g>
	<g>
		<path class="st9" d="M1450.6,1052.1h-181.5c-4.8,0-8.6-3.9-8.6-8.6c0-4.8,3.9-8.6,8.6-8.6h181.5c4.8,0,8.6,3.9,8.6,8.6
			S1455.4,1052.1,1450.6,1052.1z"/>
	</g>
	<g>
		<path class="st9" d="M1355.6,1255.2h-86.4c-4.8,0-8.6-3.9-8.6-8.6s3.9-8.6,8.6-8.6h86.4c4.8,0,8.6,3.9,8.6,8.6
			S1360.3,1255.2,1355.6,1255.2z"/>
	</g>
	<g>
		<path class="st9" d="M1611.3,1119.8h-342.1c-4.8,0-8.6-3.9-8.6-8.6c0-4.8,3.9-8.6,8.6-8.6h342.1c4.8,0,8.6,3.9,8.6,8.6
			S1616.1,1119.8,1611.3,1119.8z"/>
	</g>
	<g>
		<path class="st9" d="M1666.6,1187.5h-397.5c-4.8,0-8.6-3.9-8.6-8.6c0-4.8,3.9-8.6,8.6-8.6h397.5c4.8,0,8.6,3.9,8.6,8.6
			C1675.3,1183.6,1671.4,1187.5,1666.6,1187.5z"/>
	</g>
	<g>
		<path class="st9" d="M1633.1,676.2h4.4l10.1,27.7h-4.8l-2.3-6.5h-10.7l-2.3,6.5h-4.6L1633.1,676.2z M1639.1,693.4l-3.9-11.1
			l-3.9,11.1H1639.1z"/>
		<path class="st9" d="M1649.2,690.3V690c0-8.4,5.2-14.1,12.3-14.1c3.9,0,6.4,1.4,8.7,3.4l-2.8,3.5c-1.6-1.5-3.4-2.7-5.9-2.7
			c-4.3,0-7.6,3.9-7.6,9.8v0.2c0,6,3.3,9.9,7.6,9.9c2.6,0,4.4-1.2,6.1-2.9l2.7,3.2c-2.4,2.5-5.2,3.9-9,3.9
			C1654.2,704.3,1649.2,698.7,1649.2,690.3z"/>
		<path class="st9" d="M1672.6,690.3V690c0-8.4,5.2-14.1,12.3-14.1c3.9,0,6.4,1.4,8.7,3.4l-2.8,3.5c-1.6-1.5-3.4-2.7-5.9-2.7
			c-4.3,0-7.6,3.9-7.6,9.8v0.2c0,6,3.3,9.9,7.6,9.9c2.6,0,4.4-1.2,6.1-2.9l2.7,3.2c-2.4,2.5-5.2,3.9-9,3.9
			C1677.7,704.3,1672.6,698.7,1672.6,690.3z"/>
		<path class="st9" d="M1696.1,690.4V690c0-8.2,5-14.1,12.3-14.1c7.2,0,12.2,5.8,12.2,14v0.4c0,8.2-5,14.1-12.3,14.1
			C1701.1,704.4,1696.1,698.5,1696.1,690.4z M1715.8,690.3V690c0-5.9-3.2-9.9-7.5-9.9s-7.4,3.9-7.4,9.9v0.3c0,5.9,3.2,9.9,7.5,9.9
			C1712.7,700.2,1715.8,696.3,1715.8,690.3z"/>
		<path class="st9" d="M1725.2,693.4v-17.1h4.6v17c0,4.5,2.2,6.8,5.7,6.8s5.7-2.2,5.7-6.6v-17.2h4.5v16.9c0,7.4-4.1,11.1-10.3,11.1
			C1729.2,704.4,1725.2,700.6,1725.2,693.4z"/>
		<path class="st9" d="M1751.4,676.4h4.3l12.1,18.4v-18.4h4.5V704h-3.9l-12.5-19v19h-4.5V676.4z"/>
		<path class="st9" d="M1783.7,680.6h-7.3v-4.3h19.1v4.3h-7.3v23.3h-4.6v-23.3H1783.7z"/>
		<path class="st9" d="M1797.4,700.3l2.8-3.4c2,1.9,4.3,3.3,7.3,3.3c2.6,0,4.3-1.5,4.3-3.5l0,0c0-1.7-0.9-2.9-5.3-4.5
			c-5.2-2-8-3.9-8-8.3v-0.1c0-4.5,3.6-7.7,8.7-7.7c3.2,0,6.1,1,8.7,3.2l-2.6,3.5c-1.9-1.5-4-2.6-6.2-2.6c-2.5,0-4,1.4-4,3.2l0,0
			c0,1.9,1,3,5.7,4.8c5.1,2,7.5,4.1,7.5,8.1v0.1c0,4.8-3.8,8-8.9,8C1803.8,704.3,1800.4,703.1,1797.4,700.3z"/>
	</g>
	<g>
		<path class="st9" d="M1286.3,952.3h-7.1v-4.1h18.6v4.1h-7.1V975h-4.5V952.3z"/>
		<path class="st9" d="M1302,948.2h9.7c3.1,0,5.6,0.9,7.2,2.5c1.4,1.4,2.2,3.5,2.2,5.9v0.2c0,4.1-2.3,6.7-5.6,7.9l6.3,10.4h-5.1
			l-5.7-9.5c-0.1,0-0.2,0-0.3,0h-4.3v9.5h-4.5V948.2z M1311.3,961.6c3.5,0,5.4-1.8,5.4-4.6v-0.1c0-3-2-4.6-5.3-4.6h-4.9v9.3H1311.3z
			"/>
		<path class="st9" d="M1333.8,948h4.3l9.9,27h-4.6l-2.2-6.3h-10.4l-2.2,6.3h-4.5L1333.8,948z M1339.7,964.7l-3.8-10.8l-3.8,10.8
			H1339.7z"/>
		<path class="st9" d="M1351.8,948.2h4.1l11.8,17.9v-17.9h4.3V975h-3.8l-12.2-18.5V975h-4.4V948.2z"/>
		<path class="st9" d="M1376,971.5l2.7-3.3c2,1.8,4.2,3.2,7.1,3.2c2.6,0,4.2-1.4,4.2-3.4v0c0-1.7-0.9-2.8-5.1-4.4
			c-5.1-1.9-7.8-3.8-7.8-8.1v-0.1c0-4.4,3.5-7.5,8.5-7.5c3.1,0,6,1,8.4,3.1l-2.5,3.4c-1.8-1.5-3.9-2.5-6-2.5c-2.4,0-3.9,1.3-3.9,3.1
			v0c0,1.9,1,2.9,5.6,4.6c5,1.9,7.3,4,7.3,7.9v0.1c0,4.7-3.7,7.8-8.7,7.8C1382.3,975.4,1379,974.2,1376,971.5z"/>
		<path class="st9" d="M1406.5,948h4.3l9.9,27h-4.6l-2.2-6.3h-10.4l-2.2,6.3h-4.5L1406.5,948z M1412.4,964.7l-3.8-10.8l-3.8,10.8
			H1412.4z"/>
		<path class="st9" d="M1422.2,961.8v-0.3c0-8.1,5.1-13.7,12-13.7c3.8,0,6.3,1.3,8.4,3.3l-2.7,3.4c-1.6-1.5-3.3-2.6-5.8-2.6
			c-4.2,0-7.4,3.8-7.4,9.6v0.2c0,5.8,3.2,9.6,7.4,9.6c2.6,0,4.3-1.2,6-2.8l2.6,3.1c-2.3,2.4-5.1,3.8-8.8,3.8
			C1427.1,975.4,1422.2,970,1422.2,961.8z"/>
		<path class="st9" d="M1452.2,952.3h-7.1v-4.1h18.6v4.1h-7.1V975h-4.5V952.3z"/>
		<path class="st9" d="M1468.2,948.2h4.5V975h-4.5V948.2z"/>
		<path class="st9" d="M1477.7,961.8v-0.4c0-8,4.9-13.7,11.9-13.7c7,0,11.9,5.7,11.9,13.6v0.4c0,8-4.9,13.7-11.9,13.7
			C1482.5,975.5,1477.7,969.8,1477.7,961.8z M1496.9,961.8v-0.3c0-5.8-3.1-9.6-7.3-9.6c-4.2,0-7.3,3.8-7.3,9.6v0.3
			c0,5.8,3.1,9.6,7.3,9.6S1496.9,967.6,1496.9,961.8z"/>
		<path class="st9" d="M1506.3,948.2h4.1l11.8,17.9v-17.9h4.3V975h-3.8l-12.2-18.5V975h-4.4V948.2z"/>
		<path class="st9" d="M1541.4,961.8v-0.3c0-8.1,5.1-13.7,12-13.7c3.8,0,6.3,1.3,8.4,3.3l-2.7,3.4c-1.6-1.5-3.3-2.6-5.8-2.6
			c-4.2,0-7.4,3.8-7.4,9.6v0.2c0,5.8,3.2,9.6,7.4,9.6c2.6,0,4.3-1.2,6-2.8l2.6,3.1c-2.3,2.4-5.1,3.8-8.8,3.8
			C1546.3,975.4,1541.4,970,1541.4,961.8z"/>
		<path class="st9" d="M1564.3,961.8v-0.4c0-8,4.9-13.7,11.9-13.7c7,0,11.9,5.7,11.9,13.6v0.4c0,8-4.9,13.7-11.9,13.7
			C1569.1,975.5,1564.3,969.8,1564.3,961.8z M1583.5,961.8v-0.3c0-5.8-3.1-9.6-7.3-9.6c-4.2,0-7.3,3.8-7.3,9.6v0.3
			c0,5.8,3.1,9.6,7.3,9.6S1583.5,967.6,1583.5,961.8z"/>
		<path class="st9" d="M1592.6,964.8v-16.6h4.5v16.6c0,4.3,2.1,6.6,5.6,6.6c3.4,0,5.5-2.2,5.5-6.5v-16.7h4.4v16.5
			c0,7.2-4,10.8-10,10.8C1596.5,975.5,1592.6,971.8,1592.6,964.8z"/>
		<path class="st9" d="M1618.1,948.2h4.1l11.8,17.9v-17.9h4.3V975h-3.8l-12.2-18.5V975h-4.4V948.2z"/>
		<path class="st9" d="M1649.6,952.3h-7.1v-4.1h18.6v4.1h-7.1V975h-4.5V952.3z"/>
		<path class="st9" d="M1662.9,971.5l2.7-3.3c2,1.8,4.2,3.2,7.1,3.2c2.6,0,4.2-1.4,4.2-3.4v0c0-1.7-0.9-2.8-5.1-4.4
			c-5.1-1.9-7.8-3.8-7.8-8.1v-0.1c0-4.4,3.5-7.5,8.5-7.5c3.1,0,6,1,8.4,3.1l-2.5,3.4c-1.8-1.5-3.9-2.5-6-2.5c-2.4,0-3.9,1.3-3.9,3.1
			v0c0,1.9,1,2.9,5.6,4.6c5,1.9,7.3,4,7.3,7.9v0.1c0,4.7-3.7,7.8-8.7,7.8C1669.2,975.4,1665.8,974.2,1662.9,971.5z"/>
	</g>
</g>
</svg>
