<?xml version="1.0" encoding="utf-8"?>
<!-- Generator: Adobe Illustrator 23.0.3, SVG Export Plug-In . SVG Version: 6.00 Build 0)  -->
<svg version="1.1" id="Layer_1" xmlns="http://www.w3.org/2000/svg" xmlns:xlink="http://www.w3.org/1999/xlink" x="0px" y="0px"
	 viewBox="0 0 2048 1115" style="enable-background:new 0 0 2048 1115;" xml:space="preserve">
<style type="text/css">
	.st0{fill:#FFFFFF;}
	.st1{opacity:0.5;}
	.st2{fill:#DEE1E0;}
	.st3{fill:#197593;}
	.st4{opacity:0.25;}
	.st5{fill:#CAE1E8;}
	.st6{opacity:0.35;}
	.st7{fill:#004966;}
	.st8{opacity:0.48;}
	.st9{fill:#DD9099;}
	.st10{fill:#0A9181;}
	.st11{opacity:0.1;}
</style>
<g>
	<rect y="-1.3" class="st0" width="2048" height="1116.3"/>
</g>
<g id="_x30_4">
	<g class="st1">
		<path class="st2" d="M1847.9,540.8c-2.2-6.1-73.3-146.7-73.3-146.7s-259-76-273-76.1c-7.3,0-71.7,45.4-152.4,30.7
			c-39,24.5-81,30.4-126.4,7.9c-4.2-2.1-7.4-5.4-11-8.5c-5-4.3-7.9-10.6-7.8-15.7c0.2-26.3,1.9-83.3,0-85.8v-22.9
			c0,0-51.8,2.2-53.3,2.2c-11.2,0.1-14.3,4-14.9,9.1L1236,534.7c0,0,1.9,9.1,13,9.2c11.1,0,581.5,4,581.5,4
			S1850.1,546.9,1847.9,540.8z"/>
	</g>
	<g>
		<g>
			<g>
				<path class="st3" d="M1289.6,110.9c-21.5,0-46.3-3.4-65.3-18c-8.8-6.7-17.6-18.7-13.5-30.5c4.3-12.5,44.7-20.4,53.1-21.1l0,0
					c72.2-6.4,117.7-0.3,131.6,17.8c5.2,6.8,6.1,15.2,2.6,25c-4.3,12-20.1,15.4-28.6,17.2c-19.7,4.3-40,7.2-60.1,8.8
					C1303.3,110.5,1296.6,110.9,1289.6,110.9z M1264,44.2c-13.5,1.2-47.4,9.9-50.6,19.2c-3.5,10.3,4.6,21.2,12.6,27.3
					c24.5,18.7,59.1,18.4,83.1,16.6c20-1.5,40.1-4.5,59.7-8.7c11-2.4,23.1-5.7,26.5-15.4c3.2-9,2.5-16.2-2.2-22.3
					C1383.9,48.8,1353.9,36.2,1264,44.2L1264,44.2z"/>
			</g>
		</g>
		<g class="st4">
			<g>
				<path class="st5" d="M1259.4,35.7c-12.1,1.1-51.2,10.5-55,23.1c-3.8,12.5,4.6,25.9,14.2,34c24.9,21.1,58.7,23,89.7,20.6
					c21.4-1.6,42.8-4.9,63.8-9.7c11.5-2.6,25.3-6.6,29.2-18.9C1421.1,22.4,1291.9,32.8,1259.4,35.7z"/>
			</g>
		</g>
		<g>
			<g>
				<path class="st3" d="M1288.2,364.5c-24.6,0-49.1-5.4-71.4-16.4c-4.2-2.1-8.8-4.6-11.6-9c-3-4.9-3-10.9-2.9-15.8l1.9-249.9
					c0-0.8,0.6-1.4,1.4-1.4l0,0c0.8,0,1.4,0.6,1.4,1.4l-1.9,249.9c0,4.5-0.1,10.1,2.5,14.3c2.3,3.8,6.6,6.1,10.4,8
					c57,28.3,132.3,17.6,179.3-25.3l0.5-7.3c5.2-74.8,11.2-159.6,1.2-234.5c-0.1-0.8,0.4-1.5,1.2-1.6c0.8-0.1,1.5,0.4,1.6,1.2
					c10,75.2,4.1,160.2-1.2,235.1l-0.6,8.4l-0.4,0.4C1369.4,349.8,1328.8,364.5,1288.2,364.5z"/>
			</g>
		</g>
		<g class="st4">
			<g>
				<path class="st5" d="M1377.5,113.5c-21,4.8-42.3,8-63.8,9.7c-31.1,2.4-64.8,0.5-89.7-20.6c-5.3-4.5-10.2-10.6-12.9-17.2
					c-0.6,82.5-1.3,165.1-1.9,247.6c0,5.2,0,10.7,2.7,15c2.5,4,6.8,6.4,11,8.5c58.1,28.8,110.9,11.1,158.6-32.8
					C1386.8,247.8,1389.1,110.9,1377.5,113.5z"/>
			</g>
		</g>
		<g class="st6">
			<g>
				<path class="st5" d="M1377.5,239.4c-21,4.8-42.2,49.9-63.8,49.9c-95.4,0-99.9-71.4-102.7-78.1c-0.6,82.5-1.3,30.6-1.9,113.1
					c0,5.2,0,10.7,2.7,15c2.5,4,6.8,6.4,11,8.5c58.1,28.8,110.9,11.1,158.6-32.8C1386.8,239.2,1389.1,236.8,1377.5,239.4z"/>
			</g>
		</g>
	</g>
	<g>
		<g class="st1">
			<path class="st2" d="M82.1,303.8l37.6,104.3c0,0,4.1,10.2,17.7,9.3C151,416.6,497,382.3,497,382.3s23.7-2.7,19.9-9.4
				C513,366.2,472.5,269,472.5,269s-4-9-21-7.9C435,262.2,116.7,291,98.4,292.4C84.9,293.3,81.7,298.1,82.1,303.8z"/>
		</g>
		<g>
			<path class="st0" d="M125.7,84.1l27.6,282c0,0,3.1,27.6,15.3,27.6S493.5,363,493.5,363s21.5-3.1,18.4-21.5s-33.7-282-33.7-282
				S475.1,35,459.8,35C444.9,35,157.5,56,141,56.5C128.8,56.8,125.7,68.8,125.7,84.1z"/>
			<path class="st3" d="M168.6,395.9c-13.8,0-17.1-26.5-17.5-29.5L123.6,84.1c0-12.6,1.8-29.4,17.4-29.7c7.4-0.2,71.2-4.7,138.6-9.4
				c84.4-5.9,171.6-12.1,180.2-12.1c0,0,0,0,0.1,0c17,0.1,20.4,25.3,20.5,26.4c0.3,2.7,30.7,263.8,33.7,281.9
				c0.9,5.5-0.1,10.4-3,14.4c-5.7,7.8-16.7,9.5-17.2,9.6C481,366.5,180.9,395.9,168.6,395.9z M127.9,84l27.6,281.9
				c0.8,7.1,4.7,25.6,13.2,25.6c12,0,321.6-30.3,324.7-30.6c0,0,9.6-1.5,14.2-7.8c2.2-3,3-6.8,2.2-11.1
				c-3-18.2-32.5-271.3-33.7-282.1c0-0.2-3-22.6-16.3-22.6l0,0c-8.3,0-99.4,6.4-179.8,12c-67.5,4.7-131.3,9.2-138.8,9.4
				C132,58.9,127.9,66.7,127.9,84z"/>
		</g>
		<g class="st1">
			<path class="st5" d="M487.4,71.7c-1.2-11.6-1.9-14.6-1.9-14.6s-3.1-28.2-18.5-28.2S159.5,53.6,147.2,53.6s-15.3,14.1-15.3,31.8
				l1.5,14.1C214.9,92.3,385.2,79.4,487.4,71.7z"/>
		</g>
		<g>
			<g>
				<path class="st5" d="M156.9,83.1l-8.1,0.6c-0.7,0-1.3-0.5-1.3-1.1l-0.6-8.1c0-0.7,0.5-1.3,1.1-1.3l8.1-0.6
					c0.7,0,1.3,0.5,1.3,1.1l0.6,8.1C158.1,82.5,157.6,83.1,156.9,83.1z"/>
			</g>
			<g>
				<path class="st5" d="M174.4,81.9l-8.1,0.6c-0.7,0-1.3-0.5-1.3-1.1l-0.6-8.1c0-0.7,0.5-1.3,1.1-1.3l8.1-0.6
					c0.7,0,1.3,0.5,1.3,1.1l0.6,8.1C175.6,81.3,175.1,81.8,174.4,81.9z"/>
			</g>
			<g>
				<path class="st5" d="M191.9,80.7l-8.1,0.6c-0.7,0-1.3-0.5-1.3-1.1l-0.6-8.1c0-0.7,0.5-1.3,1.1-1.3l8.1-0.6
					c0.7,0,1.3,0.5,1.3,1.1l0.6,8.1C193.1,80,192.6,80.6,191.9,80.7z"/>
			</g>
		</g>
	</g>
	<g>
		<g>
			<path class="st0" d="M1858.6,530.4h-604.3c-2.5,0-4.6-2.1-4.6-4.6V150c0-2.5,2.1-4.6,4.6-4.6h604.3c2.5,0,4.6,2.1,4.6,4.6v375.8
				C1863.2,528.3,1861.2,530.4,1858.6,530.4z"/>
		</g>
		<g>
			<path class="st3" d="M1843.3,532.3h-573.6c-12.2,0-22.1-8.8-22.1-19.5V163c0-10.8,9.9-19.5,22.1-19.5h573.6
				c12.2,0,22.1,8.8,22.1,19.5v349.8C1865.4,523.5,1855.5,532.3,1843.3,532.3z M1269.7,147.3c-9.8,0-17.8,7.1-17.8,15.7v349.8
				c0,8.7,8,15.7,17.8,15.7h573.6c9.8,0,17.8-7.1,17.8-15.7V163c0-8.7-8-15.7-17.8-15.7H1269.7z"/>
		</g>
	</g>
	<g>
		<path class="st7" d="M286.9,189.4h9.5l17.4,48.7h-10.4l-3.6-10.5h-16.7l-3.5,10.5h-10.1L286.9,189.4z M296.8,218.7l-5.3-15.8
			l-5.3,15.8H296.8z"/>
		<path class="st7" d="M319.8,189.6h16.1c10.9,0,17.7,6.3,17.7,16.6v0.1c0,11.1-8,16.7-18.1,16.9h-5.7v14.7h-10V189.6z M335.4,214.3
			c5.2,0,8.1-3.2,8.1-7.7v-0.1c0-5.1-2.9-7.8-8.2-7.8h-5.5v15.6H335.4z"/>
		<path class="st7" d="M360.2,189.6h16.1c10.9,0,17.7,6.3,17.7,16.6v0.1c0,11.1-8,16.7-18.1,16.9h-5.7v14.7h-10V189.6z M375.8,214.3
			c5.2,0,8.1-3.2,8.1-7.7v-0.1c0-5.1-2.9-7.8-8.2-7.8h-5.5v15.6H375.8z"/>
	</g>
	<g>
		<path class="st7" d="M589.2,621.7h16.1c10.9,0,17.7,6.3,17.7,16.6v0.1c0,11.1-8,16.7-18.1,16.9h-5.7V670h-10V621.7z M604.9,646.4
			c5.2,0,8.1-3.2,8.1-7.7v-0.1c0-5.1-2.9-7.8-8.2-7.8h-5.5v15.6H604.9z"/>
		<path class="st7" d="M629.6,621.7h18.2c5.6,0,10.1,1.6,13.1,4.6c2.6,2.6,4.1,6.4,4.1,11.2v0.3c0,7.3-3.7,12-9,14.3l10.3,18h-11.5
			l-8.9-15.9h-6.3v15.9h-10L629.6,621.7L629.6,621.7z M647,645.4c5.1,0,7.9-2.9,7.9-7.3V638c0-4.8-3-7.3-8.1-7.3h-7.2v14.6
			L647,645.4L647,645.4z"/>
		<path class="st7" d="M671.2,646.4v-0.8c0-14.5,9.1-24.7,21.9-24.7c12.9,0,21.9,10.1,21.9,24.6v0.8c0,14.5-9.1,24.7-21.9,24.7
			C680.2,671,671.2,660.9,671.2,646.4z M704.6,646.2v-0.5c0-9.5-4.8-15.6-11.5-15.6c-6.8,0-11.5,5.9-11.5,15.5v0.5
			c0,9.5,4.9,15.6,11.6,15.6C699.8,661.7,704.6,655.7,704.6,646.2z"/>
		<path class="st7" d="M716.7,664.6l6.1-7.1c2,2.3,4.1,3.8,6.8,3.8c3.4,0,5.5-2.1,5.5-7.1v-32.5h10.1v33c0,5.4-1.5,9.3-4.2,12
			c-2.6,2.6-6.5,4-11.1,4C724,670.8,719.5,668.1,716.7,664.6z"/>
		<path class="st7" d="M754.4,621.7h31.2v9.1h-21.2v10.4H783v9.1h-18.7v10.8h21.5v9.1h-31.5v-48.5H754.4z"/>
		<path class="st7" d="M791.8,646.3v-0.6c0-14.7,9.1-24.6,21.9-24.6c7.2,0,11.8,2.6,15.6,6.4l-6,7.7c-2.9-3-5.9-4.8-9.9-4.8
			c-6.5,0-11.3,6-11.3,15.4v0.2c0,9.6,5,15.5,11.4,15.5c3.9,0,6.7-1.8,10-5l6,7.1c-4.4,4.5-9,7.3-16.4,7.3
			C800.4,670.8,791.8,661.1,791.8,646.3z"/>
		<path class="st7" d="M845.6,631h-12.2v-9.3h34.3v9.3h-12.2v39.1h-10V631H845.6z"/>
		<path class="st7" d="M870.9,646.4v-0.8c0-14.5,9.1-24.7,21.9-24.7c12.9,0,21.9,10.1,21.9,24.6v0.8c0,14.5-9.1,24.7-21.9,24.7
			C879.9,671,870.9,660.9,870.9,646.4z M904.3,646.2v-0.5c0-9.5-4.8-15.6-11.5-15.6c-6.8,0-11.5,5.9-11.5,15.5v0.5
			c0,9.5,4.9,15.6,11.6,15.6C899.5,661.7,904.3,655.7,904.3,646.2z"/>
		<path class="st7" d="M922.6,621.7h18.2c5.6,0,10.1,1.6,13.1,4.6c2.6,2.6,4.1,6.4,4.1,11.2v0.3c0,7.3-3.7,12-9,14.3l10.3,18h-11.5
			l-8.9-15.9h-6.3v15.9h-10L922.6,621.7L922.6,621.7z M940,645.4c5.1,0,7.9-2.9,7.9-7.3V638c0-4.8-3-7.3-8.1-7.3h-7.2v14.6
			L940,645.4L940,645.4z"/>
	</g>
	<g class="st1">
		<path class="st5" d="M1835.1,152.1h-561.6c-9.5,0-17.3,7.4-17.3,16.4v48.4h596.3v-48.4C1852.4,159.5,1844.7,152.1,1835.1,152.1z"
			/>
	</g>
	<g class="st8">
		<g>
			<path class="st7" d="M1404.9,196.8l3-3.8c2.3,2,4.8,3.6,8,3.6c2.9,0,4.8-1.6,4.8-3.9l0,0c0-1.9-1-3.2-5.8-5
				c-5.8-2.2-8.8-4.3-8.8-9.2v-0.1c0-5,4-8.5,9.7-8.5c3.5,0,6.8,1.1,9.6,3.6l-2.9,3.9c-2.1-1.7-4.4-2.9-6.8-2.9
				c-2.7,0-4.4,1.5-4.4,3.5l0,0c0,2.1,1.1,3.3,6.3,5.3c5.7,2.2,8.3,4.5,8.3,9v0.1c0,5.4-4.2,8.8-9.9,8.8
				C1412,201.2,1408.2,199.9,1404.9,196.8z"/>
			<path class="st7" d="M1436.4,175.1h-8v-4.7h21.1v4.7h-8v25.8h-5L1436.4,175.1L1436.4,175.1z"/>
			<path class="st7" d="M1451.7,185.8v-0.4c0-9.1,5.6-15.5,13.5-15.5s13.4,6.4,13.4,15.4v0.4c0,9.1-5.6,15.5-13.5,15.5
				C1457.2,201.3,1451.7,194.9,1451.7,185.8z M1473.4,185.8v-0.3c0-6.5-3.5-10.9-8.3-10.9s-8.2,4.3-8.2,10.9v0.3
				c0,6.5,3.5,10.9,8.3,10.9C1470,196.6,1473.4,192.3,1473.4,185.8z"/>
			<path class="st7" d="M1484.1,170.4h11c3.5,0,6.3,1,8.1,2.9c1.6,1.6,2.5,3.9,2.5,6.7v0.2c0,4.7-2.6,7.6-6.3,8.9l7.2,11.8h-5.8
				l-6.5-10.8c-0.1,0-0.2,0-0.3,0h-4.9v10.7h-5L1484.1,170.4L1484.1,170.4z M1494.6,185.5c3.9,0,6.1-2.1,6.1-5.3v-0.1
				c0-3.4-2.2-5.2-6-5.2h-5.5v10.6H1494.6z"/>
			<path class="st7" d="M1511.3,170.4h19.2v4.6h-14.2v8.3h12.6v4.6h-12.6v8.5h14.4v4.6h-19.4V170.4z"/>
			<path class="st7" d="M1536,170.4h9.3c8.7,0,14.4,6.1,14.4,15v0.3c0,8.9-5.7,15.1-14.4,15.1h-9.3V170.4z M1541,174.9v21.3h4.2
				c5.6,0,9.3-4,9.3-10.5v-0.3c0-6.6-3.7-10.6-9.3-10.6h-4.2V174.9z"/>
			<path class="st7" d="M1576.4,170.4h19.2v4.6h-14.2v8.3h12.6v4.6h-12.6v8.5h14.4v4.6h-19.4V170.4z"/>
			<path class="st7" d="M1598.9,170.4h5.5l7.5,23l7.5-23h5.3l-10.5,30.6h-4.7L1598.9,170.4z"/>
			<path class="st7" d="M1629,170.4h19.2v4.6H1634v8.3h12.6v4.6H1634v8.5h14.4v4.6H1629V170.4z"/>
			<path class="st7" d="M1653.7,170.4h4.7l13.4,20.3v-20.3h4.9v30.5h-4.3l-13.8-20.9v20.9h-5v-30.5H1653.7z"/>
			<path class="st7" d="M1689.4,175.1h-8v-4.7h21.1v4.7h-8v25.8h-5L1689.4,175.1L1689.4,175.1z"/>
			<path class="st7" d="M1704.5,196.8l3-3.8c2.3,2,4.8,3.6,8,3.6c2.9,0,4.8-1.6,4.8-3.9l0,0c0-1.9-1-3.2-5.8-5
				c-5.8-2.2-8.8-4.3-8.8-9.2v-0.1c0-5,4-8.5,9.7-8.5c3.5,0,6.8,1.1,9.6,3.6l-2.9,3.9c-2.1-1.7-4.4-2.9-6.8-2.9
				c-2.7,0-4.4,1.5-4.4,3.5l0,0c0,2.1,1.1,3.3,6.3,5.3c5.7,2.2,8.3,4.5,8.3,9v0.1c0,5.4-4.2,8.8-9.9,8.8
				C1711.6,201.2,1707.8,199.9,1704.5,196.8z"/>
		</g>
	</g>
	<g>
		<g class="st1">
			<path class="st2" d="M1414.2,893.6l40.1,142.8c0,0,4.6,15,18.7,15.8c14.3,0.8,444.3,6.7,444.3,6.7s35-0.2,27-12.4
				c-8-12.1-93-170.9-93-170.9s-7.6-13.6-29.9-13.2c-21.3,0.4-374.4,17.3-392,17.8C1416.6,880.6,1413.8,886.3,1414.2,893.6z"/>
		</g>
		<g>
			<g>
				<path class="st0" d="M1949.3,1035.9h-474.7c-2.5,0-4.6-2.1-4.6-4.6V655.5c0-2.5,2.1-4.6,4.6-4.6h474.7c2.5,0,4.6,2.1,4.6,4.6
					v375.8C1954,1033.8,1951.9,1035.9,1949.3,1035.9z"/>
			</g>
			<g>
				<path class="st9" d="M1934,1037.8h-444c-12.2,0-22.1-8.8-22.1-19.5V668.5c0-10.8,9.9-19.5,22.1-19.5h444
					c12.2,0,22.1,8.8,22.1,19.5v349.8C1956.1,1029.1,1946.2,1037.8,1934,1037.8z M1490,652.8c-9.8,0-17.8,7.1-17.8,15.7v349.8
					c0,8.7,8,15.7,17.8,15.7h444c9.8,0,17.8-7.1,17.8-15.7V668.5c0-8.7-8-15.7-17.8-15.7H1490z"/>
			</g>
		</g>
		<g class="st4">
			<path class="st9" d="M1925.9,657.6h-432c-9.5,0-17.3,7.4-17.3,16.4v48.4h466.6V674C1943.2,665,1935.4,657.6,1925.9,657.6z"/>
		</g>
	</g>
	<g>
		<g>
			<path class="st10" d="M673.5,240c-5.6,0-11.2,0-16.8-0.1l0.1-4.3c8.1,0.1,16.2,0.1,24.5,0.1v4.3C678.7,240,676.1,240,673.5,240z
				 M693.6,239.9l-0.1-4.3c10-0.1,20.3-0.4,30.6-0.8l0.2,4.3C713.9,239.5,703.6,239.7,693.6,239.9z M645.1,239.7
				c-7.8-0.2-15.6-0.4-23.3-0.8l0.2-4.3c7.7,0.3,15.4,0.6,23.2,0.8L645.1,239.7z M734.6,238.7l-0.2-4.3c7.7-0.3,15.5-0.7,23.2-1.1
				l0.2,4.3C750.1,238,742.4,238.4,734.6,238.7z M611.4,238.4c-10.5-0.6-20.8-1.3-30.6-2.2l0.4-4.3c9.8,0.9,20,1.6,30.5,2.2
				L611.4,238.4z M769.5,236.9l-0.3-4.3c8.1-0.5,16.3-1.1,24.4-1.7l0.3,4.3C785.9,235.8,777.7,236.4,769.5,236.9z M568.5,234.9
				c-8.4-0.9-16.6-1.9-24.4-3.1l0.6-4.3c7.8,1.1,15.9,2.1,24.2,3L568.5,234.9z M806.3,234.2l-0.4-4.3c10.2-0.8,20.4-1.7,30.5-2.7
				l0.4,4.3C826.7,232.5,816.5,233.4,806.3,234.2z M847.3,230.5l-0.4-4.3c7.8-0.8,15.5-1.6,23.1-2.4l0.5,4.3
				C862.8,228.9,855,229.8,847.3,230.5z M532.6,230.1c-7.9-1.3-15.6-2.7-23-4.3l0.9-4.2c7.3,1.5,15,3,22.8,4.2L532.6,230.1z
				 M882,226.8l-0.5-4.3c8.2-0.9,16.3-1.9,24.3-2.9l0.5,4.3C898.3,224.9,890.2,225.9,882,226.8z M499.4,223.6
				c-10.4-2.4-20.4-5.1-29.7-8.1l1.3-4.1c9.2,2.9,19.1,5.6,29.4,8L499.4,223.6z M918.5,222.3l-0.6-4.3c10.3-1.3,20.4-2.7,30.3-4.1
				l0.6,4.3C939,219.6,928.8,221,918.5,222.3z M959.3,216.7l-0.6-4.3c7.8-1.1,15.5-2.3,23-3.4l0.7,4.3
				C974.7,214.5,967.1,215.6,959.3,216.7z M993.8,211.5l-0.7-4.3c8.2-1.3,16.3-2.6,24.2-3.9l0.7,4.3
				C1010.2,208.9,1002.1,210.2,993.8,211.5z M458.1,211.5c-8-2.9-15.7-6.1-22.8-9.4l1.8-3.9c7,3.3,14.5,6.4,22.4,9.3L458.1,211.5z
				 M1030.1,205.6l-0.7-4.3c10.4-1.8,20.5-3.6,30.2-5.3l0.8,4.3C1050.7,202,1040.6,203.8,1030.1,205.6z M1070.6,198.4l-0.8-4.2
				c8-1.5,15.6-2.9,22.9-4.3l0.8,4.2C1086.2,195.5,1078.6,196.9,1070.6,198.4z M1104.9,191.8l-0.8-4.2c8.6-1.7,16.6-3.4,24-4.9
				l0.9,4.2C1121.6,188.4,1113.6,190.1,1104.9,191.8z M1141,184.2l-0.9-4.2c10.5-2.3,19.8-4.5,27-6.3l1.1,4.2
				C1160.9,179.8,1151.5,181.9,1141,184.2z"/>
		</g>
		<g>
			<path class="st10" d="M1148.7,214.9c-0.4,0-0.7-0.1-1.1-0.3c-1-0.6-1.4-1.9-0.8-2.9l20.8-37l-34.3-25.1c-1-0.7-1.2-2.1-0.5-3
				c0.7-1,2.1-1.2,3-0.5l35.8,26.3c0.9,0.6,1.1,1.8,0.6,2.8l-21.7,38.7C1150.2,214.5,1149.4,214.9,1148.7,214.9z"/>
		</g>
	</g>
	<g class="st11">
		<circle class="st10" cx="809" cy="223.4" r="123.1"/>
	</g>
	<g class="st11">
		<circle class="st10" cx="809" cy="223.4" r="97.2"/>
	</g>
	<g>
		<circle class="st0" cx="809" cy="223.4" r="79.9"/>
	</g>
	<g>
		<path class="st10" d="M766.2,214.7h17.7l-1.4,5.4h-11.7l-1.3,5.8h10.3l-1.4,5.3h-10.3l-1.4,6h11.9l-1.4,5.4h-17.9L766.2,214.7z"/>
		<path class="st10" d="M784.4,221h6.1l0.2,14.2l6.9-14.2h6.3l-12.3,21.7h-5.4L784.4,221z"/>
		<path class="st10" d="M808.1,233.9c0.1,2.7,1.3,4.3,3.5,4.3c1.6,0,2.6-0.5,4.1-1.6l2.5,4c-1.8,1.4-4.1,2.3-6.8,2.3
			c-5.6,0-8.8-3.6-8.8-9.4c0-3.7,1.5-7.4,4-9.9c1.9-1.9,4.2-3.1,7.2-3.1c4.6,0,7.6,3.3,7.6,8c0,1.4-0.3,3.2-1,5.3L808.1,233.9
			L808.1,233.9z M808.6,230.2h7.2c0.2-0.8,0.2-1.2,0.2-1.9c0-1.7-0.9-2.9-2.6-2.9c-1.1,0-2.1,0.5-2.9,1.3
			C809.6,227.5,809,228.8,808.6,230.2z"/>
		<path class="st10" d="M827.2,221h5.9l-0.5,2c1.2-1.2,2.9-2.3,5-2.3c3.1,0,5.2,2,5.2,5.5c0,1.1-0.3,2.7-0.7,4.3l-2.9,12.1h-6
			l2.9-12.1c0.2-1,0.4-1.9,0.4-2.3c0-1.4-0.7-2.1-2.1-2.1c-1.8,0-3,1.6-3.5,3.6l-3.1,12.9h-5.9L827.2,221z"/>
		<path class="st10" d="M845.3,238.7c0-0.9,0.2-1.8,0.4-2.8l2.4-9.8h-2.3l1.3-5.1h2.2l1.3-5.3h6l-1.3,5.3h3.8l-1.3,5.1h-3.7
			l-2.4,9.7c-0.1,0.4-0.1,0.7-0.1,0.9c0,0.5,0.4,0.9,1.2,0.9s1.8-0.2,2.5-0.6l-1.3,5c-1,0.5-2.5,0.8-4,0.8
			C846.9,242.8,845.3,241.1,845.3,238.7z"/>
	</g>
	<g>
		<path class="st3" d="M839.7,581.5l-3.5-2.5c4.6-6.5,10.1-12.7,16.6-18.6l2.9,3.2C849.4,569.3,844.1,575.3,839.7,581.5z
			 M864.4,556.3l-2.6-3.4c5.9-4.5,12.5-8.9,19.6-13l2.2,3.7C876.6,547.6,870.2,551.9,864.4,556.3z M892.6,538.7l-2-3.8
			c8.6-4.4,18.1-8.6,28.2-12.4l1.5,4C910.5,530.3,901.1,534.4,892.6,538.7z M931.9,522.4l-1.4-4.1c7.4-2.5,15.4-4.9,23.6-7.2
			l1.1,4.2C947.1,517.5,939.3,519.9,931.9,522.4z M966.5,512.3l-1-4.2c7.3-1.8,15-3.5,22.8-5.1l0.9,4.2
			C981.3,508.8,973.7,510.5,966.5,512.3z M999.3,505.2l-0.8-4.2c9.7-1.8,19.9-3.5,30.3-5l0.6,4.3
			C1019.1,501.8,1009,503.4,999.3,505.2z M1041.6,498.7l-0.5-4.3c8-1,16.2-1.9,24.4-2.8l0.4,4.3
			C1057.7,496.7,1049.5,497.6,1041.6,498.7z M1077.5,494.8l-0.4-4.3c8.1-0.7,15.8-1.3,23.3-1.7l0.3,4.3
			C1093.2,493.6,1085.5,494.2,1077.5,494.8z M1111,492.5l-0.2-4.3c10.3-0.5,20.6-0.9,30.7-1.2l0.1,4.3
			C1131.6,491.6,1121.3,492,1111,492.5z M1178.3,491.3c0,0-9.2-0.3-24.4-0.1v-4.3c15.4-0.2,24.6,0.1,24.6,0.1L1178.3,491.3z"/>
	</g>
	<g>
		<g>
			<path class="st3" d="M1412.9,809.5c-0.5,0-1-0.2-1.4-0.6c-0.9-0.8-1-2.2-0.2-3.1l28.4-31.6l-27.9-32.1c-0.8-0.9-0.7-2.3,0.2-3
				c0.9-0.8,2.3-0.7,3,0.2l30.4,34.9l-30.9,34.4C1414.1,809.2,1413.5,809.5,1412.9,809.5z"/>
		</g>
		<g>
			<path class="st3" d="M1374.5,779.9v-4.3c7.8,0,15.6-0.1,23.2-0.3l0.1,4.3C1390.1,779.8,1382.3,779.9,1374.5,779.9z M1364,779.9
				c-10.1-0.1-20.4-0.3-30.7-0.7l0.2-4.3c10.2,0.4,20.5,0.6,30.6,0.7L1364,779.9z M1409.4,779.2l-0.2-4.3c4.4-0.2,8.8-0.4,13.2-0.6
				l0.2,4.3C1418.2,778.8,1413.8,779,1409.4,779.2z M1321.1,778.7c-8.2-0.4-16.4-0.9-24.5-1.5l0.3-4.3c8.1,0.6,16.2,1.1,24.4,1.5
				L1321.1,778.7z M1284.9,776.2c-7.8-0.6-15.6-1.4-23.2-2.2l0.4-4.3c7.6,0.8,15.4,1.5,23.1,2.2L1284.9,776.2z M1251.3,773
				c-10.1-1.1-20.3-2.4-30.5-3.8l0.6-4.3c10.1,1.4,20.3,2.7,30.3,3.8L1251.3,773z M1208.7,767.4c-8.2-1.2-16.3-2.5-24.2-3.8l0.7-4.3
				c7.9,1.3,16,2.6,24.2,3.8L1208.7,767.4z M1173,761.6c-7.8-1.4-15.4-2.8-22.9-4.3l0.8-4.2c7.5,1.5,15.1,2.9,22.9,4.3L1173,761.6z
				 M1139.8,755.3c-10-2-20.1-4.2-30-6.5l1-4.2c9.9,2.2,20,4.4,29.9,6.4L1139.8,755.3z M1097.9,746.1c-8.3-2-16.2-3.9-23.8-5.9
				l1.1-4.2c7.6,1.9,15.5,3.9,23.8,5.8L1097.9,746.1z M1062.7,737.3c-7.9-2.1-15.4-4.2-22.5-6.2l1.2-4.2c7.1,2,14.5,4.1,22.4,6.2
				L1062.7,737.3z M1030.2,728.2c-10-2.9-19.9-6-29.4-9l1.3-4.1c9.4,3,19.3,6,29.3,9L1030.2,728.2z M989.2,715.4
				c-14.8-5-23.2-8.2-23.3-8.2l1.6-4c0.1,0,8.3,3.2,23.1,8.1L989.2,715.4z"/>
		</g>
	</g>
	<g class="st1">
		<rect x="1258.3" y="290.3" class="st3" width="587.6" height="4.3"/>
	</g>
	<g class="st1">
		<rect x="1260.5" y="368.1" class="st3" width="587.6" height="4.3"/>
	</g>
	<g class="st1">
		<rect x="1260.5" y="445.9" class="st3" width="587.6" height="4.3"/>
	</g>
	<g>
		<path d="M1300.4,239.3h17.2v4.1h-12.7v7.4h11.2v4.1h-11.2v7.6h12.9v4.1h-17.3L1300.4,239.3L1300.4,239.3z"/>
		<path d="M1320,245.9h4.6l4.6,15l4.7-15h4.6l-7.2,20.8h-4.1L1320,245.9z"/>
		<path d="M1339.8,256.4v-0.3c0-6.2,3.7-10.6,8.8-10.6c5.6,0,8.6,4.7,8.6,10.9c0,0.3,0,0.9,0,1.5h-12.9c0.4,3.5,2.5,5.3,5.2,5.3
			c1.9,0,3.4-0.9,4.7-2.2l2.3,2.7c-1.9,2-4.2,3.2-7.2,3.2C1343.9,266.9,1339.8,262.9,1339.8,256.4z M1352.9,254.8
			c-0.2-3.3-1.7-5.6-4.3-5.6c-2.4,0-4.1,2.1-4.4,5.6H1352.9z"/>
		<path d="M1361.1,245.9h4.4v3c1.2-1.8,2.8-3.4,5.6-3.4c4,0,6.3,2.8,6.3,7.2v13.8h-4.4v-12.6c0-2.9-1.4-4.5-3.7-4.5
			c-2.3,0-3.9,1.7-3.9,4.6v12.5h-4.4L1361.1,245.9L1361.1,245.9z"/>
		<path d="M1383.1,261.5v-11.9h-2.3v-3.8h2.3v-5.6h4.4v5.6h4.6v3.8h-4.6v11c0,1.6,0.8,2.3,2.2,2.3c0.9,0,1.6-0.2,2.4-0.6v3.6
			c-1,0.5-2.2,0.9-3.7,0.9C1385.4,266.8,1383.1,265.5,1383.1,261.5z"/>
		<path d="M1409.5,243.8l-4.3,1.3l-0.7-3.9l6.3-2.1h3.2v27.4h-4.5V243.8z"/>
	</g>
	<g>
		<path d="M1300.4,321.4h17.2v4.1h-12.7v7.4h11.2v4.1h-11.2v7.6h12.9v4.1h-17.3L1300.4,321.4L1300.4,321.4z"/>
		<path d="M1320,328h4.6l4.6,15l4.7-15h4.6l-7.2,20.8h-4.1L1320,328z"/>
		<path d="M1339.8,338.5v-0.3c0-6.2,3.7-10.6,8.8-10.6c5.6,0,8.6,4.7,8.6,10.9c0,0.3,0,0.9,0,1.5h-12.9c0.4,3.5,2.5,5.3,5.2,5.3
			c1.9,0,3.4-0.9,4.7-2.2l2.3,2.7c-1.9,2-4.2,3.2-7.2,3.2C1343.9,349,1339.8,345,1339.8,338.5z M1352.9,336.9
			c-0.2-3.3-1.7-5.6-4.3-5.6c-2.4,0-4.1,2.1-4.4,5.6H1352.9z"/>
		<path d="M1361.1,328h4.4v3c1.2-1.8,2.8-3.4,5.6-3.4c4,0,6.3,2.8,6.3,7.2v13.8h-4.4V336c0-2.9-1.4-4.5-3.7-4.5
			c-2.3,0-3.9,1.7-3.9,4.6v12.5h-4.4L1361.1,328L1361.1,328z"/>
		<path d="M1383.1,343.6v-11.9h-2.3v-3.8h2.3v-5.6h4.4v5.6h4.6v3.8h-4.6v11c0,1.6,0.8,2.3,2.2,2.3c0.9,0,1.6-0.2,2.4-0.6v3.6
			c-1,0.5-2.2,0.9-3.7,0.9C1385.4,348.9,1383.1,347.6,1383.1,343.6z"/>
		<path d="M1405.3,345l8.3-8.9c3.1-3.2,4.2-4.9,4.2-7.1c0-2.5-1.8-3.9-4-3.9c-2.1,0-3.7,1.2-5.4,3.5l-3-2.8c2.3-3.1,4.9-4.9,8.8-4.9
			c4.7,0,8.2,3,8.2,7.7v0.1c0,3.7-1.7,5.9-5.7,9.9l-5.4,5.9h11.2v4.1h-17.2V345z"/>
	</g>
	<g>
		<path d="M1300.4,394.8h17.2v4.1h-12.7v7.4h11.2v4.1h-11.2v7.6h12.9v4.1h-17.3L1300.4,394.8L1300.4,394.8z"/>
		<path d="M1320,401.4h4.6l4.6,15l4.7-15h4.6l-7.2,20.8h-4.1L1320,401.4z"/>
		<path d="M1339.8,412v-0.3c0-6.2,3.7-10.6,8.8-10.6c5.6,0,8.6,4.7,8.6,10.9c0,0.3,0,0.9,0,1.5h-12.9c0.4,3.5,2.5,5.3,5.2,5.3
			c1.9,0,3.4-0.9,4.7-2.2l2.3,2.7c-1.9,2-4.2,3.2-7.2,3.2C1343.9,422.5,1339.8,418.4,1339.8,412z M1352.9,410.4
			c-0.2-3.3-1.7-5.6-4.3-5.6c-2.4,0-4.1,2.1-4.4,5.6H1352.9z"/>
		<path d="M1361.1,401.4h4.4v3c1.2-1.8,2.8-3.4,5.6-3.4c4,0,6.3,2.8,6.3,7.2V422h-4.4v-12.6c0-2.9-1.4-4.5-3.7-4.5
			c-2.3,0-3.9,1.7-3.9,4.6V422h-4.4L1361.1,401.4L1361.1,401.4z"/>
		<path d="M1383.1,417.1v-11.9h-2.3v-3.8h2.3v-5.6h4.4v5.6h4.6v3.8h-4.6v11c0,1.6,0.8,2.3,2.2,2.3c0.9,0,1.6-0.2,2.4-0.6v3.6
			c-1,0.5-2.2,0.9-3.7,0.9C1385.4,422.3,1383.1,421.1,1383.1,417.1z"/>
		<path d="M1404.8,418.7l2.8-3.2c1.5,1.6,3.3,2.8,5.9,2.8c2.5,0,4.5-1.7,4.5-4.3v-0.1c0-2.8-2.4-4.4-6.2-4.4h-1.4l-0.6-2.8l6.6-7.9
			h-10.3v-4h15.9v3.5l-6.9,7.9c3.8,0.6,7.2,2.8,7.2,7.5v0.1c0,5.1-3.7,8.6-8.9,8.6C1409.7,422.5,1406.8,420.9,1404.8,418.7z"/>
	</g>
	<g>
		<path class="st9" d="M1925.9,774.3h-436.4c-4.8,0-8.6-3.9-8.6-8.6c0-4.8,3.9-8.6,8.6-8.6h436.4c4.8,0,8.6,3.9,8.6,8.6
			C1934.5,770.4,1930.7,774.3,1925.9,774.3z"/>
	</g>
	<g>
		<path class="st9" d="M1861.1,842h-371.6c-4.8,0-8.6-3.9-8.6-8.6s3.9-8.6,8.6-8.6h371.6c4.8,0,8.6,3.9,8.6,8.6
			S1865.8,842,1861.1,842z"/>
	</g>
	<g>
		<path class="st9" d="M1796.3,909.6h-306.8c-4.8,0-8.6-3.9-8.6-8.6s3.9-8.6,8.6-8.6h306.8c4.8,0,8.6,3.9,8.6,8.6
			S1801,909.6,1796.3,909.6z"/>
	</g>
	<g>
		<path class="st9" d="M1633.1,674.9h4.4l10.1,27.7h-4.8l-2.3-6.5h-10.7l-2.3,6.5h-4.6L1633.1,674.9z M1639.1,692.1l-3.9-11.1
			l-3.9,11.1H1639.1z"/>
		<path class="st9" d="M1649.2,689v-0.3c0-8.4,5.2-14.1,12.3-14.1c3.9,0,6.4,1.4,8.7,3.4l-2.8,3.5c-1.6-1.5-3.4-2.7-5.9-2.7
			c-4.3,0-7.6,3.9-7.6,9.8v0.2c0,6,3.3,9.9,7.6,9.9c2.6,0,4.4-1.2,6.1-2.9l2.7,3.2c-2.4,2.5-5.2,3.9-9,3.9
			C1654.2,703,1649.2,697.4,1649.2,689z"/>
		<path class="st9" d="M1672.6,689v-0.3c0-8.4,5.2-14.1,12.3-14.1c3.9,0,6.4,1.4,8.7,3.4l-2.8,3.5c-1.6-1.5-3.4-2.7-5.9-2.7
			c-4.3,0-7.6,3.9-7.6,9.8v0.2c0,6,3.3,9.9,7.6,9.9c2.6,0,4.4-1.2,6.1-2.9l2.7,3.2c-2.4,2.5-5.2,3.9-9,3.9
			C1677.7,703,1672.6,697.4,1672.6,689z"/>
		<path class="st9" d="M1696.1,689.1v-0.4c0-8.2,5-14.1,12.3-14.1c7.2,0,12.2,5.8,12.2,14v0.4c0,8.2-5,14.1-12.3,14.1
			C1701.1,703.1,1696.1,697.2,1696.1,689.1z M1715.8,689v-0.3c0-5.9-3.2-9.9-7.5-9.9s-7.4,3.9-7.4,9.9v0.3c0,5.9,3.2,9.9,7.5,9.9
			C1712.7,698.9,1715.8,695,1715.8,689z"/>
		<path class="st9" d="M1725.2,692.1V675h4.6v17c0,4.5,2.2,6.8,5.7,6.8s5.7-2.2,5.7-6.6V675h4.5v16.9c0,7.4-4.1,11.1-10.3,11.1
			C1729.2,703.1,1725.2,699.3,1725.2,692.1z"/>
		<path class="st9" d="M1751.4,675.1h4.3l12.1,18.4v-18.4h4.5v27.6h-3.9l-12.5-19v19h-4.5V675.1z"/>
		<path class="st9" d="M1783.7,679.3h-7.3V675h19.1v4.3h-7.3v23.3h-4.6v-23.3H1783.7z"/>
		<path class="st9" d="M1797.4,699l2.8-3.4c2,1.9,4.3,3.3,7.3,3.3c2.6,0,4.3-1.5,4.3-3.5l0,0c0-1.7-0.9-2.9-5.3-4.5
			c-5.2-2-8-3.9-8-8.3v-0.1c0-4.5,3.6-7.7,8.7-7.7c3.2,0,6.1,1,8.7,3.2l-2.6,3.5c-1.9-1.5-4-2.6-6.2-2.6c-2.5,0-4,1.4-4,3.2l0,0
			c0,1.9,1,3,5.7,4.8c5.1,2,7.5,4.1,7.5,8.1v0.1c0,4.8-3.8,8-8.9,8C1803.8,703,1800.4,701.8,1797.4,699z"/>
	</g>
</g>
</svg>
