<?xml version="1.0" encoding="utf-8"?>
<!-- Generator: Adobe Illustrator 23.0.3, SVG Export Plug-In . SVG Version: 6.00 Build 0)  -->
<svg version="1.1" id="Layer_1" xmlns="http://www.w3.org/2000/svg" xmlns:xlink="http://www.w3.org/1999/xlink" x="0px" y="0px"
	 viewBox="0 0 2048 674" style="enable-background:new 0 0 2048 674;" xml:space="preserve">
<style type="text/css">
	.st0{fill:#FFFFFF;}
	.st1{opacity:0.5;}
	.st2{fill:#DEE1E0;}
	.st3{fill:#197593;}
	.st4{opacity:0.25;}
	.st5{fill:#CAE1E8;}
	.st6{opacity:0.35;}
	.st7{fill:#004966;}
	.st8{opacity:0.48;}
	.st9{fill:#0A9181;}
	.st10{opacity:0.1;}
</style>
<g>
	<rect class="st0" width="2048" height="674"/>
</g>
<g id="_x30_3">
	<g class="st1">
		<path class="st2" d="M1847.9,572.1c-2.2-6.1-73.3-146.7-73.3-146.7s-259-76-273-76.1c-7.3,0-71.7,45.4-152.4,30.7
			c-39,24.5-81,30.4-126.4,7.9c-4.2-2.1-7.4-5.4-11-8.5c-5-4.3-7.9-10.6-7.8-15.7c0.2-26.3,1.9-83.3,0-85.8V255
			c0,0-51.8,2.2-53.3,2.2c-11.2,0.1-14.3,4-14.9,9.1L1236,566c0,0,1.9,9.1,13,9.2c11.1,0,581.5,4,581.5,4S1850.1,578.2,1847.9,572.1
			z"/>
	</g>
	<g>
		<g>
			<g>
				<path class="st3" d="M1289.6,142.2c-21.5,0-46.3-3.4-65.3-18c-8.8-6.7-17.6-18.7-13.5-30.5c4.3-12.5,44.7-20.4,53.1-21.1l0,0
					c72.2-6.4,117.7-0.3,131.6,17.8c5.2,6.8,6.1,15.2,2.6,25c-4.3,12-20.1,15.4-28.6,17.2c-19.7,4.3-40,7.2-60.1,8.8
					C1303.3,141.8,1296.6,142.2,1289.6,142.2z M1264,75.5c-13.5,1.2-47.4,9.9-50.6,19.2c-3.5,10.3,4.6,21.2,12.6,27.3
					c24.5,18.7,59.1,18.4,83.1,16.6c20-1.5,40.1-4.5,59.7-8.7c11-2.4,23.1-5.7,26.5-15.4c3.2-9,2.5-16.2-2.2-22.3
					C1383.9,80.1,1353.9,67.5,1264,75.5L1264,75.5z"/>
			</g>
		</g>
		<g class="st4">
			<g>
				<path class="st5" d="M1259.4,67c-12.1,1.1-51.2,10.5-55,23.1c-3.8,12.5,4.6,25.9,14.2,34c24.9,21.1,58.7,23,89.7,20.6
					c21.4-1.6,42.8-4.9,63.8-9.7c11.5-2.6,25.3-6.6,29.2-18.9C1421.1,53.7,1291.9,64.1,1259.4,67z"/>
			</g>
		</g>
		<g>
			<g>
				<path class="st3" d="M1288.2,395.8c-24.6,0-49.1-5.4-71.4-16.4c-4.2-2.1-8.8-4.6-11.6-9c-3-4.9-3-10.9-2.9-15.8l1.9-249.9
					c0-0.8,0.6-1.4,1.4-1.4l0,0c0.8,0,1.4,0.6,1.4,1.4l-1.9,249.9c0,4.5-0.1,10.1,2.5,14.3c2.3,3.8,6.6,6.1,10.4,8
					c57,28.3,132.3,17.6,179.3-25.3l0.5-7.3c5.2-74.8,11.2-159.6,1.2-234.5c-0.1-0.8,0.4-1.5,1.2-1.6c0.8-0.1,1.5,0.4,1.6,1.2
					c10,75.2,4.1,160.2-1.2,235.1l-0.6,8.4l-0.4,0.4C1369.4,381.1,1328.8,395.8,1288.2,395.8z"/>
			</g>
		</g>
		<g class="st4">
			<g>
				<path class="st5" d="M1377.5,144.8c-21,4.8-42.3,8-63.8,9.7c-31.1,2.4-64.8,0.5-89.7-20.6c-5.3-4.5-10.2-10.6-12.9-17.2
					c-0.6,82.5-1.3,165.1-1.9,247.6c0,5.2,0,10.7,2.7,15c2.5,4,6.8,6.4,11,8.5c58.1,28.8,110.9,11.1,158.6-32.8
					C1386.8,279.1,1389.1,142.2,1377.5,144.8z"/>
			</g>
		</g>
		<g class="st6">
			<g>
				<path class="st5" d="M1377.5,270.7c-21,4.8-42.2,49.9-63.8,49.9c-95.4,0-99.9-71.4-102.7-78.1c-0.6,82.5-1.3,30.6-1.9,113.1
					c0,5.2,0,10.7,2.7,15c2.5,4,6.8,6.4,11,8.5c58.1,28.8,110.9,11.1,158.6-32.8C1386.8,270.5,1389.1,268.1,1377.5,270.7z"/>
			</g>
		</g>
	</g>
	<g>
		<g class="st1">
			<path class="st2" d="M82.1,335.1l37.6,104.3c0,0,4.1,10.2,17.7,9.3C151,447.9,497,413.6,497,413.6s23.7-2.7,19.9-9.4
				c-3.9-6.7-44.4-103.9-44.4-103.9s-4-9-21-7.9c-16.5,1.1-334.8,29.9-353.1,31.3C84.9,324.6,81.7,329.4,82.1,335.1z"/>
		</g>
		<g>
			<path class="st0" d="M125.7,115.4l27.6,282c0,0,3.1,27.6,15.3,27.6s324.9-30.7,324.9-30.7s21.5-3.1,18.4-21.5s-33.7-282-33.7-282
				s-3.1-24.5-18.4-24.5c-14.9,0-302.3,21-318.8,21.5C128.8,88.1,125.7,100.1,125.7,115.4z"/>
			<path class="st3" d="M168.6,427.2c-13.8,0-17.1-26.5-17.5-29.5l-27.5-282.3c0-12.6,1.8-29.4,17.4-29.7
				c7.4-0.2,71.2-4.7,138.6-9.4c84.4-5.9,171.6-12.1,180.2-12.1c0,0,0,0,0.1,0c17,0.1,20.4,25.3,20.5,26.4
				c0.3,2.7,30.7,263.8,33.7,281.9c0.9,5.5-0.1,10.4-3,14.4c-5.7,7.8-16.7,9.5-17.2,9.6C481,397.8,180.9,427.2,168.6,427.2z
				 M127.9,115.3l27.6,281.9c0.8,7.1,4.7,25.6,13.2,25.6c12,0,321.6-30.3,324.7-30.6c0,0,9.6-1.5,14.2-7.8c2.2-3,3-6.8,2.2-11.1
				c-3-18.2-32.5-271.3-33.7-282.1c0-0.2-3-22.6-16.3-22.6l0,0c-8.3,0-99.4,6.4-179.8,12c-67.5,4.7-131.3,9.2-138.8,9.4
				C132,90.2,127.9,98,127.9,115.3z"/>
		</g>
		<g class="st1">
			<path class="st5" d="M487.4,103c-1.2-11.6-1.9-14.6-1.9-14.6s-3.1-28.2-18.5-28.2S159.5,84.9,147.2,84.9s-15.3,14.1-15.3,31.8
				l1.5,14.1C214.9,123.6,385.2,110.7,487.4,103z"/>
		</g>
		<g>
			<g>
				<path class="st5" d="M156.9,114.4l-8.1,0.6c-0.7,0-1.3-0.5-1.3-1.1l-0.6-8.1c0-0.7,0.5-1.3,1.1-1.3l8.1-0.6
					c0.7,0,1.3,0.5,1.3,1.1l0.6,8.1C158.1,113.8,157.6,114.4,156.9,114.4z"/>
			</g>
			<g>
				<path class="st5" d="M174.4,113.2l-8.1,0.6c-0.7,0-1.3-0.5-1.3-1.1l-0.6-8.1c0-0.7,0.5-1.3,1.1-1.3l8.1-0.6
					c0.7,0,1.3,0.5,1.3,1.1l0.6,8.1C175.6,112.6,175.1,113.1,174.4,113.2z"/>
			</g>
			<g>
				<path class="st5" d="M191.9,112l-8.1,0.6c-0.7,0-1.3-0.5-1.3-1.1l-0.6-8.1c0-0.7,0.5-1.3,1.1-1.3l8.1-0.6c0.7,0,1.3,0.5,1.3,1.1
					l0.6,8.1C193.1,111.3,192.6,111.9,191.9,112z"/>
			</g>
		</g>
	</g>
	<g>
		<g>
			<path class="st0" d="M1858.6,561.7h-604.3c-2.5,0-4.6-2.1-4.6-4.6V181.3c0-2.5,2.1-4.6,4.6-4.6h604.3c2.5,0,4.6,2.1,4.6,4.6
				v375.8C1863.2,559.6,1861.2,561.7,1858.6,561.7z"/>
		</g>
		<g>
			<path class="st3" d="M1843.3,563.6h-573.6c-12.2,0-22.1-8.8-22.1-19.5V194.3c0-10.8,9.9-19.5,22.1-19.5h573.6
				c12.2,0,22.1,8.8,22.1,19.5v349.8C1865.4,554.8,1855.5,563.6,1843.3,563.6z M1269.7,178.6c-9.8,0-17.8,7.1-17.8,15.7v349.8
				c0,8.7,8,15.7,17.8,15.7h573.6c9.8,0,17.8-7.1,17.8-15.7V194.3c0-8.7-8-15.7-17.8-15.7H1269.7z"/>
		</g>
	</g>
	<g>
		<path class="st7" d="M286.9,220.7h9.5l17.4,48.7h-10.4l-3.6-10.5h-16.7l-3.5,10.5h-10.1L286.9,220.7z M296.8,250l-5.3-15.8
			l-5.3,15.8H296.8z"/>
		<path class="st7" d="M319.8,220.9h16.1c10.9,0,17.7,6.3,17.7,16.6v0.1c0,11.1-8,16.7-18.1,16.9h-5.7v14.7h-10V220.9z M335.4,245.6
			c5.2,0,8.1-3.2,8.1-7.7v-0.1c0-5.1-2.9-7.8-8.2-7.8h-5.5v15.6H335.4z"/>
		<path class="st7" d="M360.2,220.9h16.1c10.9,0,17.7,6.3,17.7,16.6v0.1c0,11.1-8,16.7-18.1,16.9h-5.7v14.7h-10V220.9z M375.8,245.6
			c5.2,0,8.1-3.2,8.1-7.7v-0.1c0-5.1-2.9-7.8-8.2-7.8h-5.5v15.6H375.8z"/>
	</g>
	<g class="st1">
		<path class="st5" d="M1835.1,183.4h-561.6c-9.5,0-17.3,7.4-17.3,16.4v48.4h596.3v-48.4C1852.4,190.8,1844.7,183.4,1835.1,183.4z"
			/>
	</g>
	<g class="st8">
		<g>
			<path class="st7" d="M1404.9,228.1l3-3.8c2.3,2,4.8,3.6,8,3.6c2.9,0,4.8-1.6,4.8-3.9l0,0c0-1.9-1-3.2-5.8-5
				c-5.8-2.2-8.8-4.3-8.8-9.2v-0.1c0-5,4-8.5,9.7-8.5c3.5,0,6.8,1.1,9.6,3.6l-2.9,3.9c-2.1-1.7-4.4-2.9-6.8-2.9
				c-2.7,0-4.4,1.5-4.4,3.5l0,0c0,2.1,1.1,3.3,6.3,5.3c5.7,2.2,8.3,4.5,8.3,9v0.1c0,5.4-4.2,8.8-9.9,8.8
				C1412,232.5,1408.2,231.2,1404.9,228.1z"/>
			<path class="st7" d="M1436.4,206.4h-8v-4.7h21.1v4.7h-8v25.8h-5L1436.4,206.4L1436.4,206.4z"/>
			<path class="st7" d="M1451.7,217.1v-0.4c0-9.1,5.6-15.5,13.5-15.5s13.4,6.4,13.4,15.4v0.4c0,9.1-5.6,15.5-13.5,15.5
				C1457.2,232.6,1451.7,226.2,1451.7,217.1z M1473.4,217.1v-0.3c0-6.5-3.5-10.9-8.3-10.9s-8.2,4.3-8.2,10.9v0.3
				c0,6.5,3.5,10.9,8.3,10.9C1470,227.9,1473.4,223.6,1473.4,217.1z"/>
			<path class="st7" d="M1484.1,201.7h11c3.5,0,6.3,1,8.1,2.9c1.6,1.6,2.5,3.9,2.5,6.7v0.2c0,4.7-2.6,7.6-6.3,8.9l7.2,11.8h-5.8
				l-6.5-10.8c-0.1,0-0.2,0-0.3,0h-4.9v10.7h-5L1484.1,201.7L1484.1,201.7z M1494.6,216.8c3.9,0,6.1-2.1,6.1-5.3v-0.1
				c0-3.4-2.2-5.2-6-5.2h-5.5v10.6H1494.6z"/>
			<path class="st7" d="M1511.3,201.7h19.2v4.6h-14.2v8.3h12.6v4.6h-12.6v8.5h14.4v4.6h-19.4V201.7z"/>
			<path class="st7" d="M1536,201.7h9.3c8.7,0,14.4,6.1,14.4,15v0.3c0,8.9-5.7,15.1-14.4,15.1h-9.3V201.7z M1541,206.2v21.3h4.2
				c5.6,0,9.3-4,9.3-10.5v-0.3c0-6.6-3.7-10.6-9.3-10.6h-4.2V206.2z"/>
			<path class="st7" d="M1576.4,201.7h19.2v4.6h-14.2v8.3h12.6v4.6h-12.6v8.5h14.4v4.6h-19.4V201.7z"/>
			<path class="st7" d="M1598.9,201.7h5.5l7.5,23l7.5-23h5.3l-10.5,30.6h-4.7L1598.9,201.7z"/>
			<path class="st7" d="M1629,201.7h19.2v4.6H1634v8.3h12.6v4.6H1634v8.5h14.4v4.6H1629V201.7z"/>
			<path class="st7" d="M1653.7,201.7h4.7l13.4,20.3v-20.3h4.9v30.5h-4.3l-13.8-20.9v20.9h-5v-30.5H1653.7z"/>
			<path class="st7" d="M1689.4,206.4h-8v-4.7h21.1v4.7h-8v25.8h-5L1689.4,206.4L1689.4,206.4z"/>
			<path class="st7" d="M1704.5,228.1l3-3.8c2.3,2,4.8,3.6,8,3.6c2.9,0,4.8-1.6,4.8-3.9l0,0c0-1.9-1-3.2-5.8-5
				c-5.8-2.2-8.8-4.3-8.8-9.2v-0.1c0-5,4-8.5,9.7-8.5c3.5,0,6.8,1.1,9.6,3.6l-2.9,3.9c-2.1-1.7-4.4-2.9-6.8-2.9
				c-2.7,0-4.4,1.5-4.4,3.5l0,0c0,2.1,1.1,3.3,6.3,5.3c5.7,2.2,8.3,4.5,8.3,9v0.1c0,5.4-4.2,8.8-9.9,8.8
				C1711.6,232.5,1707.8,231.2,1704.5,228.1z"/>
		</g>
	</g>
	<g>
		<g>
			<path class="st9" d="M673.5,271.3c-5.6,0-11.2,0-16.8-0.1l0.1-4.3c8.1,0.1,16.2,0.1,24.5,0.1v4.3
				C678.7,271.3,676.1,271.3,673.5,271.3z M693.6,271.2l-0.1-4.3c10-0.1,20.3-0.4,30.6-0.8l0.2,4.3
				C713.9,270.8,703.6,271,693.6,271.2z M645.1,271c-7.8-0.2-15.6-0.4-23.3-0.8l0.2-4.3c7.7,0.3,15.4,0.6,23.2,0.8L645.1,271z
				 M734.6,270l-0.2-4.3c7.7-0.3,15.5-0.7,23.2-1.1l0.2,4.3C750.1,269.3,742.4,269.7,734.6,270z M611.4,269.7
				c-10.5-0.6-20.8-1.3-30.6-2.2l0.4-4.3c9.8,0.9,20,1.6,30.5,2.2L611.4,269.7z M769.5,268.2l-0.3-4.3c8.1-0.5,16.3-1.1,24.4-1.7
				l0.3,4.3C785.9,267.1,777.7,267.7,769.5,268.2z M568.5,266.2c-8.4-0.9-16.6-1.9-24.4-3.1l0.6-4.3c7.8,1.1,15.9,2.1,24.2,3
				L568.5,266.2z M806.3,265.5l-0.4-4.3c10.2-0.8,20.4-1.7,30.5-2.7l0.4,4.3C826.7,263.8,816.5,264.7,806.3,265.5z M847.3,261.8
				l-0.4-4.3c7.8-0.8,15.5-1.6,23.1-2.4l0.5,4.3C862.8,260.2,855,261.1,847.3,261.8z M532.6,261.4c-7.9-1.3-15.6-2.7-23-4.3l0.9-4.2
				c7.3,1.5,15,3,22.8,4.2L532.6,261.4z M882,258.1l-0.5-4.3c8.2-0.9,16.3-1.9,24.3-2.9l0.5,4.3C898.3,256.2,890.2,257.2,882,258.1z
				 M499.4,254.9c-10.4-2.4-20.4-5.1-29.7-8.1l1.3-4.1c9.2,2.9,19.1,5.6,29.4,8L499.4,254.9z M918.5,253.6l-0.6-4.3
				c10.3-1.3,20.4-2.7,30.3-4.1l0.6,4.3C939,250.9,928.8,252.3,918.5,253.6z M959.3,248l-0.6-4.3c7.8-1.1,15.5-2.3,23-3.4l0.7,4.3
				C974.7,245.8,967.1,246.9,959.3,248z M993.8,242.8l-0.7-4.3c8.2-1.3,16.3-2.6,24.2-3.9l0.7,4.3
				C1010.2,240.2,1002.1,241.5,993.8,242.8z M458.1,242.8c-8-2.9-15.7-6.1-22.8-9.4l1.8-3.9c7,3.3,14.5,6.4,22.4,9.3L458.1,242.8z
				 M1030.1,236.9l-0.7-4.3c10.4-1.8,20.5-3.6,30.2-5.3l0.8,4.3C1050.7,233.3,1040.6,235.1,1030.1,236.9z M1070.6,229.7l-0.8-4.2
				c8-1.5,15.6-2.9,22.9-4.3l0.8,4.2C1086.2,226.8,1078.6,228.2,1070.6,229.7z M1104.9,223.1l-0.8-4.2c8.6-1.7,16.6-3.4,24-4.9
				l0.9,4.2C1121.6,219.7,1113.6,221.4,1104.9,223.1z M1141,215.5l-0.9-4.2c10.5-2.3,19.8-4.5,27-6.3l1.1,4.2
				C1160.9,211.1,1151.5,213.2,1141,215.5z"/>
		</g>
		<g>
			<path class="st9" d="M1148.7,246.2c-0.4,0-0.7-0.1-1.1-0.3c-1-0.6-1.4-1.9-0.8-2.9l20.8-37l-34.3-25.1c-1-0.7-1.2-2.1-0.5-3
				c0.7-1,2.1-1.2,3-0.5l35.8,26.3c0.9,0.6,1.1,1.8,0.6,2.8l-21.7,38.7C1150.2,245.8,1149.4,246.2,1148.7,246.2z"/>
		</g>
	</g>
	<g class="st10">
		<circle class="st9" cx="809" cy="254.7" r="123.1"/>
	</g>
	<g class="st10">
		<circle class="st9" cx="809" cy="254.7" r="97.2"/>
	</g>
	<g>
		<circle class="st0" cx="809" cy="254.7" r="79.9"/>
	</g>
	<g>
		<path class="st9" d="M766.2,246h17.7l-1.4,5.4h-11.7l-1.3,5.8h10.3l-1.4,5.3h-10.3l-1.4,6h11.9l-1.4,5.4h-17.9L766.2,246z"/>
		<path class="st9" d="M784.4,252.3h6.1l0.2,14.2l6.9-14.2h6.3L791.6,274h-5.4L784.4,252.3z"/>
		<path class="st9" d="M808.1,265.2c0.1,2.7,1.3,4.3,3.5,4.3c1.6,0,2.6-0.5,4.1-1.6l2.5,4c-1.8,1.4-4.1,2.3-6.8,2.3
			c-5.6,0-8.8-3.6-8.8-9.4c0-3.7,1.5-7.4,4-9.9c1.9-1.9,4.2-3.1,7.2-3.1c4.6,0,7.6,3.3,7.6,8c0,1.4-0.3,3.2-1,5.3h-12.3V265.2z
			 M808.6,261.5h7.2c0.2-0.8,0.2-1.2,0.2-1.9c0-1.7-0.9-2.9-2.6-2.9c-1.1,0-2.1,0.5-2.9,1.3C809.6,258.8,809,260.1,808.6,261.5z"/>
		<path class="st9" d="M827.2,252.3h5.9l-0.5,2c1.2-1.2,2.9-2.3,5-2.3c3.1,0,5.2,2,5.2,5.5c0,1.1-0.3,2.7-0.7,4.3l-2.9,12.1h-6
			l2.9-12.1c0.2-1,0.4-1.9,0.4-2.3c0-1.4-0.7-2.1-2.1-2.1c-1.8,0-3,1.6-3.5,3.6l-3.1,12.9h-5.9L827.2,252.3z"/>
		<path class="st9" d="M845.3,270c0-0.9,0.2-1.8,0.4-2.8l2.4-9.8h-2.3l1.3-5.1h2.2l1.3-5.3h6l-1.3,5.3h3.8l-1.3,5.1h-3.7l-2.4,9.7
			c-0.1,0.4-0.1,0.7-0.1,0.9c0,0.5,0.4,0.9,1.2,0.9s1.8-0.2,2.5-0.6l-1.3,5c-1,0.5-2.5,0.8-4,0.8C846.9,274.1,845.3,272.4,845.3,270
			z"/>
	</g>
	<g class="st1">
		<rect x="1258.3" y="321.6" class="st3" width="587.6" height="4.3"/>
	</g>
	<g class="st1">
		<rect x="1260.5" y="399.4" class="st3" width="587.6" height="4.3"/>
	</g>
	<g class="st1">
		<rect x="1260.5" y="477.2" class="st3" width="587.6" height="4.3"/>
	</g>
	<g>
		<path d="M1300.4,270.6h17.2v4.1h-12.7v7.4h11.2v4.1h-11.2v7.6h12.9v4.1h-17.3L1300.4,270.6L1300.4,270.6z"/>
		<path d="M1320,277.2h4.6l4.6,15l4.7-15h4.6l-7.2,20.8h-4.1L1320,277.2z"/>
		<path d="M1339.8,287.7v-0.3c0-6.2,3.7-10.6,8.8-10.6c5.6,0,8.6,4.7,8.6,10.9c0,0.3,0,0.9,0,1.5h-12.9c0.4,3.5,2.5,5.3,5.2,5.3
			c1.9,0,3.4-0.9,4.7-2.2l2.3,2.7c-1.9,2-4.2,3.2-7.2,3.2C1343.9,298.2,1339.8,294.2,1339.8,287.7z M1352.9,286.1
			c-0.2-3.3-1.7-5.6-4.3-5.6c-2.4,0-4.1,2.1-4.4,5.6H1352.9z"/>
		<path d="M1361.1,277.2h4.4v3c1.2-1.8,2.8-3.4,5.6-3.4c4,0,6.3,2.8,6.3,7.2v13.8h-4.4v-12.6c0-2.9-1.4-4.5-3.7-4.5
			c-2.3,0-3.9,1.7-3.9,4.6v12.5h-4.4L1361.1,277.2L1361.1,277.2z"/>
		<path d="M1383.1,292.8v-11.9h-2.3v-3.8h2.3v-5.6h4.4v5.6h4.6v3.8h-4.6v11c0,1.6,0.8,2.3,2.2,2.3c0.9,0,1.6-0.2,2.4-0.6v3.6
			c-1,0.5-2.2,0.9-3.7,0.9C1385.4,298.1,1383.1,296.8,1383.1,292.8z"/>
		<path d="M1409.5,275.1l-4.3,1.3l-0.7-3.9l6.3-2.1h3.2v27.4h-4.5V275.1z"/>
	</g>
	<g>
		<path d="M1300.4,352.7h17.2v4.1h-12.7v7.4h11.2v4.1h-11.2v7.6h12.9v4.1h-17.3L1300.4,352.7L1300.4,352.7z"/>
		<path d="M1320,359.3h4.6l4.6,15l4.7-15h4.6l-7.2,20.8h-4.1L1320,359.3z"/>
		<path d="M1339.8,369.8v-0.3c0-6.2,3.7-10.6,8.8-10.6c5.6,0,8.6,4.7,8.6,10.9c0,0.3,0,0.9,0,1.5h-12.9c0.4,3.5,2.5,5.3,5.2,5.3
			c1.9,0,3.4-0.9,4.7-2.2l2.3,2.7c-1.9,2-4.2,3.2-7.2,3.2C1343.9,380.3,1339.8,376.3,1339.8,369.8z M1352.9,368.2
			c-0.2-3.3-1.7-5.6-4.3-5.6c-2.4,0-4.1,2.1-4.4,5.6H1352.9z"/>
		<path d="M1361.1,359.3h4.4v3c1.2-1.8,2.8-3.4,5.6-3.4c4,0,6.3,2.8,6.3,7.2v13.8h-4.4v-12.6c0-2.9-1.4-4.5-3.7-4.5
			c-2.3,0-3.9,1.7-3.9,4.6v12.5h-4.4L1361.1,359.3L1361.1,359.3z"/>
		<path d="M1383.1,374.9V363h-2.3v-3.8h2.3v-5.6h4.4v5.6h4.6v3.8h-4.6v11c0,1.6,0.8,2.3,2.2,2.3c0.9,0,1.6-0.2,2.4-0.6v3.6
			c-1,0.5-2.2,0.9-3.7,0.9C1385.4,380.2,1383.1,378.9,1383.1,374.9z"/>
		<path d="M1405.3,376.3l8.3-8.9c3.1-3.2,4.2-4.9,4.2-7.1c0-2.5-1.8-3.9-4-3.9c-2.1,0-3.7,1.2-5.4,3.5l-3-2.8
			c2.3-3.1,4.9-4.9,8.8-4.9c4.7,0,8.2,3,8.2,7.7v0.1c0,3.7-1.7,5.9-5.7,9.9l-5.4,5.9h11.2v4.1h-17.2V376.3z"/>
	</g>
	<g>
		<path d="M1300.4,426.1h17.2v4.1h-12.7v7.4h11.2v4.1h-11.2v7.6h12.9v4.1h-17.3L1300.4,426.1L1300.4,426.1z"/>
		<path d="M1320,432.7h4.6l4.6,15l4.7-15h4.6l-7.2,20.8h-4.1L1320,432.7z"/>
		<path d="M1339.8,443.3V443c0-6.2,3.7-10.6,8.8-10.6c5.6,0,8.6,4.7,8.6,10.9c0,0.3,0,0.9,0,1.5h-12.9c0.4,3.5,2.5,5.3,5.2,5.3
			c1.9,0,3.4-0.9,4.7-2.2l2.3,2.7c-1.9,2-4.2,3.2-7.2,3.2C1343.9,453.8,1339.8,449.7,1339.8,443.3z M1352.9,441.7
			c-0.2-3.3-1.7-5.6-4.3-5.6c-2.4,0-4.1,2.1-4.4,5.6H1352.9z"/>
		<path d="M1361.1,432.7h4.4v3c1.2-1.8,2.8-3.4,5.6-3.4c4,0,6.3,2.8,6.3,7.2v13.8h-4.4v-12.6c0-2.9-1.4-4.5-3.7-4.5
			c-2.3,0-3.9,1.7-3.9,4.6v12.5h-4.4L1361.1,432.7L1361.1,432.7z"/>
		<path d="M1383.1,448.4v-11.9h-2.3v-3.8h2.3v-5.6h4.4v5.6h4.6v3.8h-4.6v11c0,1.6,0.8,2.3,2.2,2.3c0.9,0,1.6-0.2,2.4-0.6v3.6
			c-1,0.5-2.2,0.9-3.7,0.9C1385.4,453.6,1383.1,452.4,1383.1,448.4z"/>
		<path d="M1404.8,450l2.8-3.2c1.5,1.6,3.3,2.8,5.9,2.8c2.5,0,4.5-1.7,4.5-4.3v-0.1c0-2.8-2.4-4.4-6.2-4.4h-1.4l-0.6-2.8l6.6-7.9
			h-10.3v-4h15.9v3.5l-6.9,7.9c3.8,0.6,7.2,2.8,7.2,7.5v0.1c0,5.1-3.7,8.6-8.9,8.6C1409.7,453.8,1406.8,452.2,1404.8,450z"/>
	</g>
</g>
</svg>
